<?xml version="1.0" encoding="UTF-8"?>
<svg version="1.1" xmlns="http://www.w3.org/2000/svg" width="500" height="500">
<path d="M0 0 C147.84 0 295.68 0 448 0 C448 14.62504749 448 14.62504749 447.40933323 21.31953526 C447.31354532 22.43177123 447.31354532 22.43177123 447.21582231 23.56647661 C447.00392339 26.01109121 446.7840497 28.45491647 446.56410217 30.89881897 C446.40759057 32.68493472 446.25157649 34.47109412 446.09601301 36.25729269 C445.66978124 41.13473592 445.23651177 46.01153157 444.80202544 50.88824546 C444.33367926 56.15908331 443.87191978 61.4304988 443.40931702 66.70184326 C442.50332032 77.01368981 441.5912616 87.32499153 440.67710669 97.6361177 C439.61286527 109.64255277 438.55452474 121.64950578 437.49638932 133.65648025 C435.60882791 155.07275502 433.71572635 176.48853649 431.81958008 197.90405273 C429.97899508 218.69208426 428.14261901 239.48048207 426.31079102 260.26928711 C423.99730428 286.5241703 421.68015558 312.77872771 419.35992842 339.03301607 C418.61999205 347.40691618 417.88136735 355.78093141 417.14317513 364.15498543 C416.24440107 374.34983669 415.34323897 384.54447365 414.43904931 394.73884607 C413.97758643 399.94220174 413.51714961 405.14564278 413.05947113 410.34933281 C412.64090418 415.10794239 412.21939201 419.86628134 411.7954753 424.62441724 C411.64225321 426.35009978 411.49012301 428.07587967 411.33916653 429.80176187 C411.13456178 432.13912603 410.92604581 434.47610872 410.71650791 436.81303501 C410.60145265 438.11374488 410.48639739 439.41445476 410.36785561 440.75458008 C409.81390095 445.64186585 409.81390095 445.64186585 409 448 C407.40408325 448.91348267 407.40408325 448.91348267 405.28173828 449.51025391 C404.06537186 449.86594452 404.06537186 449.86594452 402.82443237 450.2288208 C401.91557281 450.47557556 401.00671326 450.72233032 400.0703125 450.9765625 C398.61312302 451.39455109 398.61312302 451.39455109 397.12649536 451.82098389 C393.79701872 452.77176509 390.46115009 453.69792905 387.125 454.625 C384.73097475 455.30384398 382.33743485 455.98440151 379.94433594 456.66650391 C375.21924235 458.01092599 370.49257911 459.34940781 365.76364899 460.68026543 C354.27279059 463.91431836 342.79605693 467.1971552 331.3203125 470.484375 C327.3123695 471.63211136 323.30438468 472.77970166 319.29638672 473.92724609 C318.29740923 474.21328642 317.29843174 474.49932674 316.26918221 474.79403496 C309.39794826 476.76113269 302.52576068 478.72486719 295.65283203 480.68603516 C294.71303686 480.95425898 293.77324169 481.2224828 292.80496788 481.49883461 C288.17018576 482.82131395 283.53492348 484.14207192 278.89877319 485.45974731 C271.00704954 487.70420235 263.11845365 489.95654153 255.2474556 492.27280998 C252.00505226 493.22667658 248.76057087 494.17336312 245.51598358 495.11977005 C244.01814455 495.55914969 242.52141848 496.00234503 241.02594757 496.44971848 C238.98059413 497.06152487 236.93179763 497.6601969 234.88183594 498.25634766 C233.16767487 498.76423325 233.16767487 498.76423325 231.41888428 499.28237915 C224.60201463 500.71323419 219.22653891 500.06591981 212.59716797 498.13354492 C211.89843063 497.93307556 211.1996933 497.7326062 210.4797821 497.52606201 C208.14755371 496.85421536 205.82004999 496.16727671 203.4921875 495.48046875 C201.7785277 494.98368256 200.06458032 494.48788748 198.35037231 493.99299622 C193.76413453 492.66623873 189.18164412 491.32697236 184.59991455 489.98474121 C180.3340949 488.73667007 176.06553224 487.4980904 171.796875 486.25976562 C166.2521034 484.65083914 160.70757308 483.04111169 155.16424561 481.42721558 C131.10878006 474.42854347 107.02540914 467.52660871 82.9453125 460.61328125 C81.86057191 460.30184355 80.77583133 459.99040584 79.65821981 459.66953063 C66.10580092 455.77856821 52.5530656 451.88870917 39 448 C33.75968117 389.11698438 28.5238695 330.23356918 23.29434204 271.34959412 C23.20596714 270.35450566 23.20596714 270.35450566 23.11580689 269.33931441 C22.04070618 257.23383551 22.04070618 257.23383551 21.504246 251.19312394 C19.84931654 232.5582072 18.19321672 213.92339489 16.53631389 195.28865349 C14.40591012 171.32835938 12.27800072 147.36784567 10.1540823 123.40697575 C9.09797774 111.49331269 8.04068441 99.57975779 6.98031616 87.66647339 C6.07894799 77.53953676 5.17994054 67.41239418 4.28407508 57.28496921 C3.82777373 52.12748212 3.37033525 46.97010255 2.90983772 41.81298828 C2.48897085 37.09938859 2.07134847 32.38551313 1.65631449 27.67139637 C1.50571212 25.96733846 1.35391982 24.2633852 1.20081651 22.55955017 C0.99286598 20.24337907 0.78926759 17.92686412 0.58673096 15.61021423 C0.4725948 14.32433883 0.35845863 13.03846342 0.2408638 11.71362209 C-0.01190531 7.81644465 0 3.90536608 0 0 Z " fill="#0277BD" transform="translate(26,0)"/>
<path d="M0 0 C79.53 0 159.06 0 241 0 C241 14.93697425 241 14.93697425 240.55688477 21.66088867 C240.50972321 22.42700974 240.46256165 23.1931308 240.41397095 23.98246765 C240.2603706 26.46123159 240.1010383 28.93958659 239.94140625 31.41796875 C239.8313994 33.16903323 239.72169969 34.92011702 239.61228943 36.67121887 C239.38359433 40.31800379 239.15222503 43.96460515 238.91870117 47.61108398 C238.62102014 52.26051516 238.32854768 56.91025524 238.03788853 61.56013012 C237.81206232 65.16780726 237.58425572 68.77535712 237.35578728 72.38286781 C237.24733429 74.09667624 237.13929938 75.81051117 237.03170967 77.52437401 C236.54520895 85.25072452 236.04715356 92.96311549 235.22322083 100.66233826 C234.76601422 105.45039687 234.56036516 110.25583825 234.31640625 115.05859375 C234.19207094 117.40950593 234.0677215 119.76041736 233.94335938 122.11132812 C233.75395176 125.74548065 233.56548789 129.37968019 233.37768555 133.01391602 C232.72098148 145.66351502 232.01288601 158.30043514 231.03515625 170.9296875 C229.76854312 187.3483573 228.89898753 203.78797567 228.00842285 220.23040771 C227.78226746 224.39524652 227.55309349 228.55991928 227.32421875 232.72460938 C226.87995783 240.81625201 226.43888238 248.90806386 226 257 C225.10310707 257.28398148 225.10310707 257.28398148 224.18809509 257.57369995 C206.91317935 263.05208405 189.70529498 268.72210123 172.51885986 274.4708252 C169.89627438 275.34777497 167.273311 276.2235908 164.65029335 277.09924698 C163.34791645 277.53406727 162.04558733 277.96903069 160.74330711 278.40414047 C157.58942691 279.45782124 154.43487127 280.50934899 151.27920532 281.55767822 C145.96786579 283.32447674 140.66559995 285.10476835 135.39404297 286.98730469 C134.15556862 287.42271072 134.15556862 287.42271072 132.89207458 287.86691284 C131.42659104 288.38428402 129.96511844 288.91326933 128.50941467 289.45755005 C120.17518014 292.37498405 112.9708721 289.17139397 105.015625 286.45703125 C103.9421582 286.09642609 102.86869141 285.73582092 101.76269531 285.36428833 C98.25667318 284.18560349 94.75339857 282.99895741 91.25 281.8125 C86.37597746 280.17156591 81.50050464 278.53496193 76.625 276.8984375 C74.78630341 276.28037483 74.78630341 276.28037483 72.91046143 275.64982605 C59.21490264 271.05212502 45.47466765 266.59418746 31.72753906 262.15356445 C30.87506592 261.87761444 30.02259277 261.60166443 29.14428711 261.31735229 C27.56452947 260.80611135 25.98431711 260.29627247 24.40356445 259.78811646 C19.22418041 258.11209021 19.22418041 258.11209021 17 257 C16.60522461 254.82055664 16.60522461 254.82055664 16.40234375 251.91015625 C16.3235498 250.82863281 16.24475586 249.74710938 16.16357422 248.6328125 C16.05166748 246.86550781 16.05166748 246.86550781 15.9375 245.0625 C15.85516113 243.85207031 15.77282227 242.64164063 15.68798828 241.39453125 C15.14491851 233.10115682 14.7118355 224.80421827 14.375 216.5 C14.3349585 215.52554932 14.29491699 214.55109863 14.25366211 213.54711914 C13.91417236 204.01856338 14 194.55391312 14 185 C31.16 185 48.32 185 66 185 C66.99 200.84 66.99 200.84 68 217 C73.9212307 219.08486815 79.84320698 221.16731441 85.76733398 223.24389648 C87.77823225 223.94955685 89.78865916 224.65656199 91.79858398 225.36499023 C94.70430582 226.38888377 97.61174474 227.40776824 100.51953125 228.42578125 C101.40332962 228.73840408 102.28712799 229.05102692 103.19770813 229.37312317 C105.78967783 230.27748922 108.39296027 231.14018299 111 232 C112.3573526 232.49034729 112.3573526 232.49034729 113.74212646 232.99060059 C120.85066303 235.3270503 125.26839907 234.8105993 132.1640625 232.1171875 C133.08158295 231.787117 133.99910339 231.45704651 134.94442749 231.11697388 C137.84933464 230.06478307 140.73647045 228.97124917 143.625 227.875 C145.56926954 227.16121515 147.51457742 226.45025198 149.4609375 225.7421875 C153.04929062 224.433966 156.63009243 223.10811707 160.20556641 221.76513672 C164.76736535 220.06304577 169.36988599 218.50518591 174 217 C175.6523672 206.04538008 176.51998315 195.18336085 177.0625 184.125 C177.17926581 181.82172765 177.29784854 179.51857599 177.41929626 177.21554565 C177.49353441 175.8009243 177.56504441 174.38615554 177.6330719 172.97122192 C177.89229546 167.93048251 178.43976357 163.04212787 179 158 C140.72 158 102.44 158 63 158 C61 123 61 123 61 106 C100.93 106 140.86 106 182 106 C182 101.71 182 97.42 182 93 C182.99 79.8 183.98 66.6 185 53 C125.27 53 65.54 53 4 53 C0 9 0 9 0 0 Z " fill="#FEFEFE" transform="translate(129,105)"/>
<path d="M0 0 C59.4 0 118.8 0 180 0 C180 17.11109941 180 17.11109941 179.1171875 24.10986328 C178.93033452 25.73388293 178.74517681 27.35809832 178.56152344 28.98248291 C178.42006897 30.2183099 178.42006897 30.2183099 178.27575684 31.47910309 C177.81001924 35.73675445 177.43902494 40.00205935 177.0703125 44.26904297 C176.99406647 45.147157 176.91782043 46.02527103 176.83926392 46.92999458 C176.59981475 49.70061007 176.36241596 52.47139711 176.125 55.2421875 C175.9534682 57.22740207 175.78175185 59.21260071 175.60986328 61.19778442 C175.16200277 66.37448571 174.7160741 71.55135128 174.27075195 76.72827148 C173.55892616 85.0012405 172.84472726 93.27400402 172.1293335 101.54666519 C171.88369746 104.39145923 171.6392833 107.23635616 171.39501953 110.08126831 C170.53876735 120.01661274 169.64396867 129.94658539 168.65963745 139.87017632 C168.14713689 145.11868563 167.77266933 150.35891105 167.5 155.625 C167.20290285 161.34145401 166.71911583 167.00698832 166.0859375 172.69580078 C164.95061347 183.19914067 164.02688449 193.71664014 163.125 204.2421875 C162.9534682 206.22740207 162.78175185 208.21260071 162.60986328 210.19778442 C162.16200277 215.37448571 161.7160741 220.55135128 161.27075195 225.72827148 C160.55892616 234.0012405 159.84472726 242.27400402 159.1293335 250.54666519 C158.88369746 253.39145923 158.6392833 256.23635616 158.39501953 259.08126831 C157.53876735 269.01661274 156.64396867 278.94658539 155.65963745 288.87017632 C155.14702329 294.11984902 154.77467843 299.35731912 154.5 304.625 C154.19896875 310.28998615 153.72981979 315.90485717 153.1015625 321.54296875 C151.87115998 332.91085505 150.87232719 344.29721536 149.875 355.6875 C149.69155298 357.76889315 149.50795999 359.85027343 149.32421875 361.93164062 C148.88113694 366.95428107 148.44000507 371.97708912 148 377 C143.48729099 378.73333443 139.05744505 380.3585977 134.375 381.578125 C133.33601562 381.85269531 132.29703125 382.12726563 131.2265625 382.41015625 C129.62941406 382.82587891 129.62941406 382.82587891 128 383.25 C119.94744067 385.35111767 111.94548319 387.58146458 103.9609375 389.92578125 C86.23843112 395.12658764 68.46745234 400.15874439 50.70166016 405.20922852 C45.58112484 406.66506901 40.46151977 408.12415475 35.34209633 409.5838995 C31.3776473 410.71370354 27.41254157 411.84118864 23.44724655 412.96801949 C21.55629102 413.50581503 19.66558511 414.04448912 17.77513504 414.58405876 C15.15888767 415.33055403 12.54173201 416.07377511 9.92431641 416.81616211 C9.14634705 417.03893326 8.36837769 417.26170441 7.5668335 417.4912262 C2.2282647 419 2.2282647 419 0 419 C0 398.21 0 377.42 0 356 C18.35572825 349.11660191 18.35572825 349.11660191 25.703125 346.7734375 C26.53797928 346.5034494 27.37283356 346.2334613 28.23298645 345.95529175 C30.90427252 345.09189412 33.57709693 344.23337704 36.25 343.375 C40.04629894 342.15067858 43.84167823 340.92352861 47.63671875 339.6953125 C48.58626938 339.38823364 49.53582001 339.08115479 50.5141449 338.76477051 C56.84204583 336.71350308 63.15433422 334.61956131 69.45703125 332.4921875 C70.27756989 332.21575409 71.09810852 331.93932068 71.94351196 331.6545105 C75.79931057 330.35463515 79.652715 329.04825273 83.50292969 327.73193359 C90.59011224 325.3284614 97.58133751 323.15314844 105 322 C104.98404785 321.08460449 104.9680957 320.16920898 104.95166016 319.22607422 C104.80739995 306.68911772 105.46013744 294.21572654 106.171875 281.70214844 C106.37265509 278.16629519 106.56583408 274.63009087 106.7578125 271.09375 C107.39608624 259.52023943 108.12714072 247.95971066 109.01171875 236.40234375 C109.94279508 224.23119616 110.6364372 212.05595351 111.26095581 199.86566162 C112.24615307 180.73495305 113.37895528 161.62492338 114.79785156 142.52172852 C116.71229575 116.69362783 118.3195527 90.84412056 120 65 C80.4 65 40.8 65 0 65 C0 43.55 0 22.1 0 0 Z " fill="#039BE4" transform="translate(250,40)"/>
<path d="M0 0 C17.16 0 34.32 0 52 0 C52.99 15.84 52.99 15.84 54 32 C58.46466797 33.55460937 58.46466797 33.55460937 63.01953125 35.140625 C65.93552776 36.15655972 68.85143497 37.17275034 71.76733398 38.18896484 C73.77765763 38.88942717 75.78807249 39.5896278 77.79858398 40.28955078 C80.70581301 41.30170253 83.61270132 42.31482772 86.51953125 43.328125 C87.40332962 43.63558655 88.28712799 43.9430481 89.19770813 44.25982666 C95.48641905 46.45347312 101.73926698 48.72336981 108 51 C108.33 69.15 108.66 87.3 109 106 C104.45936932 105.35133847 101.09746932 104.86553511 96.93066406 103.45629883 C95.98739258 103.14071014 95.04412109 102.82512146 94.07226562 102.49996948 C93.06357422 102.15579987 92.05488281 101.81163025 91.015625 101.45703125 C89.9421582 101.09642609 88.86869141 100.73582092 87.76269531 100.36428833 C84.25667318 99.18560349 80.75339857 97.99895741 77.25 96.8125 C72.37597746 95.17156591 67.50050464 93.53496193 62.625 91.8984375 C61.39920227 91.48639572 60.17340454 91.07435394 58.91046143 90.64982605 C45.21490264 86.05212502 31.47466765 81.59418746 17.72753906 77.15356445 C16.87506592 76.87761444 16.02259277 76.60166443 15.14428711 76.31735229 C13.56452947 75.80611135 11.98431711 75.29627247 10.40356445 74.78811646 C5.22418041 73.11209021 5.22418041 73.11209021 3 72 C2.60522461 69.82055664 2.60522461 69.82055664 2.40234375 66.91015625 C2.3235498 65.82863281 2.24475586 64.74710937 2.16357422 63.6328125 C2.08896973 62.45460938 2.01436523 61.27640625 1.9375 60.0625 C1.85516113 58.85207031 1.77282227 57.64164062 1.68798828 56.39453125 C1.14491851 48.10115682 0.7118355 39.80421827 0.375 31.5 C0.3349585 30.52554932 0.29491699 29.55109863 0.25366211 28.54711914 C-0.08582764 19.01856338 0 9.55391312 0 0 Z " fill="#ECEDED" transform="translate(143,290)"/>
<path d="M0 0 C79.53 0 159.06 0 241 0 C241 0.33 241 0.66 241 1 C201.73 1 162.46 1 122 1 C122 18.16 122 35.32 122 53 C83.06 53 44.12 53 4 53 C0 9 0 9 0 0 Z " fill="#EBEDED" transform="translate(129,105)"/>
<path d="M0 0 C38.28 0 76.56 0 116 0 C115.31591019 19.83860461 114.53090138 39.36291695 112 59 C105.28523732 61.73997127 98.52826513 64.29990892 91.6875 66.70703125 C90.75196289 67.03668381 89.81642578 67.36633636 88.85253906 67.70597839 C86.89676995 68.39372216 84.94054721 69.08017721 82.98388672 69.76538086 C79.97763971 70.82034677 76.97520826 71.88574231 73.97265625 72.95117188 C72.06533067 73.62043751 70.15778639 74.28908031 68.25 74.95703125 C67.35112061 75.27775101 66.45224121 75.59847076 65.52612305 75.9289093 C64.69765869 76.21638535 63.86919434 76.50386139 63.015625 76.80004883 C62.28633789 77.05667801 61.55705078 77.31330719 60.80566406 77.57771301 C59 78 59 78 57 77 C57.33 51.92 57.66 26.84 58 1 C38.86 1 19.72 1 0 1 C0 0.67 0 0.34 0 0 Z " fill="#059BE4" transform="translate(192,263)"/>
<path d="M0 0 C21.12 0 42.24 0 64 0 C64 17.69494592 62.43003243 35.3629334 61 53 C21.07 53 -18.86 53 -60 53 C-60 52.67 -60 52.34 -60 52 C-40.2 52 -20.4 52 0 52 C0 34.84 0 17.68 0 0 Z " fill="#079CE4" transform="translate(250,158)"/>
<path d="M0 0 C20.13 0 40.26 0 61 0 C61 17.16 61 34.32 61 52 C41.53 52 22.06 52 2 52 C1.67 46.575625 1.34 41.15125 1 35.5625 C0.89558594 33.89002197 0.79117188 32.21754395 0.68359375 30.49438477 C0.6011658 29.10174868 0.51911271 27.70909035 0.4375 26.31640625 C0.39431641 25.64766479 0.35113281 24.97892334 0.30664062 24.28991699 C-0.15867348 16.17046289 0 8.17862712 0 0 Z " fill="#ECEDED" transform="translate(190,211)"/>
</svg>
