<?xml version="1.0" encoding="UTF-8"?>
<svg version="1.1" xmlns="http://www.w3.org/2000/svg" width="500" height="500">
<path d="M0 0 C9.55888183 5.03434965 17.08045613 12.21554131 24.77734375 19.6484375 C25.41423189 20.26278278 26.05112003 20.87712807 26.70730782 21.51008987 C30.08634468 24.77697244 33.45051465 28.05845071 36.80541992 31.35009766 C39.5304437 34.01783139 42.28211864 36.65211115 45.06420898 39.26025391 C64.37210792 57.38748839 77.05608839 73.78300301 83 100 C83 100.66 83 101.32 83 102 C83.98871094 102.10183594 84.97742188 102.20367187 85.99609375 102.30859375 C90.30085553 102.93004442 94.07170236 104.37665652 98.0625 106.0625 C98.80056885 106.37195557 99.5386377 106.68141113 100.29907227 107.00024414 C109.18519793 110.82004598 117.65185759 115.14272068 125.06030273 121.41333008 C129.64743164 125.12124607 134.45058207 128.19535913 139.47900391 131.26855469 C150.8234709 138.30381316 161.36893706 146.21221647 171.625 154.75 C172.56128235 155.52813049 173.4975647 156.30626099 174.46221924 157.10797119 C199.91742147 178.74887776 212.4677891 201.05250962 215.29247856 234.26294327 C217.04693253 257.80831565 216.74127483 281.42071803 216 305 C215.9664721 306.08944853 215.9329442 307.17889706 215.89840031 308.30135918 C214.99879587 336.91841655 213.35060226 365.46646537 211 394 C210.11516811 394.28521452 209.23033623 394.57042904 208.31869125 394.86428642 C204.98722019 395.93824796 201.65580611 397.01238594 198.32442856 398.0866375 C196.89168612 398.54860786 195.45892201 399.01051102 194.02613449 399.47234154 C185.89266953 402.09405524 177.76155424 404.72245969 169.640625 407.3828125 C168.20576837 407.8516825 166.77087842 408.32045052 165.3359375 408.7890625 C163.2398178 409.4736944 161.14423742 410.15983171 159.04980469 410.84960938 C156.91470491 411.55220507 154.77787589 412.24929255 152.640625 412.9453125 C151.42922852 413.34250488 150.21783203 413.73969727 148.96972656 414.14892578 C146 415 146 415 143 415 C142.6453064 416.78180664 142.6453064 416.78180664 142.28344727 418.59960938 C140.7829116 425.33336873 138.59328362 431.85052011 136.46484375 438.40625 C136.02142401 439.78095984 135.57827783 441.15575795 135.13539124 442.53063965 C134.21256442 445.39236597 133.28692108 448.25316036 132.35913086 451.11328125 C131.16829616 454.78485936 129.98393318 458.45848693 128.80153561 462.13278961 C127.89022502 464.96270687 126.97591594 467.79164796 126.06064034 470.62028503 C125.62240527 471.97564865 125.1850285 473.33129008 124.74851799 474.68721008 C124.14125856 476.57174123 123.52960489 478.45485473 122.91772461 480.33789062 C122.57067978 481.40994751 122.22363495 482.48200439 121.86607361 483.58654785 C121 486 121 486 120 487 C117.95893141 487.09900176 115.91437875 487.12632314 113.87091064 487.12698364 C113.22333762 487.12854363 112.57576459 487.13010362 111.90856814 487.13171089 C109.7219004 487.13572349 107.53530117 487.13252995 105.34863281 487.12939453 C103.78651895 487.13074872 102.22440541 487.13252876 100.66229248 487.13470459 C96.40073911 487.13928432 92.13920981 487.13748519 87.87765598 487.1343255 C83.40580238 487.13179574 78.93395085 487.134142 74.46209717 487.13571167 C66.9294803 487.13753532 59.3968732 487.13512588 51.86425781 487.13037109 C43.20491911 487.12496753 34.54560409 487.12666161 25.88626599 487.1321975 C18.4303509 487.13677054 10.97444284 487.1373577 3.51852679 487.13475883 C-0.92381758 487.13321381 -5.36615094 487.13295201 -9.80849457 487.13629532 C-11.5213165 487.13722583 -13.23413846 487.1381102 -14.94696045 487.13894653 C-15.77574923 487.13960839 -16.60453802 487.14027025 -17.45844162 487.14095217 C-21.45599341 487.14128199 -25.45243166 487.12667255 -29.44970131 487.0774641 C-30.94037426 487.0594999 -32.43104795 487.04159619 -33.92172241 487.02375793 C-34.98523161 487.01036012 -34.98523161 487.01036012 -36.07022583 486.99669164 C-40.1588359 486.96171333 -44.18734671 487.10894861 -48.26309204 487.42094421 C-57.62811716 487.96889889 -63.26638033 486.59893837 -70.58660316 480.50608349 C-75.14218557 476.3484117 -79.37618888 471.91579436 -83.6171875 467.44140625 C-85.49447759 465.53435654 -87.37525349 463.63149069 -89.26126099 461.73313904 C-93.18896919 457.76429371 -97.07866102 453.7613716 -100.94287109 449.73071289 C-106.36743075 444.0725955 -111.85691841 438.48105608 -117.36136794 432.9007827 C-125.16549412 424.98097162 -132.93903966 417.03017863 -140.64404297 409.01391602 C-141.39004761 408.24727631 -142.13605225 407.4806366 -142.90466309 406.69076538 C-156.30485708 392.66092834 -164.08977276 376.24194704 -170 358 C-170.495 356.515 -170.495 356.515 -171 355 C-173.88221598 353.91632848 -173.88221598 353.91632848 -177.47167969 353.09277344 C-201.95643161 346.42248162 -216.36633085 334.59396274 -233.40789795 316.21929932 C-236.51707718 312.89543106 -239.69845502 309.64203275 -242.87109375 306.37890625 C-266.29491218 282.16083633 -266.29491218 282.16083633 -270.8125 272.6875 C-271.21082031 271.86636719 -271.60914063 271.04523438 -272.01953125 270.19921875 C-274.7628679 264.04583814 -275.32859934 257.61060735 -274 251 C-272.70818408 248.40683646 -271.45224673 246.20709988 -269.84765625 243.83203125 C-269.407099 243.15435699 -268.96654175 242.47668274 -268.51263428 241.7784729 C-267.02646983 239.50647452 -265.51561167 237.25244905 -264 235 C-263.46160492 234.19337921 -262.92320984 233.38675842 -262.36849976 232.55569458 C-258.82292453 227.24578016 -255.24529412 221.9581616 -251.65527344 216.67822266 C-248.40260508 211.89258221 -245.16140702 207.09922588 -241.921875 202.3046875 C-241.3325116 201.43568817 -240.74314819 200.56668884 -240.13592529 199.6713562 C-235.40969929 192.67907765 -230.86663995 185.57874811 -226.38825989 178.42564392 C-220.04658835 168.29752846 -213.25847613 158.4577391 -206.5625 148.5625 C-194.62520251 130.9374293 -194.62520251 130.9374293 -182.875 113.1875 C-182.29693604 112.30715088 -181.71887207 111.42680176 -181.12329102 110.51977539 C-180.34683228 109.3246936 -180.34683228 109.3246936 -179.5546875 108.10546875 C-179.12655762 107.44699951 -178.69842773 106.78853027 -178.25732422 106.11010742 C-176.88430106 103.90783473 -176.88430106 103.90783473 -175.69946289 101.00341797 C-173.66245789 97.40347032 -171.73288141 96.04998149 -168.25390625 93.83984375 C-167.66754898 93.46110107 -167.08119171 93.0823584 -166.47706604 92.69213867 C-164.51356778 91.42757464 -162.53808045 90.1830872 -160.5625 88.9375 C-159.15827726 88.03689631 -157.75514761 87.13458637 -156.35302734 86.23071289 C-154.07780384 84.76440633 -151.80183271 83.29938274 -149.52258301 81.83934021 C-140.28920985 75.92267843 -131.14262521 69.87496495 -121.99240112 63.83084106 C-119.19872259 61.98617893 -116.40348026 60.14391345 -113.60766602 58.30249023 C-105.41452554 52.90483355 -97.2297269 47.49540174 -89.0703125 42.046875 C-79.60798134 35.72832355 -70.11295138 29.45972816 -60.61230469 23.19897461 C-57.73831932 21.30480155 -54.86523449 19.40926786 -51.9921875 17.51367188 C-46.66640755 14.00155292 -41.33581856 10.49684859 -36 7 C-35.25484131 6.51142517 -34.50968262 6.02285034 -33.74194336 5.51947021 C-31.77336842 4.23142756 -29.80161953 2.94845699 -27.828125 1.66796875 C-26.75981445 0.97340576 -25.69150391 0.27884277 -24.59082031 -0.43676758 C-16.8023491 -5.13612502 -8.02059256 -3.26166654 0 0 Z " fill="#0075C8" transform="translate(283,10)"/>
<path d="M0 0 C6.93378892 5.68819865 13.20171844 12.03158526 19.54811096 18.35383606 C20.82582521 19.62323099 22.10373639 20.89242771 23.38182682 22.16144389 C26.88383175 25.63991455 30.38272096 29.12150426 33.88101828 32.60370314 C36.88391257 35.59202061 39.88859123 38.5785409 42.89324034 41.56509379 C71.34443228 69.8457217 99.75297673 98.16930204 128.15318394 126.50111866 C131.84528861 130.18417504 135.5374739 133.86715059 139.22973633 137.55004883 C140.60624952 138.92308215 140.60624952 138.92308215 142.01057106 140.32385352 C156.90028624 155.17473619 171.81075583 170.00460757 186.72931982 184.82650355 C202.04351836 200.0422883 217.33693724 215.27871891 232.61071914 230.53507537 C241.18807633 239.10151295 249.77467941 247.65823403 258.38507271 256.19147682 C265.71181953 263.45259308 273.01991718 270.73182828 280.30389083 278.03586248 C284.02250298 281.76353232 287.74959109 285.48157783 291.50099182 289.17627335 C294.93236084 292.55617135 298.33757811 295.96027042 301.72342633 299.38575121 C302.95514404 300.6228309 304.19630803 301.85058812 305.44743175 303.06803796 C314.80835573 312.19172641 314.80835573 312.19172641 315.28240961 316.66469657 C314.7870563 319.0236755 314.08087496 320.85552593 313 323 C312.50843666 324.69751404 312.50843666 324.69751404 312.00694275 326.42932129 C311.65910233 327.50774292 311.3112619 328.58616455 310.95288086 329.69726562 C310.55584457 330.93464478 310.15880829 332.17202393 309.7497406 333.44689941 C309.32162079 334.76674107 308.89331763 336.08652325 308.46484375 337.40625 C308.02142401 338.78095984 307.57827783 340.15575795 307.13539124 341.53063965 C306.21256442 344.39236597 305.28692108 347.25316036 304.35913086 350.11328125 C303.16829616 353.78485936 301.98393318 357.45848693 300.80153561 361.13278961 C299.89022502 363.96270687 298.97591594 366.79164796 298.06064034 369.62028503 C297.62240527 370.97564865 297.1850285 372.33129008 296.74851799 373.68721008 C296.14125856 375.57174123 295.52960489 377.45485473 294.91772461 379.33789062 C294.57067978 380.40994751 294.22363495 381.48200439 293.86607361 382.58654785 C293 385 293 385 292 386 C289.95893141 386.09900176 287.91437875 386.12632314 285.87091064 386.12698364 C285.22333762 386.12854363 284.57576459 386.13010362 283.90856814 386.13171089 C281.7219004 386.13572349 279.53530117 386.13252995 277.34863281 386.12939453 C275.78651895 386.13074872 274.22440541 386.13252876 272.66229248 386.13470459 C268.40073911 386.13928432 264.13920981 386.13748519 259.87765598 386.1343255 C255.40580238 386.13179574 250.93395085 386.134142 246.46209717 386.13571167 C238.9294803 386.13753532 231.3968732 386.13512588 223.86425781 386.13037109 C215.20491911 386.12496753 206.54560409 386.12666161 197.88626599 386.1321975 C190.4303509 386.13677054 182.97444284 386.1373577 175.51852679 386.13475883 C171.07618242 386.13321381 166.63384906 386.13295201 162.19150543 386.13629532 C160.4786835 386.13722583 158.76586154 386.1381102 157.05303955 386.13894653 C156.22425077 386.13960839 155.39546198 386.14027025 154.54155838 386.14095217 C150.54400659 386.14128199 146.54756834 386.12667255 142.55029869 386.0774641 C141.05962574 386.0594999 139.56895205 386.04159619 138.07827759 386.02375793 C137.01476839 386.01036012 137.01476839 386.01036012 135.92977417 385.99669164 C131.8411641 385.96171333 127.81265329 386.10894861 123.73690796 386.42094421 C114.37188284 386.96889889 108.73361967 385.59893837 101.41339684 379.50608349 C96.85781443 375.3484117 92.62381112 370.91579436 88.3828125 366.44140625 C86.50552241 364.53435654 84.62474651 362.63149069 82.73873901 360.73313904 C78.81103081 356.76429371 74.92133898 352.7613716 71.05712891 348.73071289 C65.63256925 343.0725955 60.14308159 337.48105608 54.63863206 331.9007827 C46.83450588 323.98097162 39.06096034 316.03017863 31.35595703 308.01391602 C30.60995239 307.24727631 29.86394775 306.4806366 29.09533691 305.69076538 C17.94122736 294.01255092 9.99006888 280.2192659 4.5625 265.0625 C4.31556396 264.37728271 4.06862793 263.69206543 3.81420898 262.98608398 C2.22327134 258.3118899 1.51033731 253.91013858 1 249 C0.82918191 248.13531034 0.65836382 247.27062069 0.48236942 246.37972832 C-0.15423248 241.91936788 -0.13437795 237.55293968 -0.12025452 233.05325317 C-0.12110894 232.0558234 -0.12196337 231.05839363 -0.12284368 230.03073871 C-0.12448975 226.69120983 -0.11899137 223.35173128 -0.11352539 220.01220703 C-0.1132433 217.61726381 -0.11340167 215.22232049 -0.1139679 212.82737732 C-0.11422522 207.00082318 -0.10989034 201.1742855 -0.10353024 195.34773512 C-0.09637591 188.566581 -0.09488456 181.78542921 -0.09374207 175.00427185 C-0.09155476 162.91169859 -0.08490336 150.81913209 -0.07543945 138.7265625 C-0.06625704 126.98144566 -0.05918026 115.23633065 -0.05493164 103.49121094 C-0.05466892 102.76694735 -0.05440619 102.04268377 -0.05413551 101.2964728 C-0.05283045 97.66296731 -0.05156675 94.0294618 -0.05032361 90.39595628 C-0.03996098 60.26396612 -0.02227692 30.13198385 0 0 Z " fill="#00C4B3" transform="translate(111,111)"/>
<path d="M0 0 C6.90656686 1.38662101 13.37614026 3.38366274 20.00390625 5.75390625 C21.58561615 6.31245804 21.58561615 6.31245804 23.19927979 6.8822937 C26.65544906 8.10411351 30.10895185 9.33329311 33.5625 10.5625 C36.00007361 11.4256933 38.43782035 12.28839783 40.87573242 13.15063477 C47.08047407 15.34641281 53.2831185 17.54804749 59.48510742 19.75158691 C64.73387279 21.61583375 69.98404188 23.4761114 75.234375 25.3359375 C76.67888283 25.84763741 76.67888283 25.84763741 78.15257263 26.36967468 C80.07817987 27.05179556 82.00379323 27.73389915 83.92941284 28.41598511 C86.84058064 29.44744933 89.75148215 30.47966242 92.66235352 31.51196289 C108.2628676 37.04238294 123.87969621 42.52575887 139.5 48 C156.53836313 53.97141775 173.5713716 59.95729298 190.58917236 65.98709106 C193.57914724 67.04625716 196.56956811 68.10415593 199.56005859 69.16186523 C207.49827901 71.97151004 215.4342038 74.78595463 223.3487854 77.66163635 C226.27216875 78.72377977 229.19767443 79.7800083 232.12322998 80.83615112 C234.0504891 81.53546347 235.97373955 82.24502972 237.89697266 82.95532227 C239.0266748 83.36322998 240.15637695 83.7711377 241.3203125 84.19140625 C242.28211426 84.54404541 243.24391602 84.89668457 244.23486328 85.26000977 C251.08071074 87.09205671 255.54871374 85.22459184 261.703125 82.34375 C262.95811798 81.77291687 262.95811798 81.77291687 264.23846436 81.19055176 C266.91393251 79.97087771 269.58200248 78.73591772 272.25 77.5 C273.99691308 76.69946655 275.74430532 75.89997782 277.4921875 75.1015625 C280.95252919 73.51986771 284.41132148 71.93485729 287.86914062 70.34765625 C292.96138402 68.01441936 298.06108397 65.69858155 303.171875 63.40625 C303.93348938 63.0613855 304.69510376 62.716521 305.47979736 62.36120605 C310.76803897 60 310.76803897 60 313 60 C311.40783235 67.99826912 308.98073738 75.65713795 306.46484375 83.40625 C306.02142401 84.78095984 305.57827783 86.15575795 305.13539124 87.53063965 C304.21256442 90.39236597 303.28692108 93.25316036 302.35913086 96.11328125 C301.16829616 99.78485936 299.98393318 103.45848693 298.80153561 107.13278961 C297.89022502 109.96270687 296.97591594 112.79164796 296.06064034 115.62028503 C295.62240527 116.97564865 295.1850285 118.33129008 294.74851799 119.68721008 C294.14125856 121.57174123 293.52960489 123.45485473 292.91772461 125.33789062 C292.57067978 126.40994751 292.22363495 127.48200439 291.86607361 128.58654785 C291 131 291 131 290 132 C287.95893141 132.09900176 285.91437875 132.12632314 283.87091064 132.12698364 C283.22333762 132.12854363 282.57576459 132.13010362 281.90856814 132.13171089 C279.7219004 132.13572349 277.53530117 132.13252995 275.34863281 132.12939453 C273.78651895 132.13074872 272.22440541 132.13252876 270.66229248 132.13470459 C266.40073911 132.13928432 262.13920981 132.13748519 257.87765598 132.1343255 C253.40580238 132.13179574 248.93395085 132.134142 244.46209717 132.13571167 C236.9294803 132.13753532 229.3968732 132.13512588 221.86425781 132.13037109 C213.20491911 132.12496753 204.54560409 132.12666161 195.88626599 132.1321975 C188.4303509 132.13677054 180.97444284 132.1373577 173.51852679 132.13475883 C169.07618242 132.13321381 164.63384906 132.13295201 160.19150543 132.13629532 C158.4786835 132.13722583 156.76586154 132.1381102 155.05303955 132.13894653 C154.22425077 132.13960839 153.39546198 132.14027025 152.54155838 132.14095217 C148.54400659 132.14128199 144.54756834 132.12667255 140.55029869 132.0774641 C139.05962574 132.0594999 137.56895205 132.04159619 136.07827759 132.02375793 C135.36927146 132.01482606 134.66026533 132.00589418 133.92977417 131.99669164 C129.8411641 131.96171333 125.81265329 132.10894861 121.73690796 132.42094421 C112.37188284 132.96889889 106.73361967 131.59893837 99.41339684 125.50608349 C94.85781443 121.3484117 90.62381112 116.91579436 86.3828125 112.44140625 C84.50552241 110.53435654 82.62474651 108.63149069 80.73873901 106.73313904 C76.81103081 102.76429371 72.92133898 98.7613716 69.05712891 94.73071289 C63.63256925 89.0725955 58.14308159 83.48105608 52.63863206 77.9007827 C44.83450588 69.98097162 37.06096034 62.03017863 29.35595703 54.01391602 C28.60995239 53.24727631 27.86394775 52.4806366 27.09533691 51.69076538 C15.37503963 39.41975938 0 17.90169195 0 0 Z " fill="#21D2C4" transform="translate(113,365)"/>
<path d="M0 0 C5.46588728 0.56297926 10.01219691 1.92908676 15.0625 4.0625 C15.80056885 4.37195557 16.5386377 4.68141113 17.29907227 5.00024414 C26.18519793 8.82004598 34.65185759 13.14272068 42.06030273 19.41333008 C46.64743164 23.12124607 51.45058207 26.19535913 56.47900391 29.26855469 C67.8234709 36.30381316 78.36893706 44.21221647 88.625 52.75 C89.56128235 53.52813049 90.4975647 54.30626099 91.46221924 55.10797119 C116.91742147 76.74887776 129.4677891 99.05250962 132.29247856 132.26294327 C134.04693253 155.80831565 133.74127483 179.42071803 133 203 C132.9664721 204.08944853 132.9329442 205.17889706 132.89840031 206.30135918 C131.99879587 234.91841655 130.35060226 263.46646537 128 292 C127.11516811 292.28521452 126.23033623 292.57042904 125.31869125 292.86428642 C121.98722019 293.93824796 118.65580611 295.01238594 115.32442856 296.0866375 C113.89168612 296.54860786 112.45892201 297.01051102 111.02613449 297.47234154 C102.89266953 300.09405524 94.76155424 302.72245969 86.640625 305.3828125 C85.20576837 305.8516825 83.77087842 306.32045052 82.3359375 306.7890625 C80.2398178 307.4736944 78.14423742 308.15983171 76.04980469 308.84960938 C73.91470491 309.55220507 71.77787589 310.24929255 69.640625 310.9453125 C68.42922852 311.34250488 67.21783203 311.73969727 65.96972656 312.14892578 C63 313 63 313 60 313 C61.70294348 307.42375124 64.04968803 302.19727576 66.4296875 296.88671875 C66.86129181 295.91773148 67.29289612 294.9487442 67.73757935 293.95039368 C69.11410004 290.86158637 70.49447798 287.77452071 71.875 284.6875 C72.79583056 282.62316178 73.71640609 280.55870978 74.63671875 278.49414062 C76.33679695 274.68117596 78.03838055 270.86889118 79.74169922 267.05737305 C80.1159906 266.20517181 80.49028198 265.35297058 80.87591553 264.47494507 C81.61363096 262.85068532 82.39301404 261.24458832 83.21636963 259.66201782 C87.04103209 252.08879285 85.94518542 246.66115906 83.41210938 238.78295898 C82.73256399 236.85049129 82.04250853 234.9216975 81.34375 232.99609375 C80.96992188 231.94148453 80.59609375 230.88687531 80.2109375 229.80030823 C78.98297873 226.34275176 77.74149777 222.89021557 76.5 219.4375 C75.63251876 217.00228947 74.76599583 214.56673738 73.90039062 212.13085938 C72.12861057 207.14911024 70.35172819 202.16922952 68.5703125 197.19091797 C65.19983411 187.76885607 61.86298818 178.33496124 58.52642822 168.90084839 C57.48986783 165.9713649 56.45194186 163.04236874 55.41357422 160.11352539 C50.12955895 145.20811403 44.8718434 130.29353366 39.625 115.375 C39.03585815 113.69988846 39.03585815 113.69988846 38.43481445 111.99093628 C36.03191235 105.15822232 33.62968873 98.32526996 31.22766113 91.49224854 C27.89365368 82.00821233 24.5588688 72.52444981 21.22323608 63.04098511 C20.01656741 59.60961231 18.81061536 56.17798826 17.60473633 52.74633789 C14.21317202 43.09888764 10.81462026 33.45437555 7.36328125 23.828125 C7.09482391 23.07800644 6.82636658 22.32788788 6.54977417 21.55503845 C5.35355256 18.21297736 4.15333825 14.87250578 2.94335938 11.53540039 C2.54568359 10.42672607 2.14800781 9.31805176 1.73828125 8.17578125 C1.39837158 7.23645752 1.05846191 6.29713379 0.70825195 5.3293457 C0 3 0 3 0 0 Z " fill="#00A7E0" transform="translate(366,112)"/>
<path d="M0 0 C9.55888183 5.03434965 17.08045613 12.21554131 24.77734375 19.6484375 C25.41423189 20.26278278 26.05112003 20.87712807 26.70730782 21.51008987 C30.08634468 24.77697244 33.45051465 28.05845071 36.80541992 31.35009766 C39.5304437 34.01783139 42.28211864 36.65211115 45.06420898 39.26025391 C64.37210792 57.38748839 77.05608839 73.78300301 83 100 C83 100.66 83 101.32 83 102 C82.33854131 101.85825914 81.67708261 101.71651829 80.99557972 101.57048225 C69.42227644 99.42689508 57.8535111 99.73427587 46.12573242 99.77294922 C43.71990463 99.77351409 41.31407649 99.77319528 38.9082489 99.77206421 C33.08196537 99.77155184 27.2557483 99.78017527 21.42947992 99.79293953 C14.64317934 99.80730564 7.85688785 99.81023584 1.0705742 99.81251587 C-11.02921774 99.81688064 -23.12898254 99.83015651 -35.22875977 99.84912109 C-46.97452662 99.86751154 -58.72028608 99.88165251 -70.46606445 99.89013672 C-71.55418173 99.89092489 -71.55418173 99.89092489 -72.66428117 99.89172898 C-76.30387626 99.89433928 -79.9434714 99.89686664 -83.58306658 99.89935279 C-113.7220634 99.92004733 -143.86102851 99.95538935 -174 100 C-174 99.34 -174 98.68 -174 98 C-172.23795414 96.66655469 -170.40330725 95.42902676 -168.546875 94.23046875 C-167.95627289 93.84606628 -167.36567078 93.46166382 -166.75717163 93.06561279 C-165.45275328 92.21774819 -164.14623047 91.37311508 -162.83795166 90.53121948 C-160.72112295 89.16891592 -158.60963925 87.7986829 -156.49951172 86.42602539 C-154.20036192 84.93041923 -151.90091389 83.43529622 -149.59994507 81.94248962 C-140.36614579 75.94994023 -131.17782694 69.8885791 -121.98937988 63.82681274 C-119.19643099 61.98461507 -116.40254155 60.14385251 -113.60839844 58.3034668 C-105.41524212 52.90514183 -97.23004404 47.49561352 -89.0703125 42.046875 C-79.60798134 35.72832355 -70.11295138 29.45972816 -60.61230469 23.19897461 C-57.73831932 21.30480155 -54.86523449 19.40926786 -51.9921875 17.51367188 C-46.66640755 14.00155292 -41.33581856 10.49684859 -36 7 C-35.25484131 6.51142517 -34.50968262 6.02285034 -33.74194336 5.51947021 C-31.77336842 4.23142756 -29.80161953 2.94845699 -27.828125 1.66796875 C-26.75981445 0.97340576 -25.69150391 0.27884277 -24.59082031 -0.43676758 C-16.8023491 -5.13612502 -8.02059256 -3.26166654 0 0 Z " fill="#00C3B3" transform="translate(283,10)"/>
</svg>
