<?xml version="1.0" encoding="UTF-8"?>
<svg version="1.1" xmlns="http://www.w3.org/2000/svg" width="500" height="500">
<path d="M0 0 C4.58782427 4.07692954 7.49998747 9.29444284 10.13671875 14.75 C10.50166946 15.48460449 10.86662018 16.21920898 11.24263 16.97607422 C12.4004436 19.31282068 13.54403676 21.65620415 14.6875 24 C15.43334957 25.50825553 16.18008973 27.01607099 16.92773438 28.5234375 C20.59827839 35.94621015 24.19638627 43.40162193 27.74707031 50.88240051 C32.66248806 61.22988768 37.71515914 71.50124272 42.85546875 81.73828125 C43.19474333 82.41418179 43.53401791 83.09008232 43.88357353 83.78646469 C47.03740051 90.06785121 50.19666592 96.34649545 53.35961914 102.62329102 C55.11333048 106.10402962 56.86319814 109.58667798 58.61068153 113.0705471 C59.27063908 114.38426571 59.93211251 115.69722396 60.59514427 117.00939369 C61.5099754 118.81996235 62.41955608 120.63318108 63.32885742 122.4465332 C63.84639084 123.47414261 64.36392426 124.50175201 64.8971405 125.5605011 C66 128 66 128 66 130 C66.66 130 67.32 130 68 130 C68.16616821 129.4650592 68.33233643 128.93011841 68.50354004 128.37896729 C70.4109663 122.43074568 72.75304513 116.78907941 75.34375 111.109375 C75.75411499 110.20173401 76.16447998 109.29409302 76.58728027 108.35894775 C77.449113 106.45545042 78.31311644 104.55293453 79.17919922 102.65136719 C80.50150085 99.74670312 81.81569007 96.83846869 83.12890625 93.9296875 C83.97087709 92.07270028 84.81330904 90.21592205 85.65625 88.359375 C86.04695679 87.49471619 86.43766357 86.63005737 86.84020996 85.73919678 C92.51174235 73.31726434 92.51174235 73.31726434 98 71 C104.44406364 70.06457141 104.44406364 70.06457141 107.76414585 72.0606041 C112.49763773 76.05960596 115.15121237 80.18455736 117.83374023 85.72753906 C118.47900917 87.01150574 118.47900917 87.01150574 119.13731384 88.32141113 C120.54326023 91.12871219 121.92610922 93.94670611 123.30859375 96.765625 C124.2837943 98.72588019 125.26030053 100.68548632 126.23805237 102.64447021 C128.27739079 106.73838646 130.30630708 110.83723183 132.3269043 114.94042969 C134.92145171 120.20898592 137.53338625 125.46866612 140.15202236 130.72528458 C142.64738926 135.735918 145.13478431 140.75049254 147.62109375 145.765625 C148.09769377 146.72561653 148.57429379 147.68560806 149.06533623 148.67469025 C150.4052941 151.37766341 151.73961981 154.08333479 153.07202148 156.79003906 C153.47245667 157.59628723 153.87289185 158.4025354 154.28546143 159.23321533 C157 164.77016801 157 164.77016801 157 167 C163.61563633 161.48237959 169.67081721 155.43619786 175.72415924 149.32044029 C177.48734773 147.53965446 179.25423424 145.7626129 181.02215576 143.98652649 C186.04222252 138.94217213 191.05643737 133.89202941 196.06640625 128.83764648 C199.14474958 125.73252797 202.2279419 122.63229322 205.31417084 119.5350132 C206.48504107 118.35794311 207.6540114 117.17897992 208.82102203 115.99808311 C210.44808574 114.35180697 212.08121401 112.71178038 213.71582031 111.07299805 C215.10525848 109.67237373 215.10525848 109.67237373 216.52276611 108.24345398 C220.57646987 104.57230372 223.46174816 103.5022504 229.0390625 103.69921875 C232.41334625 104.21678817 233.80096375 105.42398611 236 108 C239.22988651 116.11638436 240.50251156 124.59358901 241.94824219 133.16455078 C242.22915569 134.79820004 242.510693 136.43174212 242.7928009 138.06518555 C243.55817755 142.50730554 244.31483866 146.95087119 245.07001019 151.39473581 C245.87860198 156.14350999 246.69541414 160.89087037 247.5112915 165.63839722 C249.07142018 174.72393932 250.62441674 183.8106853 252.17478967 192.89789665 C254.21481419 204.85312026 256.26485806 216.80662376 258.31475353 228.76015806 C260.17357642 239.6000145 262.0299857 250.44026991 263.87902832 261.28179932 C267.14972101 280.45003859 270.44759988 299.61277214 273.81910849 318.76356435 C274.88049159 324.79869529 275.93602591 330.83485284 276.99179959 336.87096727 C277.98877349 342.5657517 278.99610205 348.25857567 280.01142693 353.9501152 C280.63445319 357.45673341 281.24760858 360.9650269 281.85818768 364.47383165 C282.14005026 366.0815104 282.42597699 367.68848342 282.71651936 369.29461622 C286.54604072 390.49109028 286.54604072 390.49109028 285 398 C281.42544826 401.75904243 277.32010455 403.97661953 272.75 406.3125 C271.46791617 407.01928559 270.18898094 407.73180957 268.91308594 408.44970703 C266.26484 409.93404109 263.60482786 411.39292622 260.93359375 412.83544922 C254.90075639 416.12020302 249.0929721 419.76583332 243.25 423.375 C240.92516896 424.79451748 238.59604803 426.20687256 236.265625 427.6171875 C235.67900085 427.97231918 235.09237671 428.32745087 234.48797607 428.69334412 C226.6752837 433.4149099 218.81560496 438.05765325 210.96008301 442.7074585 C201.60387459 448.24667698 192.28376275 453.84025109 183 459.5 C172.74433253 465.7486475 162.45014292 471.92930225 152.125 478.0625 C151.46612793 478.454375 150.80725586 478.84625 150.12841797 479.25 C146.37240016 481.48305302 142.60985307 483.70446794 138.8404541 485.91485596 C136.96287303 487.02189031 135.09422813 488.14309317 133.22558594 489.26513672 C124.31878445 494.56172835 117.20598798 497.35544499 106.8125 497.375 C106.14669922 497.39949219 105.48089844 497.42398437 104.79492188 497.44921875 C92.73896522 497.51688549 82.47184372 492.01862593 72.5 485.8125 C71.33862408 485.10475724 70.17624324 484.39866127 69.01293945 483.6940918 C67.19440784 482.59217178 65.37667718 481.48909423 63.56208801 480.38069153 C57.43114478 476.63597888 51.23486576 473.00648336 45.02932739 469.38717651 C41.97828099 467.60694025 38.93059084 465.82097981 35.8828125 464.03515625 C35.29550858 463.69114273 34.70820465 463.34712921 34.10310364 462.99269104 C24.18131815 457.17903041 14.28917792 451.31506224 4.39355469 445.45703125 C-7.50768846 438.41298574 -19.42625655 431.39914318 -31.36019897 424.41067505 C-40.59951953 418.99994106 -49.826769 413.56935667 -59.03710938 408.109375 C-63.66928331 405.36573074 -68.31744318 402.65681458 -73 400 C-72.394308 388.30766705 -70.33343656 376.81684575 -68.46850586 365.27539062 C-68.0998492 362.97291126 -67.73158933 360.67036834 -67.36369324 358.36776733 C-66.3625941 352.10924789 -65.35595286 345.85163103 -64.34834743 339.59415627 C-63.38619424 333.61334002 -62.42827759 327.63184681 -61.47030038 321.65036052 C-59.55491516 309.69179871 -57.6355404 297.7338808 -55.71362305 285.77636719 C-53.8877984 274.41665046 -52.06358892 263.05667674 -50.24194336 251.69628906 C-50.07646917 250.66434115 -50.07646917 250.66434115 -49.90765207 249.6115458 C-49.35208937 246.1468041 -48.79656651 242.68205601 -48.24106669 239.21730423 C-47.13399378 232.31232291 -46.02670561 225.40737612 -44.91934204 218.50244141 C-44.8101402 217.82151043 -44.70093836 217.14057945 -44.58842738 216.4390142 C-42.9397518 206.15889432 -41.28997915 195.87895088 -39.63949585 185.59912109 C-39.42111455 184.2389431 -39.20273327 182.87876511 -38.98435199 181.51858711 C-38.65832822 179.48797148 -38.3323043 177.45735588 -38.00628027 175.42674029 C-32.66422516 142.15393245 -27.33565665 108.87897573 -22.01615715 75.60255432 C-21.85751326 74.61016298 -21.69886937 73.61777164 -21.53541809 72.59530783 C-21.22300632 70.64091202 -20.91062857 68.68651078 -20.59828657 66.73210382 C-19.86491687 62.14386503 -19.13076544 57.55575452 -18.39459515 52.96796417 C-18.11883462 51.24891179 -17.84310674 49.52985417 -17.56741333 47.81079102 C-17.43474723 46.98356962 -17.30208113 46.15634822 -17.16539484 45.30405951 C-16.395505 40.4952842 -15.63532493 35.68510417 -14.88442355 30.87332773 C-14.42779682 27.95019362 -13.96702989 25.02772018 -13.5057143 22.10532284 C-13.19843306 20.14739065 -12.8973403 18.18849032 -12.59648228 16.22956085 C-12.3224251 14.49744984 -12.3224251 14.49744984 -12.04283142 12.73034668 C-11.88841048 11.73645683 -11.73398954 10.74256699 -11.57488918 9.71855927 C-10.12371642 2.85619472 -7.73774267 -1.365484 0 0 Z " fill="#FECA27" transform="translate(144,3)"/>
<path d="M0 0 C4.58782427 4.07692954 7.49998747 9.29444284 10.13671875 14.75 C10.50166946 15.48460449 10.86662018 16.21920898 11.24263 16.97607422 C12.4004436 19.31282068 13.54403676 21.65620415 14.6875 24 C15.43334957 25.50825553 16.18008973 27.01607099 16.92773438 28.5234375 C20.59827839 35.94621015 24.19638627 43.40162193 27.74707031 50.88240051 C32.66248806 61.22988768 37.71515914 71.50124272 42.85546875 81.73828125 C43.19474333 82.41418179 43.53401791 83.09008232 43.88357353 83.78646469 C47.03740051 90.06785121 50.19666592 96.34649545 53.35961914 102.62329102 C55.11333048 106.10402962 56.86319814 109.58667798 58.61068153 113.0705471 C59.27063908 114.38426571 59.93211251 115.69722396 60.59514427 117.00939369 C61.5099754 118.81996235 62.41955608 120.63318108 63.32885742 122.4465332 C63.84639084 123.47414261 64.36392426 124.50175201 64.8971405 125.5605011 C66 128 66 128 66 130 C66.66 130 67.32 130 68 130 C68.16616821 129.4650592 68.33233643 128.93011841 68.50354004 128.37896729 C70.4109663 122.43074568 72.75304513 116.78907941 75.34375 111.109375 C75.75411499 110.20173401 76.16447998 109.29409302 76.58728027 108.35894775 C77.449113 106.45545042 78.31311644 104.55293453 79.17919922 102.65136719 C80.50150085 99.74670312 81.81569007 96.83846869 83.12890625 93.9296875 C83.97087709 92.07270028 84.81330904 90.21592205 85.65625 88.359375 C86.04695679 87.49471619 86.43766357 86.63005737 86.84020996 85.73919678 C92.51174235 73.31726434 92.51174235 73.31726434 98 71 C104.44188693 70.06488738 104.44188693 70.06488738 107.75924492 72.05582333 C112.53230304 76.08684356 115.22812802 80.29477033 117.97314453 85.86352539 C118.41789627 86.73419144 118.86264801 87.60485748 119.32087708 88.50190735 C120.77460653 91.35918503 122.20461318 94.22754246 123.6328125 97.09765625 C124.6381461 99.09530746 125.64425125 101.09257054 126.65109253 103.08946228 C128.7511817 107.26437269 130.83904212 111.44512578 132.91894531 115.63012695 C135.58895663 120.99903058 138.29320021 126.34984717 141.00726509 131.69658756 C143.09010676 135.81094544 145.15250387 139.93528989 147.20901108 144.0628643 C148.1982205 146.04107622 149.19431607 148.01585995 150.19733047 149.98710823 C151.59309536 152.73669373 152.96024977 155.49872855 154.32080078 158.26586914 C154.74137253 159.08003296 155.16194427 159.89419678 155.59526062 160.73303223 C155.95965744 161.48850845 156.32405426 162.24398468 156.69949341 163.02235413 C157.02501253 163.6736432 157.35053165 164.32493227 157.68591499 164.99595737 C158.16456398 168.05001265 156.68629132 169.48072777 155 172 C153.7486873 173.42373207 152.44689725 174.80414921 151.10691738 176.1447649 C150.31493023 176.94196754 149.52294309 177.73917019 148.70695633 178.56053048 C147.83770478 179.42532059 146.96845322 180.2901107 146.07286072 181.18110657 C144.68680825 182.571839 144.68680825 182.571839 143.27275473 183.99066705 C140.71112847 186.56064081 138.14330338 189.12434133 135.57440555 191.68704379 C132.80393209 194.4529938 130.03921779 197.22469016 127.27375793 199.99565125 C121.85744948 205.42085541 116.4357449 210.84063577 111.01208966 216.25849424 C106.60633075 220.65973877 102.20252491 225.06292862 97.80011177 229.46751976 C97.17386405 230.09407395 96.54761632 230.72062814 95.90239139 231.36616882 C94.63028098 232.63891868 93.35817506 233.91167302 92.08607358 235.18443181 C80.1570114 247.11919745 68.22182565 259.04782417 56.28454042 270.97436424 C46.03281287 281.21714971 35.78634968 291.4651769 25.54370117 301.71704102 C13.65555312 313.61588013 1.76418286 325.51148358 -10.13238615 337.40190381 C-11.39957081 338.66845135 -12.66675129 339.93500309 -13.93392754 341.20155907 C-14.86921134 342.13638004 -14.86921134 342.13638004 -15.82338976 343.09008629 C-20.22609451 347.49106108 -24.62646781 351.89435881 -29.02595711 356.29854774 C-34.38205535 361.66024161 -39.74167454 367.01838519 -45.10590965 372.3719388 C-47.84484137 375.10559698 -50.58211751 377.84086176 -53.3151207 380.58044815 C-56.27131674 383.54365755 -59.23513023 386.49912473 -62.19984436 389.45381165 C-63.07132663 390.32975536 -63.94280891 391.20569908 -64.84069973 392.10818654 C-65.63007913 392.89235045 -66.41945853 393.67651435 -67.23275852 394.4844408 C-67.91690722 395.1682648 -68.60105592 395.85208879 -69.3059364 396.55663472 C-71 398 -71 398 -73 398 C-71.02785717 383.04268222 -68.81707102 368.13718906 -66.42504883 353.24169922 C-66.07597254 351.05594246 -65.72711785 348.87015031 -65.37846375 346.68432617 C-64.43769109 340.79031257 -63.49384538 334.89679489 -62.54941773 329.00336599 C-61.5407814 322.70575181 -60.53505393 316.40767304 -59.52897644 310.10964966 C-57.82668673 299.45581481 -56.12264261 288.80226215 -54.41723633 278.14892578 C-52.07402454 263.51130195 -49.73356796 248.8732391 -47.39391541 234.23504591 C-43.4639299 209.64734 -39.53088294 185.06012476 -35.59619331 160.47317123 C-33.04081466 144.5051419 -30.4862234 128.53698688 -27.93238556 112.56871104 C-26.83287478 105.69397349 -25.73323968 98.81925583 -24.63360113 91.94453871 C-23.7825444 86.62387495 -22.93153704 81.30320331 -22.0806675 75.98250961 C-21.92089383 74.98346576 -21.76112016 73.9844219 -21.59650487 72.95510399 C-21.28150413 70.98541519 -20.96653085 69.015722 -20.65158635 67.0460242 C-19.91013918 62.40978417 -19.16784127 57.7736838 -18.42345524 53.13791466 C-18.14411758 51.39779554 -17.86481216 49.65767125 -17.58554077 47.9175415 C-17.45115355 47.08018467 -17.31676632 46.24282784 -17.17830676 45.38009655 C-16.40240559 40.53715506 -15.63630624 35.69279916 -14.87991422 30.84677279 C-14.42315216 27.92305677 -13.96228636 24.99999542 -13.50090563 22.07700515 C-13.19404141 20.12153717 -12.89336755 18.16510084 -12.59292889 16.20863533 C-12.41058099 15.0559963 -12.22823309 13.90335728 -12.0403595 12.71578979 C-11.88638608 11.72453535 -11.73241266 10.73328091 -11.57377338 9.71198845 C-10.12235357 2.85172987 -7.7336763 -1.36476641 0 0 Z " fill="#FEA000" transform="translate(144,3)"/>
<path d="M0 0 C2.24531861 2.82243014 3.88687186 5.59981512 5.41259766 8.86401367 C6.09894791 10.31750969 6.09894791 10.31750969 6.79916382 11.80036926 C7.29083038 12.84980209 7.78249695 13.89923492 8.2890625 14.98046875 C12.76936079 24.43386964 17.38833284 33.79735205 22.1484375 43.11328125 C23.34914141 45.47451629 24.54966196 47.83584458 25.75 50.19726562 C27.58373592 53.80233675 29.42099871 57.40525645 31.27441406 61.00024414 C33.10384655 64.55006578 34.90779453 68.11252978 36.7109375 71.67578125 C37.27420746 72.75789383 37.83747742 73.84000641 38.41781616 74.95491028 C38.91979523 75.95503647 39.42177429 76.95516266 39.93896484 77.9855957 C40.38686371 78.86061234 40.83476257 79.73562897 41.29623413 80.63716125 C42 83 42 83 41.23213351 84.9441483 C39.98434836 87.02611523 38.70415969 88.54436105 36.98962975 90.25646591 C36.36908663 90.88099112 35.74854352 91.50551633 35.10919607 92.14896655 C34.4263239 92.82601303 33.74345174 93.50305952 33.03988647 94.20062256 C32.31538886 94.92682903 31.59089124 95.65303549 30.84443915 96.40124822 C28.40932521 98.83966313 25.96711921 101.27084908 23.52490234 103.70214844 C21.78035767 105.44612913 20.03625296 107.19055001 18.29255676 108.93537903 C14.53428988 112.69410173 10.77297535 116.44973395 7.00886154 120.20259857 C1.56659272 125.62861356 -3.87014532 131.06014254 -9.30554919 136.49303332 C-18.12427116 145.307378 -26.94745023 154.11724707 -35.7734375 162.92431641 C-44.34706912 171.47959009 -52.91859773 180.03696177 -61.48730469 188.59716797 C-62.01547746 189.12481529 -62.54365023 189.65246262 -63.08782823 190.19609925 C-65.73750196 192.84316291 -68.38713438 195.49026791 -71.03674626 198.13739347 C-93.01809647 220.09801014 -115.00675597 242.05129453 -137 264 C-137.33 263.34 -137.66 262.68 -138 262 C-136.89526367 259.41235352 -136.89526367 259.41235352 -135.16796875 256.12890625 C-134.86095535 255.53995575 -134.55394196 254.95100525 -134.23762512 254.34420776 C-133.22849117 252.41289465 -132.20813609 250.48775576 -131.1875 248.5625 C-130.48563918 247.22505207 -129.7844707 245.8872406 -129.08398438 244.54907227 C-127.36543356 241.26998885 -125.63827226 237.99553334 -123.90863037 234.72229004 C-122.69942612 232.43026844 -121.49940965 230.13350453 -120.30078125 227.8359375 C-116.79492878 221.12613353 -113.24212109 214.44263541 -109.65234375 207.77734375 C-102.71347802 194.8888902 -95.87383739 181.95900277 -89.1875 168.9375 C-88.82334991 168.2283847 -88.45919983 167.51926941 -88.08401489 166.78866577 C-86.6660712 164.02713208 -85.24823655 161.26554243 -83.83058167 158.50386047 C-78.54420023 148.21136547 -73.14653806 137.98020671 -67.66015625 127.79296875 C-66.41898565 125.48713265 -65.17811026 123.18113763 -63.9375 120.875 C-63.62330109 120.29114532 -63.30910217 119.70729065 -62.98538208 119.10574341 C-57.26424099 108.46408261 -51.72248476 97.73508117 -46.2147522 86.98175049 C-41.52501607 77.83075828 -36.73095921 68.75694605 -31.74633789 59.76220703 C-25.86256414 49.0628061 -20.3717805 38.15496078 -14.84814453 27.26660156 C-10.14585374 18.02230175 -5.24724614 8.94801124 0 0 Z " fill="#F57F17" transform="translate(211,136)"/>
</svg>
