<?xml version="1.0" encoding="UTF-8"?>
<svg version="1.1" xmlns="http://www.w3.org/2000/svg" width="500" height="500">
<path d="M0 0 C1.30694321 -0.00137466 2.61388641 -0.00274933 3.96043396 -0.00416565 C5.41717552 -0.00062625 6.87391685 0.00300856 8.33065796 0.00672913 C9.85802712 0.00701107 11.38539642 0.00685313 12.9127655 0.00628662 C17.06748504 0.00599892 21.2221759 0.01189132 25.37688875 0.01886058 C29.71575559 0.02509858 34.05462303 0.02569827 38.39349365 0.02688599 C46.61347942 0.02999798 54.83345194 0.0382096 63.05343187 0.04823548 C72.41000942 0.05940069 81.76658759 0.0649081 91.12317014 0.06993091 C110.37381813 0.08039232 129.62445378 0.09798922 148.87509155 0.12025452 C143.0700164 7.21947112 136.5455582 13.60154751 130.07000732 20.07923889 C128.75166447 21.40160096 127.4335318 22.72417261 126.11559069 24.04693508 C122.50202956 27.6724142 118.88535512 31.29477335 115.26812029 34.91658664 C111.36454172 38.82613864 107.46378267 42.73850229 103.56257629 46.65042114 C94.15066811 56.08680049 84.73385578 65.51827828 75.31616825 74.94888926 C72.65743013 77.61134101 69.99882183 80.27392233 67.34026003 82.93655014 C50.83357943 99.46845201 34.32532296 115.9987787 17.81224632 132.52429199 C13.99169973 136.34775977 10.17117634 140.17125074 6.35067749 143.99476624 C5.63872579 144.7072743 5.63872579 144.7072743 4.91239123 145.43417646 C-10.4996885 160.85843003 -25.90233611 176.29205889 -41.29966816 191.73103341 C-57.58067187 208.05598922 -73.87076397 224.37182979 -90.17106378 240.67752266 C-99.05632919 249.56620849 -107.93734438 258.45905463 -116.8078804 267.36244202 C-124.35466511 274.93713044 -131.90977828 282.50338203 -139.47614552 290.05851167 C-143.33918278 293.91633897 -147.19797049 297.77818849 -151.04607964 301.65091133 C-154.56356368 305.19070745 -158.09221623 308.71894205 -161.63040833 312.23803616 C-162.91327613 313.5180786 -164.19186293 314.8024277 -165.46585925 316.09130001 C-167.18854057 317.83287195 -168.9256646 319.55856829 -170.66753578 321.28091431 C-171.41688037 322.04953272 -171.41688037 322.04953272 -172.18136322 322.83367878 C-173.58958113 324.20707035 -173.58958113 324.20707035 -176.12490845 326.12025452 C-179.47773917 325.94272885 -181.08402777 324.54063931 -183.42198181 322.22431946 C-184.36636864 321.29912506 -184.36636864 321.29912506 -185.32983398 320.35523987 C-186.00897858 319.67473572 -186.68812317 318.99423157 -187.3878479 318.29310608 C-188.11180252 317.57922729 -188.83575714 316.86534851 -189.58164978 316.12983704 C-191.97520192 313.76481126 -194.35724872 311.38859667 -196.7381897 309.01087952 C-198.39374224 307.36496282 -200.04952225 305.71927489 -201.70552063 304.07380676 C-205.17499374 300.62230542 -208.63819874 297.16464837 -212.09780884 293.70326233 C-216.53950923 289.2612566 -221.0015063 284.84026438 -225.46908283 280.42430496 C-228.89443249 277.03224645 -232.30612521 273.6267058 -235.71407127 270.21717072 C-237.35396882 268.5808221 -238.99875319 266.9493562 -240.64840126 265.32283783 C-242.94969513 263.05081513 -245.23133989 260.76071924 -247.50894165 258.46498108 C-248.1982074 257.79257385 -248.88747314 257.12016663 -249.59762573 256.42738342 C-250.21311783 255.79930786 -250.82860992 255.1712323 -251.4627533 254.52412415 C-252.27489524 253.71443365 -252.27489524 253.71443365 -253.1034441 252.88838577 C-254.12490845 251.12025452 -254.12490845 251.12025452 -253.93523228 248.78716516 C-252.94311658 245.52194721 -251.5907625 244.08795522 -249.18119144 241.68155289 C-248.32700188 240.81878243 -247.47281231 239.95601197 -246.59273821 239.06709695 C-245.63432552 238.1194053 -244.67572767 237.17190089 -243.71696472 236.2245636 C-242.7060971 235.211236 -241.69610741 234.19703196 -240.68692344 233.18202758 C-237.90860774 230.39281085 -235.11794101 227.61624374 -232.32512844 224.84155297 C-229.31650191 221.84812173 -226.31941082 218.84318035 -223.32089233 215.83963013 C-217.44438544 209.95689139 -211.55731624 204.08483236 -205.66673107 198.21619448 C-198.8123592 191.38648299 -191.96885679 184.5459237 -185.12590551 177.70477268 C-172.91996301 165.50270851 -160.70474546 153.30997239 -148.48403931 141.12269592 C-136.61544179 129.28653859 -124.75245804 117.44479546 -112.89614868 105.59632874 C-111.8005181 104.50142639 -111.8005181 104.50142639 -110.68275357 103.38440481 C-107.74713551 100.4507153 -104.81152566 97.51701758 -101.87593416 94.5833015 C-90.59024754 83.305141 -79.30051167 72.03103437 -68.00992032 60.75778426 C-64.59551773 57.34862242 -61.18126912 53.9393067 -57.7673924 50.52961826 C-50.58766258 43.3587995 -43.40651859 36.18940835 -36.22079916 29.02459106 C-33.24825684 26.06066271 -30.27648776 23.09597048 -27.30683708 20.12914467 C-24.59189766 17.41686357 -21.87466867 14.70689903 -19.15552997 11.99882802 C-18.16879663 11.01531211 -17.18291012 10.03094577 -16.19792814 9.0456759 C-14.86573083 7.7133542 -13.53019641 6.38437172 -12.19446659 5.05559158 C-11.08004109 3.94384894 -11.08004109 3.94384894 -9.94310194 2.80964684 C-6.67202518 -0.22970623 -4.37616255 -0.00353486 0 0 Z " fill="#46C5FB" transform="translate(303.1249084472656,-0.1202545166015625)"/>
<path d="M0 0 C0.88381804 0.05401427 1.76763608 0.10802854 2.67823648 0.1636796 C25.45983389 1.58275574 47.99981824 4.15886739 70.5 8 C68.56995256 12.20820745 65.68772144 15.08630073 62.43310547 18.30981445 C61.81168167 18.9331366 61.19025787 19.55645874 60.55000305 20.19866943 C58.49391877 22.25845835 56.43071916 24.31095537 54.3671875 26.36328125 C52.93153006 27.79774588 51.49624287 29.23258114 50.06130981 30.66777039 C47.04981611 33.6776994 44.03499223 36.68423878 41.01757812 39.68823242 C37.16601579 43.52287395 33.32099905 47.36399532 29.47826958 51.20748615 C26.51186397 54.17361851 23.54284851 57.13712687 20.57297134 60.09978294 C19.15552959 61.51405982 17.73867745 62.9289279 16.32244492 64.34441566 C3.80552056 76.84756399 3.80552056 76.84756399 -2.41183472 82.13520813 C-7.82331238 86.96781388 -12.85130565 92.2316902 -17.96875 97.37109375 C-19.25747072 98.66168285 -20.54641485 99.9520489 -21.83557129 101.24220276 C-25.20457828 104.61500184 -28.57056955 107.99079462 -31.93591309 111.36724854 C-35.37991623 114.82153745 -38.82680249 118.27294685 -42.2734375 121.72460938 C-49.01842839 128.48027913 -55.76023258 135.23911934 -62.5 142 C-61.02011778 145.43732937 -59.08715467 147.65079673 -56.43676758 150.27441406 C-55.17954643 151.52656708 -55.17954643 151.52656708 -53.89692688 152.80401611 C-52.98863632 153.69884705 -52.08034576 154.59367798 -51.14453125 155.515625 C-49.71550872 156.93669761 -48.2864889 158.35777295 -46.8576231 159.77900314 C-44.85394015 161.76956154 -42.84575947 163.7555519 -40.83752441 165.74151611 C-36.86284983 169.67308108 -32.89472299 173.6112215 -28.93008995 177.55290985 C-27.55510869 178.91780845 -26.17650359 180.27905338 -24.79780579 181.64019775 C-23.94389755 182.48757507 -23.08998932 183.33495239 -22.21020508 184.20800781 C-21.09673454 185.30909882 -21.09673454 185.30909882 -19.96076965 186.43243408 C-17.9745934 188.50480946 -16.0932159 190.60700534 -14.22000122 192.77900696 C-10.41921865 197.15316233 -6.38038184 201.24627669 -2.26977539 205.32788086 C-1.47871399 206.11748199 -0.68765259 206.90708313 0.12738037 207.72061157 C1.83079513 209.42024443 3.53536331 211.11872193 5.24098015 212.81614494 C7.93652922 215.49886654 10.62888566 218.18475597 13.32044983 220.87147522 C19.02332734 226.562968 24.7301228 232.25052039 30.4375 237.9375 C37.0761116 244.55245876 43.71303452 251.16909343 50.3458271 257.78988838 C53.00513427 260.44268862 55.66742112 263.09247415 58.32981873 265.74217224 C59.94520438 267.3539286 61.56045162 268.96582371 63.17553711 270.57788086 C63.92194962 271.31912704 64.66836212 272.06037323 65.43739319 272.82408142 C66.10882355 273.49544128 66.78025391 274.16680115 67.47203064 274.85850525 C68.06026076 275.44451476 68.64849089 276.03052427 69.25454617 276.63429165 C70.5 278 70.5 278 70.5 279 C47.6184684 283.25934272 24.71722575 285.95716956 1.5 287.5 C0.63704174 287.55906525 -0.22591653 287.61813049 -1.11502504 287.6789856 C-46.16849818 290.67802219 -82.74696322 285.67166423 -117.71925223 255.34856939 C-133.43302491 241.42591837 -148.00804765 226.46641281 -162.1875 211 C-162.93416931 210.18757465 -163.68083862 209.37514931 -164.45013428 208.53810501 C-183.91124948 187.33318168 -202.57398053 165.51579727 -220.5 143 C-219.71500626 142.10373398 -218.93001251 141.20746796 -218.12123108 140.28404236 C-215.32199636 137.01907689 -212.63871803 133.67557976 -209.97557068 130.29884338 C-194.01961358 110.07625484 -177.30962653 90.5818894 -159.9375 71.5625 C-159.24878941 70.80635658 -158.56007881 70.05021317 -157.8504982 69.27115631 C-110.44568304 17.35379564 -70.94957072 -4.45103241 0 0 Z " fill="#46C5FB" transform="translate(381.5,221)"/>
<path d="M0 0 C3.90463844 3.29774465 7.73692287 6.61180009 11.35546875 10.22607422 C12.52203003 11.38790726 12.52203003 11.38790726 13.7121582 12.57321167 C14.93745239 13.80154221 14.93745239 13.80154221 16.1875 15.0546875 C17.04883545 15.91506622 17.9101709 16.77544495 18.79760742 17.66189575 C20.61076687 19.47437755 22.42267549 21.28811141 24.23339844 23.10302734 C26.98781883 25.86279518 29.74752373 28.61719682 32.5078125 31.37109375 C34.27636231 33.14030454 36.04460179 34.9098256 37.8125 36.6796875 C38.62936279 37.49452606 39.44622559 38.30936462 40.2878418 39.14889526 C41.45440308 40.32018478 41.45440308 40.32018478 42.64453125 41.51513672 C43.31846924 42.1898703 43.99240723 42.86460388 44.68676758 43.55978394 C46.60738899 45.58583682 48.43556183 47.64676164 50.25782776 49.7598114 C54.06764948 54.13861275 58.11290753 58.2396134 62.23022461 62.32788086 C63.02128601 63.11748199 63.81234741 63.90708313 64.62738037 64.72061157 C66.33079513 66.42024443 68.03536331 68.11872193 69.74098015 69.81614494 C72.43652922 72.49886654 75.12888566 75.18475597 77.82044983 77.87147522 C83.52332734 83.562968 89.2301228 89.25052039 94.9375 94.9375 C101.5761116 101.55245876 108.21303452 108.16909343 114.8458271 114.78988838 C117.50513427 117.44268862 120.16742112 120.09247415 122.82981873 122.74217224 C124.44520438 124.3539286 126.06045162 125.96582371 127.67553711 127.57788086 C128.42194962 128.31912704 129.16836212 129.06037323 129.93739319 129.82408142 C130.60882355 130.49544128 131.28025391 131.16680115 131.97203064 131.85850525 C132.56026076 132.44451476 133.14849089 133.03052427 133.75454617 133.63429165 C135 135 135 135 135 136 C110.37344262 137.73382989 85.74136067 138.90517593 61.0625 139.5625 C59.71669703 139.59923545 59.71669703 139.59923545 58.34370613 139.63671303 C-22.54284507 141.78025656 -22.54284507 141.78025656 -47.37388611 119.69361877 C-51.30691235 115.95722489 -54.83093541 111.95683151 -58.25 107.75 C-58.80094707 107.07654163 -59.35189415 106.40308327 -59.91953659 105.70921707 C-66.42654719 97.63082477 -73.3031051 88.77157306 -77 79 C-76.60599537 75.35134929 -75.17671172 73.95165622 -72.38439941 71.68980408 C-68.32846122 68.29647435 -64.57611653 64.71171092 -60.84960938 60.96313477 C-60.18519836 60.29886978 -59.52078735 59.6346048 -58.83624268 58.95021057 C-56.66969579 56.7829744 -54.50669938 54.61223229 -52.34375 52.44140625 C-50.83082644 50.926615 -49.31768 49.41204632 -47.80432129 47.89768982 C-43.84348026 43.9330512 -39.88565298 39.96541749 -35.9284668 35.99713135 C-31.88122661 31.93961743 -27.83111435 27.88497254 -23.78125 23.83007812 C-15.85136888 15.88950839 -7.92467179 7.9457684 0 0 Z " fill="#00549C" transform="translate(317,364)"/>
<path d="M0 0 C4.09254904 1.90772326 7.06401232 4.60572325 10.3125 7.69140625 C10.98708252 8.32824844 11.66166504 8.96509064 12.35668945 9.62123108 C24.77588692 21.45222176 36.80449609 33.69621439 48.91235352 45.84368896 C52.42406373 49.3657688 55.93873225 52.88489408 59.453125 56.40429688 C66.30492028 63.26670397 73.1535197 70.13229053 80 77 C75.9022248 81.88172913 71.65303799 86.4913816 67.14013672 90.98925781 C66.48244293 91.64870392 65.82474915 92.30815002 65.14712524 92.98757935 C62.99380428 95.14526664 60.83688787 97.29931677 58.6796875 99.453125 C57.17312255 100.96036425 55.66670602 102.46775186 54.16043091 103.97528076 C51.01336138 107.12381997 47.86450178 110.27055486 44.71435547 113.41601562 C40.67809659 117.44656291 36.64636357 121.4816029 32.61594963 125.51799393 C29.51054425 128.62701204 26.40276206 131.73364549 23.2942543 134.83956146 C21.80637346 136.32677577 20.31923359 137.81473177 18.83285141 139.30344391 C16.75800271 141.38083238 14.67997508 143.45498802 12.60107422 145.52832031 C11.98903137 146.14238739 11.37698853 146.75645447 10.74639893 147.38912964 C10.17740875 147.95529999 9.60841858 148.52147034 9.02218628 149.10479736 C8.28722333 149.83919477 8.28722333 149.83919477 7.53741264 150.5884285 C5.79903766 152.18451306 3.88797179 153.58402116 2 155 C-23.74 129.26 -49.48 103.52 -76 77 C-69.25 69.125 -69.25 69.125 -66.6210022 66.50074768 C-66.02376343 65.90213425 -65.42652466 65.30352081 -64.81118774 64.68676758 C-64.1782077 64.05738281 -63.54522766 63.42799805 -62.89306641 62.77954102 C-62.20944031 62.09576889 -61.52581421 61.41199677 -60.82147217 60.70750427 C-58.583867 58.47059017 -56.34275155 56.23722911 -54.1015625 54.00390625 C-52.54050184 52.44471263 -50.97966327 50.88529661 -49.41903687 49.32566833 C-45.32779371 45.2382278 -41.23355542 41.1538004 -37.13867188 37.07000732 C-32.9539051 32.8955033 -28.77199759 28.71813708 -24.58984375 24.54101562 C-16.39601449 16.35788389 -8.19901608 8.17793461 0 0 Z " fill="#00B4F7" transform="translate(237,287)"/>
</svg>
