<?xml version="1.0" encoding="UTF-8"?>
<svg version="1.1" xmlns="http://www.w3.org/2000/svg" width="500" height="500">
<path d="M0 0 C6.53165097 5.68531439 12.02239845 11.69925357 16.48046875 19.16796875 C17.06957031 20.13347656 17.65867187 21.09898437 18.265625 22.09375 C22.55455503 29.46992807 22.55455503 29.46992807 22.26264954 32.22026062 C21.48046875 34.16796875 21.48046875 34.16796875 17.93432617 35.77661133 C13.74089111 37.15783351 9.49500602 38.33510574 5.21875 39.4296875 C4.46506638 39.62520706 3.71138275 39.82072662 2.93486023 40.02217102 C1.35647822 40.43016747 -0.22248506 40.83592138 -1.80200195 41.23950195 C-4.21316365 41.85703936 -6.62123418 42.48573471 -9.02929688 43.11523438 C-10.57144069 43.51239457 -12.11375282 43.90890193 -13.65625 44.3046875 C-14.37092941 44.49214035 -15.08560883 44.6795932 -15.82194519 44.87272644 C-19.4414481 45.78764681 -22.78256703 46.56739761 -26.51953125 46.16796875 C-28.58984375 44.375 -28.58984375 44.375 -30.64453125 41.98046875 C-38.18768859 34.05080252 -47.68023902 30.75720967 -58.51953125 30.16796875 C-71.11617966 30.37292048 -83.73229425 36.51006814 -92.81640625 45.19921875 C-103.77507182 57.867034 -107.42016106 71.7018562 -106.70751953 88.08544922 C-105.8430982 97.66144134 -100.42171934 105.9866672 -93.61328125 112.4921875 C-84.62393907 119.68701548 -74.07827924 120.95159705 -62.90234375 119.79296875 C-55.50668405 118.49832373 -49.9488556 116.11726331 -43.82421875 111.7890625 C-41.51953125 110.16796875 -41.51953125 110.16796875 -39.33984375 109.203125 C-36.99527226 107.86983864 -36.70097969 106.572203 -35.51953125 104.16796875 C-34.50692684 102.73038529 -33.46440477 101.31345595 -32.39453125 99.91796875 C-31.85570312 99.2115625 -31.316875 98.50515625 -30.76171875 97.77734375 C-30.35179687 97.24625 -29.941875 96.71515625 -29.51953125 96.16796875 C-30.12896576 96.17240997 -30.73840027 96.1768512 -31.36630249 96.181427 C-37.69242007 96.22557282 -44.0184941 96.25579862 -50.34472656 96.27783203 C-52.70770036 96.28790799 -55.07066164 96.30156904 -57.43359375 96.31884766 C-60.82425013 96.34302599 -64.21474209 96.35443574 -67.60546875 96.36328125 C-68.66696136 96.37360382 -69.72845398 96.38392639 -70.82211304 96.39456177 C-71.80297882 96.39471283 -72.7838446 96.39486389 -73.79443359 96.39501953 C-74.66047211 96.39946075 -75.52651062 96.40390198 -76.41879272 96.40847778 C-78.51953125 96.16796875 -78.51953125 96.16796875 -80.51953125 94.16796875 C-80.02540292 86.68884231 -76.83455611 80.60873031 -73.70703125 73.91796875 C-73.17271484 72.73460937 -72.63839844 71.55125 -72.08789062 70.33203125 C-71.56388672 69.20023437 -71.03988281 68.0684375 -70.5 66.90234375 C-70.02457764 65.87334961 -69.54915527 64.84435547 -69.05932617 63.78417969 C-67.36599003 60.90709231 -66.40860601 59.80849419 -63.51953125 58.16796875 C-60.83953238 57.89315042 -58.39798995 57.78804804 -55.72167969 57.82739258 C-54.94080994 57.8269545 -54.15994019 57.82651642 -53.35540771 57.82606506 C-50.77965107 57.82815167 -48.2045489 57.85147625 -45.62890625 57.875 C-43.84100704 57.88059642 -42.05310322 57.8848663 -40.26519775 57.88786316 C-35.56330629 57.89930832 -30.86169357 57.92877268 -26.15991211 57.9619751 C-21.36055268 57.99268305 -16.56114814 58.00637005 -11.76171875 58.02148438 C-2.34753389 58.05364269 7.06644423 58.1048351 16.48046875 58.16796875 C16.68248398 57.55322189 16.88449921 56.93847504 17.09263611 56.30509949 C17.35975906 55.49696304 17.62688202 54.6888266 17.90209961 53.85620117 C18.16598984 53.05582932 18.42988007 52.25545746 18.70176697 51.43083191 C26.62504118 28.40624699 45.96951508 8.46951518 66.96484375 -3.20703125 C74.86301359 -6.85774087 83.14188356 -9.39475202 91.48046875 -11.83203125 C92.69089844 -12.19683594 93.90132812 -12.56164062 95.1484375 -12.9375 C121.59306876 -19.54090734 147.26653723 -14.74079592 170.28515625 -1.1796875 C188.06390477 10.43614021 198.69317058 27.37775662 203.73046875 47.85546875 C204.72599369 52.91761917 205.17162218 58.02303682 205.48046875 63.16796875 C205.54427734 64.22564453 205.54427734 64.22564453 205.609375 65.3046875 C206.37320619 92.03877924 195.57980371 114.8278914 177.734375 134.1640625 C156.90621793 156.18581023 129.40380758 167.56840479 99.1394043 168.45336914 C77.08643718 168.73018463 56.39121324 161.20646847 39.48046875 147.16796875 C38.59101563 146.49701172 38.59101563 146.49701172 37.68359375 145.8125 C27.36282416 137.74052195 18.18138956 124.27279041 16.48046875 111.16796875 C15.82046875 111.16796875 15.16046875 111.16796875 14.48046875 111.16796875 C14.11695313 112.451875 14.11695313 112.451875 13.74609375 113.76171875 C6.0556888 134.45935184 -15.88869317 150.62648373 -35.1472168 159.48828125 C-59.357316 170.15040785 -86.3863142 171.2187661 -111.109375 161.73828125 C-121.49683414 156.95505264 -130.42688804 150.21816803 -138.51953125 142.16796875 C-139.56367188 141.17603516 -139.56367188 141.17603516 -140.62890625 140.1640625 C-154.44087178 126.05765585 -159.94613363 105.07845986 -159.83203125 85.85546875 C-159.8263916 84.8492749 -159.82075195 83.84308105 -159.81494141 82.80639648 C-159.68626848 74.88281949 -158.88128353 67.7740683 -156.51953125 60.16796875 C-156.23746826 59.24008545 -156.23746826 59.24008545 -155.94970703 58.29345703 C-147.37931769 30.85048401 -127.08695697 7.55333541 -101.828125 -5.83203125 C-69.94969739 -21.9172822 -28.67252993 -23.77042656 0 0 Z M77.1328125 46.046875 C67.3827863 58.56286607 61.78798767 72.13067848 63.48046875 88.16796875 C65.68847667 100.14216557 72.44414463 108.72966646 82.2109375 115.7421875 C91.5464432 121.60700605 101.72846925 122.54617507 112.48046875 121.16796875 C121.71538846 119.05124273 129.11775889 115.02808476 136.48046875 109.16796875 C137.53234375 108.40484375 138.58421875 107.64171875 139.66796875 106.85546875 C148.60991913 98.31093839 154.77469092 86.43564162 155.71875 74.0390625 C155.99553235 61.23423701 153.02342855 50.91146669 144.48046875 41.16796875 C134.78090016 32.14873062 124.85276405 29.66409303 111.94140625 29.89453125 C99.25673266 30.43993441 85.73220137 36.6064701 77.1328125 46.046875 Z " fill="#00ACD7" transform="translate(291.51953125,174.83203125)"/>
<path d="M0 0 C1.25824742 0.00276538 1.25824742 0.00276538 2.54191399 0.00558662 C3.50387688 0.0028373 4.46583977 0.00008797 5.45695305 -0.00274467 C6.51574669 0.00444588 7.57454033 0.01163643 8.66541862 0.01904488 C9.77761772 0.01875282 10.88981682 0.01846077 12.03571892 0.01815987 C15.72600313 0.01955747 19.41608749 0.03513904 23.10633659 0.05078316 C25.65938519 0.05451175 28.21243522 0.05735945 30.76548576 0.0593586 C36.80742348 0.06622463 42.84927491 0.0820007 48.89117801 0.10205758 C55.76895519 0.12439474 62.64673578 0.1354045 69.52454019 0.14544845 C83.67424149 0.16636637 97.82387885 0.20155597 111.97352409 0.24609566 C111.09852409 6.99609566 111.09852409 6.99609566 109.97352409 9.24609566 C71.03352409 9.24609566 32.09352409 9.24609566 -8.02647591 9.24609566 C-2.94753512 0.35794928 -2.94753512 0.35794928 0 0 Z " fill="#00ABD6" transform="translate(8.02647590637207,226.75390434265137)"/>
<path d="M0 0 C0.888013 -0.00058411 1.776026 -0.00116821 2.69094849 -0.00177002 C5.6294041 0.0010192 8.56684832 0.03215067 11.50512695 0.06347656 C13.54107611 0.07093597 15.57703244 0.07663032 17.61299133 0.08062744 C22.9742105 0.09590734 28.33499687 0.13520963 33.69604492 0.17944336 C39.16554916 0.22034518 44.63512327 0.23862758 50.10473633 0.25878906 C60.83865054 0.30170145 71.5722434 0.36998141 82.3059082 0.45410156 C80.6559082 3.42410156 79.0059082 6.39410156 77.3059082 9.45410156 C47.2759082 9.45410156 17.2459082 9.45410156 -13.6940918 9.45410156 C-10.39470872 1.20564386 -8.87097955 -0.15185063 0 0 Z " fill="#00ABD6" transform="translate(50.694091796875,204.5458984375)"/>
<path d="M0 0 C0.91711258 0.01110306 1.83422516 0.02220612 2.77912903 0.03364563 C3.81998154 0.03402328 4.86083405 0.03440094 5.93322754 0.03479004 C7.05518021 0.06059647 8.17713287 0.08640289 9.33308411 0.11299133 C11.05800835 0.12360344 11.05800835 0.12360344 12.81777954 0.13442993 C16.49671526 0.16245596 20.17413836 0.2252141 23.85261536 0.28877258 C26.34412986 0.31384463 28.83566818 0.33665969 31.32722473 0.35713196 C37.44037249 0.41230969 43.55263589 0.49601915 49.66511536 0.60127258 C49.69200752 2.0803415 49.71146157 3.55954741 49.72761536 5.03877258 C49.73921692 5.86248352 49.75081848 6.68619446 49.76277161 7.53486633 C49.66511536 9.60127258 49.66511536 9.60127258 48.66511536 10.60127258 C46.94646127 10.69486448 45.22395792 10.71871869 43.50276184 10.71479797 C42.40169601 10.71472244 41.30063019 10.71464691 40.16619873 10.71456909 C38.96830215 10.70940781 37.77040558 10.70424652 36.53620911 10.69892883 C35.31684158 10.69751389 34.09747406 10.69609894 32.84115601 10.69464111 C28.92828466 10.68902225 25.01546955 10.67646655 21.10261536 10.66377258 C18.45743389 10.65876001 15.81225153 10.65419669 13.16706848 10.65010071 C6.6663981 10.63904669 0.16576074 10.62229022 -6.33488464 10.60127258 C-5.69449826 6.1185679 -4.86312016 1.25233631 0 0 Z " fill="#00ABD7" transform="translate(65.33488464355469,248.3987274169922)"/>
</svg>
