<?xml version="1.0" encoding="UTF-8"?>
<svg version="1.1" xmlns="http://www.w3.org/2000/svg" width="500" height="500">
<path d="M0 0 C138.27 0 276.54 0 419 0 C419 20.81215643 419 20.81215643 418.06242996 30.83393204 C417.99407875 31.57522076 417.92572754 32.31650947 417.85530508 33.08026148 C417.78426428 33.84913683 417.71322347 34.61801217 417.64002991 35.41018677 C417.49157241 37.08225477 417.34381619 38.75438515 417.19668955 40.42657077 C416.79528948 44.96595063 416.38408852 49.50439444 415.97111142 54.04273367 C415.52559906 58.95825261 415.08940845 63.87460024 414.65202332 68.79084778 C413.79595023 78.3969928 412.93148089 88.00236421 412.06419379 97.60750253 C411.05387563 108.80081389 410.05241342 119.99491236 409.05139571 131.18905865 C407.26531357 151.15948991 405.47191777 171.12925739 403.67407227 191.09863281 C401.93034335 210.46704862 400.19077156 229.83583115 398.45629883 249.20507812 C398.34933239 250.39958509 398.24236595 251.59409206 398.13215811 252.82479621 C397.70218151 257.6265232 397.27221912 262.42825146 396.84227914 267.22998173 C394.98797197 287.93853411 393.13048159 308.64680117 391.27236041 329.35501164 C390.97181085 332.70473471 390.67132158 336.05446317 390.37084126 339.40419245 C389.23029255 352.11784356 388.08810027 364.83134531 386.94355965 377.54463768 C386.5966588 381.39847417 386.25039683 385.2523672 385.90472031 389.10631371 C385.5068202 393.54220569 385.10760735 397.9779775 384.7073397 402.41365646 C384.56283086 404.01751373 384.41878688 405.62141298 384.27525688 407.22535814 C384.07988775 409.40772299 383.88279294 411.58992553 383.68527317 413.77209663 C383.57629344 414.98351991 383.4673137 416.19494318 383.35503155 417.44307625 C382.96941563 421.30641293 382.49612232 425.149425 382 429 C381.18206467 429.22454361 380.36412933 429.44908722 379.52140808 429.68043518 C338.31477223 440.99368344 297.11641591 452.33622256 255.9375 463.75 C254.1056625 464.2576616 252.27382453 464.76532152 250.44198608 465.27297974 C246.10958326 466.47370367 241.77729312 467.67483326 237.44510651 468.87633705 C235.8553282 469.31724329 234.26553078 469.7580806 232.67571259 470.198843 C230.49849163 470.8025246 228.32137324 471.4065746 226.14428711 472.01074219 C224.92664169 472.34853699 223.70899628 472.68633179 222.45445251 473.03436279 C220.13379273 473.68306629 217.83180459 474.40227492 215.55348206 475.18682861 C208.6893582 476.75760033 202.2254342 474.68614627 195.60546875 472.81713867 C194.80175276 472.59514612 193.99803677 472.37315357 193.16996574 472.14443398 C190.50762746 471.4076273 187.84759764 470.66282051 185.1875 469.91796875 C183.28611678 469.39002612 181.38459364 468.86258724 179.48294067 468.33561707 C174.37724963 466.91928894 169.27349807 465.49608724 164.17008209 464.07158661 C158.87868005 462.59589685 153.58550232 461.12660531 148.29248047 459.65673828 C139.69633761 457.26878808 131.1011985 454.8772595 122.50683594 452.48291016 C110.92570241 449.25658312 99.34223235 446.03872332 87.7578125 442.82421875 C84.39061388 441.8897699 81.0234286 440.95527294 77.65625 440.02075195 C76.85619663 439.79871188 76.05614326 439.57667181 75.23184586 439.34790325 C62.82002606 435.90293735 50.40999258 432.45154134 38 429 C36.59972963 417.57146362 35.40742861 406.14089336 34.39279175 394.67210388 C34.24277383 392.99669612 34.09254789 391.32130698 33.94213498 389.64593464 C33.53405143 385.0937425 33.12891733 380.5412922 32.72432113 375.98878896 C32.28572225 371.05962748 31.8443466 366.13071448 31.40335083 361.20176697 C30.54194925 351.56885719 29.6831576 341.93571649 28.82537161 332.30248415 C28.12825298 324.47394169 27.43027441 316.64547636 26.73169327 308.81706429 C26.63205124 307.70043146 26.53240922 306.58379863 26.42974774 305.43332844 C26.22729946 303.16461231 26.02485053 300.89589624 25.82240094 298.62718023 C23.92768418 277.39293807 22.03608228 256.15841928 20.14544012 234.92381401 C18.41575647 215.4980994 16.68216258 196.07273606 14.94673429 176.64753389 C13.16308079 156.68213746 11.38204145 136.71650943 9.60384572 116.75062615 C8.60613993 105.54873504 7.60739912 94.34693853 6.6059227 83.14538383 C5.75419028 73.61839327 4.9049262 64.09118662 4.05886112 54.56369101 C3.62722314 49.70380594 3.19444695 44.84402937 2.75859833 39.98451996 C2.35964272 35.53601295 1.96395571 31.08722771 1.57086624 26.63819862 C1.42815009 25.02944763 1.28424159 23.42080187 1.13901614 21.81227546 C0.94161831 19.62389756 0.74859848 17.43517472 0.55663872 15.24631405 C0.44836341 14.03131094 0.3400881 12.81630783 0.22853172 11.56448644 C-0.01815663 7.71680493 0 3.85558143 0 0 Z " fill="#E44D26" transform="translate(40,12)"/>
<path d="M0 0 C86.46 0 172.92 0 262 0 C260.84359762 17.34603574 259.57392228 34.68685497 258 52 C191.67 52 125.34 52 57 52 C58.28048963 64.9217118 58.28048963 64.9217118 59.6328125 77.8359375 C59.71660156 78.61066406 59.80039063 79.38539063 59.88671875 80.18359375 C60.04818388 81.66854356 60.2150181 83.15291762 60.38671875 84.63671875 C61.15188676 91.8633055 61 98.58900829 61 106 C124.36 106 187.72 106 253 106 C250.51573398 136.43225879 247.97769568 166.83950041 245.13342285 197.23724365 C244.3535727 205.57449382 243.57782843 213.91212516 242.8046875 222.25 C242.72346397 223.12500153 242.64224045 224.00000305 242.5585556 224.90151978 C241.25881138 238.92583015 240.05313445 252.9546978 239 267 C237.41827304 267.47670683 235.83637006 267.95282965 234.25439453 268.42871094 C233.37349152 268.69391541 232.4925885 268.95911987 231.58499146 269.23236084 C228.02834551 270.28854256 224.45391458 271.27258667 220.875 272.25 C213.51688301 274.27249424 206.19436894 276.40440143 198.875 278.5625 C190.90094045 280.90773813 182.9199194 283.08232845 174.84375 285.04296875 C170.58268743 286.10390404 166.35384945 287.2558897 162.125 288.4375 C161.01088745 288.74747925 161.01088745 288.74747925 159.87426758 289.0637207 C155.94402213 290.16160916 152.02180973 291.28317576 148.10546875 292.4296875 C147.30286621 292.66115479 146.50026367 292.89262207 145.67333984 293.13110352 C144.14666224 293.57174025 142.62206038 294.01966236 141.10009766 294.47631836 C133.88817454 296.54484798 127.97024527 296.22582768 120.6875 294.3125 C120.00091309 294.13388428 119.31432617 293.95526855 118.60693359 293.77124023 C116.40128173 293.19259853 114.20019325 292.59904583 112 292 C111.27280762 291.80212891 110.54561523 291.60425781 109.79638672 291.40039062 C105.28614998 290.16678748 100.783203 288.90803345 96.28222656 287.64111328 C92.52390897 286.58534285 88.76175712 285.54343393 85 284.5 C83.49218279 284.08074612 81.98437028 283.6614753 80.4765625 283.2421875 C77.55583728 282.43066393 74.63394581 281.62357176 71.7109375 280.8203125 C61.97469809 278.13923922 52.27304645 275.35063242 42.58544922 272.49853516 C41.15289795 272.07773682 41.15289795 272.07773682 39.69140625 271.6484375 C38.85810791 271.40270996 38.02480957 271.15698242 37.16625977 270.90380859 C32.45600973 269.5592681 27.72757392 268.2820883 23 267 C22.23078004 258.96670358 21.46549335 250.93304535 20.7049036 242.89892769 C20.35142058 239.16632626 19.99670247 235.43385174 19.63891602 231.70166016 C19.29214738 228.08387778 18.94894351 224.46577174 18.60796928 220.84743881 C18.41703256 218.83045135 18.22262669 216.81379323 18.02809143 214.79714966 C17.09569529 204.85589279 16.55503325 194.99059845 16 185 C33.49 185 50.98 185 69 185 C70.4375 200.4375 70.4375 200.4375 70.88452148 205.25170898 C71.53146768 212.17503796 72.19789822 219.09257984 73 226 C73.70793701 226.18062988 74.41587402 226.36125977 75.14526367 226.54736328 C89.04059114 230.10059862 102.89789587 233.73842933 116.671875 237.73828125 C117.7865918 238.05659912 117.7865918 238.05659912 118.92382812 238.38134766 C120.80527823 238.94197731 122.66264086 239.5819243 124.515625 240.23046875 C131.93962954 241.87007513 139.27778392 239.62306308 146.5 237.75 C147.36584717 237.52965088 148.23169434 237.30930176 149.1237793 237.08227539 C155.97204159 235.31775011 162.75486227 233.36864574 169.51953125 231.30859375 C175.96659357 229.37782874 182.49307765 227.71575564 189 226 C189.06041977 225.26608032 189.12083954 224.53216064 189.18309021 223.77600098 C189.755028 216.83233181 190.32859164 209.88879861 190.90394497 202.94541168 C191.19962565 199.37644061 191.49469521 195.80742127 191.78833008 192.23828125 C192.07215119 188.7887106 192.35762731 185.33928041 192.64421272 181.88993835 C192.8053971 179.94482601 192.96490275 177.9995748 193.12437439 176.05432129 C193.22440262 174.85368042 193.32443085 173.65303955 193.42749023 172.41601562 C193.51409409 171.36788696 193.60069794 170.3197583 193.68992615 169.23986816 C194.04928471 165.48503894 194.53214267 161.74285862 195 158 C134.94 158 74.88 158 13 158 C10.69 131.27 8.38 104.54 6 77 C3.11062389 45.09864068 3.11062389 45.09864068 0.18067932 13.20106506 C-0.06732065 8.80729134 0 4.40076715 0 0 Z " fill="#FEFEFE" transform="translate(119,100)"/>
<path d="M0 0 C56.43 0 112.86 0 171 0 C171 6.62322017 170.97460782 12.62216618 170.12890625 19.078125 C169.23019707 26.53541562 168.55058117 33.99619011 167.96484375 41.484375 C167.88013824 42.56489136 167.79543274 43.64540771 167.7081604 44.75866699 C167.44911457 48.08894866 167.19285955 51.41943376 166.9375 54.75 C166.59549508 59.20336773 166.24989724 63.65643731 165.90234375 68.109375 C165.82628403 69.11562927 165.7502243 70.12188354 165.67185974 71.15863037 C165.30730939 75.82992627 164.79293336 80.37973016 164 85 C163.74659029 87.74420371 163.51735401 90.48258063 163.31640625 93.23046875 C163.19339376 94.843834 163.07034557 96.45719653 162.94726562 98.07055664 C162.88450439 98.90620148 162.82174316 99.74184631 162.75708008 100.60281372 C162.43006226 104.9467243 162.09263493 109.28980202 161.75390625 113.6328125 C161.69336563 114.42620529 161.63282501 115.21959808 161.57044983 116.03703308 C161.03301373 122.94853268 160.30835851 129.83449452 159.53125 136.72265625 C158.69187289 144.63280191 158.12768773 152.57088968 157.5 160.5 C156.70632232 170.52299784 155.90748107 180.53262379 154.76953125 190.5234375 C153.6483917 200.70559012 152.93026213 210.93044413 152.140625 221.14257812 C151.55149082 228.68533808 150.89273011 236.20981085 150.06640625 243.73046875 C148.49907871 258.08552076 147.43559206 272.48973414 146.26989746 286.8817749 C145.9943472 290.28252939 145.71784809 293.68319977 145.43873596 297.08366394 C145.23165797 299.60879786 145.02674906 302.13411089 144.82432556 304.65962219 C144.68396629 306.36882088 144.68396629 306.36882088 144.54077148 308.11254883 C144.46020004 309.10781082 144.3796286 310.10307281 144.2966156 311.12849426 C143.98819273 314.11430495 143.50207633 317.04130067 143 320 C142.85501095 321.34542913 142.72865887 322.69308901 142.62695312 324.04248047 C142.57019409 324.77699432 142.51343506 325.51150818 142.45495605 326.26828003 C142.39763306 327.04341949 142.34031006 327.81855896 142.28125 328.6171875 C142.21844849 329.43317413 142.15564697 330.24916077 142.09094238 331.08987427 C141.89144056 333.68473093 141.69539753 336.27983128 141.5 338.875 C141.30434159 341.46300522 141.10785754 344.0509365 140.90905762 346.63870239 C140.78582743 348.24359972 140.66437411 349.84863488 140.54504395 351.4538269 C140.17171382 356.32652689 139.64006088 361.15490395 139 366 C115.72874122 372.91375574 115.72874122 372.91375574 106.3125 375.1875 C101.79774315 376.28156684 97.36400901 377.46656532 92.9375 378.875 C86.84530265 380.80685784 80.68806602 382.41057746 74.5 384 C68.45965431 385.55225687 62.44344823 387.10315482 56.5 389 C50.5565412 390.89684855 44.54032005 392.44761275 38.5 394 C31.20475555 395.87530145 23.98551163 397.84494392 16.8046875 400.12109375 C4.42666667 404 4.42666667 404 0 404 C-0.33 385.85 -0.66 367.7 -1 349 C4.61 347.68 10.22 346.36 16 345 C22.17423321 343.19636177 22.17423321 343.19636177 28.3359375 341.35546875 C33.77148648 339.74568264 39.25978657 338.34704164 44.75 336.9375 C51.71046133 335.14818121 58.58960081 333.24799974 65.4375 331.0625 C71.42095471 329.27796088 77.47875864 327.77456478 83.52636719 326.22412109 C89.98022718 324.55898686 96.33903047 322.74678944 102.671875 320.6640625 C105 320 105 320 108 320 C107.98468231 319.39663818 107.96936462 318.79327637 107.95358276 318.17163086 C107.83636087 309.58579578 108.55752012 301.10421285 109.3203125 292.5625 C109.46135605 290.94364325 109.60199072 289.32475082 109.74224854 287.70582581 C110.11930701 283.3681196 110.50231023 279.03095819 110.88671112 274.69389725 C111.28631398 270.17631739 111.68112015 265.65831791 112.07666016 261.14038086 C112.80634107 252.81573958 113.54145114 244.49158653 114.27838326 236.16758442 C114.89789517 229.16555272 115.5116797 222.16303143 116.12339211 215.16031456 C116.74059215 208.09653357 117.36226811 201.03315411 117.98626709 193.9699707 C118.24548818 191.03488145 118.503075 188.09965557 118.75933838 185.16430664 C119.11348977 181.11041255 119.47431662 177.05714084 119.8359375 173.00390625 C119.93980774 171.80576797 120.04367798 170.6076297 120.1506958 169.3731842 C120.29725616 167.74901833 120.29725616 167.74901833 120.44677734 166.09204102 C120.53003265 165.15054703 120.61328796 164.20905304 120.69906616 163.23902893 C121 161 121 161 122 159 C58.64 159 -4.72 159 -70 159 C-74 111 -74 111 -74 105 C-7.67 105 58.66 105 127 105 C127 100.38 127 95.76 127 91 C127.16044976 88.19356318 127.35965723 85.3886797 127.62109375 82.58984375 C127.68531021 81.8890419 127.74952667 81.18824005 127.81568909 80.46620178 C127.94971655 79.01698109 128.08673084 77.56803336 128.22680664 76.11938477 C128.44025434 73.90897678 128.64368714 71.69780759 128.84570312 69.48632812 C129.36451951 63.92745851 129.90335081 58.48324594 131 53 C44.54 53 -41.92 53 -131 53 C-131.33 54.32 -131.66 55.64 -132 57 C-132 55.35 -132 53.7 -132 52 C-88.44 52 -44.88 52 0 52 C0 34.84 0 17.68 0 0 Z " fill="#F0652A" transform="translate(250,47)"/>
<path d="M0 0 C86.46 0 172.92 0 262 0 C260.84359762 17.34603574 259.57392228 34.68685497 258 52 C191.67 52 125.34 52 57 52 C58.28048963 64.9217118 58.28048963 64.9217118 59.6328125 77.8359375 C59.71660156 78.61066406 59.80039063 79.38539063 59.88671875 80.18359375 C60.04818388 81.66854356 60.2150181 83.15291762 60.38671875 84.63671875 C61.15188676 91.8633055 61 98.58900829 61 106 C84.1 106 107.2 106 131 106 C131 123.16 131 140.32 131 158 C92.06 158 53.12 158 13 158 C11.96875 146.016875 10.9375 134.03375 9.875 121.6875 C8.0200427 100.13980341 6.15820338 78.59319839 4.19921875 57.0546875 C4.05793664 55.49781022 3.91668062 53.94093057 3.77545166 52.38404846 C3.17872505 45.81125901 2.57970149 39.23871596 1.9700613 32.66711044 C1.78270095 30.64049106 1.59733131 28.61370093 1.41279602 26.58682251 C1.19082611 24.15067803 0.96553437 21.71483255 0.73600769 19.27938843 C0.63822525 18.19727081 0.54044281 17.1151532 0.43969727 16.00024414 C0.35422134 15.07651505 0.26874542 14.15278595 0.18067932 13.20106506 C-0.06732065 8.80729134 0 4.40076715 0 0 Z " fill="#EBEAEA" transform="translate(119,100)"/>
<path d="M0 0 C17.49 0 34.98 0 53 0 C54.4375 15.4375 54.4375 15.4375 54.88452148 20.25170898 C55.53146768 27.17503796 56.19789822 34.09257984 57 41 C57.70793701 41.18062988 58.41587402 41.36125977 59.14526367 41.54736328 C77.88188844 46.33858806 96.47579002 51.44273701 115 57 C115 74.82 115 92.64 115 111 C101.52525253 108.75420875 101.52525253 108.75420875 96.75 107.3125 C95.00589844 106.79623047 95.00589844 106.79623047 93.2265625 106.26953125 C92.57333008 106.07311035 91.92009766 105.87668945 91.24707031 105.67431641 C86.54546705 104.26342677 81.83531028 102.88149106 77.125 101.5 C76.08102051 101.19376709 75.03704102 100.88753418 73.96142578 100.57202148 C66.95610031 98.53186444 59.93299485 96.67807726 52.84375 94.95703125 C46.30259229 93.32838934 39.82302062 91.48105908 33.33496094 89.65429688 C30.9152513 88.97625193 28.49319769 88.30722881 26.0703125 87.640625 C24.85964111 87.30695923 24.85964111 87.30695923 23.62451172 86.96655273 C22.08736294 86.54314932 20.54994488 86.12072186 19.01220703 85.69946289 C18.31208496 85.50602295 17.61196289 85.31258301 16.890625 85.11328125 C15.97845215 84.86251831 15.97845215 84.86251831 15.04785156 84.60668945 C12.34230446 83.80515339 9.67546395 82.89624204 7 82 C6.23078004 73.96670358 5.46549335 65.93304535 4.7049036 57.89892769 C4.35142058 54.16632626 3.99670247 50.43385174 3.63891602 46.70166016 C3.29214738 43.08387778 2.94894351 39.46577174 2.60796928 35.84743881 C2.41703256 33.83045135 2.22262669 31.81379323 2.02809143 29.79714966 C1.09569529 19.85589279 0.55503325 9.99059845 0 0 Z " fill="#EAEAE9" transform="translate(135,285)"/>
<path d="M0 0 C43.23 0 86.46 0 131 0 C129.84359762 17.34603574 128.57392228 34.68685497 127 52 C85.09 52 43.18 52 0 52 C0 34.84 0 17.68 0 0 Z " fill="#FEFEFE" transform="translate(250,100)"/>
<path d="M0 0 C60.06 0 120.12 0 182 0 C180.85072802 21.8361677 180.85072802 21.8361677 180.02734375 31.57421875 C179.8962899 33.16530205 179.8962899 33.16530205 179.7625885 34.78852844 C179.49019149 38.0884102 179.21393856 41.38795463 178.9375 44.6875 C178.74908982 46.96156709 178.56093724 49.23565553 178.37304688 51.50976562 C177.91832447 57.00675939 177.46045963 62.503484 177 68 C172.90690544 69.82343102 169.03622818 71.39415303 164.6640625 72.4296875 C163.69041748 72.66526367 162.71677246 72.90083984 161.71362305 73.14355469 C160.69437744 73.38493164 159.67513184 73.62630859 158.625 73.875 C149.97364222 75.97158142 141.44283659 78.25929887 132.94921875 80.921875 C128.04121277 82.26174607 123.00554656 83.08990063 118 84 C118 56.61 118 29.22 118 1 C79.06 1 40.12 1 0 1 C0 0.67 0 0.34 0 0 Z " fill="#F0662B" transform="translate(132,258)"/>
<path d="M0 0 C24.42 0 48.84 0 74 0 C74 17.49 74 34.98 74 53 C50.9 53 27.8 53 4 53 C3.34 45.183125 2.68 37.36625 2 29.3125 C1.79117188 26.85208252 1.58234375 24.39166504 1.3671875 21.85668945 C1.20296008 19.90056722 1.03888713 17.94443202 0.875 15.98828125 C0.78863281 14.97745483 0.70226562 13.96662842 0.61328125 12.9251709 C0.53207031 11.9512439 0.45085937 10.97731689 0.3671875 9.97387695 C0.29612793 9.13226517 0.22506836 8.29065338 0.15185547 7.42353821 C-0.00292289 4.95335215 0 2.47503041 0 0 Z " fill="#E44D26" transform="translate(176,153)"/>
</svg>
