<?xml version="1.0" encoding="UTF-8"?>
<svg version="1.1" xmlns="http://www.w3.org/2000/svg" width="500" height="500">
<path d="M0 0 C0.99 0.495 0.99 0.495 2 1 C1.75878418 1.53141602 1.51756836 2.06283203 1.26904297 2.61035156 C-9.35123486 26.19413543 -17.2249774 50.90757245 -18 77 C-18.03867188 78.04414063 -18.03867188 78.04414063 -18.078125 79.109375 C-20.01773063 137.68546496 1.91880439 192.69156206 38 238 C38.76828125 238.98226562 39.5365625 239.96453125 40.328125 240.9765625 C72.01184589 280.75723429 116.33690517 309.98992772 164 327 C165.19689453 327.43650879 165.19689453 327.43650879 166.41796875 327.88183594 C222.78423823 348.19378958 292.44645877 346.01035388 346.72900391 320.72900391 C358.24992019 315.15712916 368.91135136 308.86682077 379 301 C379.91394531 300.30777344 380.82789063 299.61554688 381.76953125 298.90234375 C392.13184934 290.78544744 401.72605711 281.24018407 410 271 C411 274 411 274 410.26245117 276.03027344 C409.86002197 276.79887695 409.45759277 277.56748047 409.04296875 278.359375 C408.37104492 279.65089478 408.37104492 279.65089478 407.68554688 280.96850586 C407.19119141 281.88639893 406.69683594 282.80429199 406.1875 283.75 C405.68412109 284.69431885 405.18074219 285.6386377 404.66210938 286.61157227 C394.54009732 305.31729185 381.69151154 321.68398213 367 337 C366.21753906 337.82371094 365.43507813 338.64742188 364.62890625 339.49609375 C359.12802006 345.15386796 353.22426026 350.15624875 347 355 C346.46697266 355.42007324 345.93394531 355.84014648 345.38476562 356.27294922 C317.18100064 378.35934706 284.01568928 391.53067023 249 398 C247.7008667 398.24991699 247.7008667 398.24991699 246.37548828 398.50488281 C216.42659362 404.02494239 182.94007703 402.94741517 153 398 C151.700625 397.81824219 150.40125 397.63648438 149.0625 397.44921875 C129.70307976 394.27306387 110.59642014 386.49688687 93 378 C92.33532715 377.68740234 91.6706543 377.37480469 90.98583984 377.05273438 C74.65697416 369.37136878 59.40654117 359.84757189 45 349 C44.4229834 348.56719727 43.8459668 348.13439453 43.25146484 347.68847656 C34.34430474 340.96451616 26.02121785 333.75546795 18 326 C17.34676758 325.36868164 16.69353516 324.73736328 16.02050781 324.08691406 C7.806064 316.10440749 -0.0085897 308.08750674 -7 299 C-7.77214844 298.04480469 -8.54429688 297.08960938 -9.33984375 296.10546875 C-33.95853437 265.18626015 -51.29261727 227.48357671 -59.25 188.8125 C-59.40130371 188.07797607 -59.55260742 187.34345215 -59.70849609 186.58666992 C-62.3698214 172.70116753 -63.38365207 158.86189231 -63.3125 144.75 C-63.30976578 143.61195923 -63.30976578 143.61195923 -63.30697632 142.45092773 C-63.22990798 123.30182943 -60.65583264 105.32407807 -55 87 C-54.79568359 86.33758301 -54.59136719 85.67516602 -54.38085938 84.99267578 C-48.76412786 67.40695688 -39.77019143 50.20540345 -28 36 C-27.13685191 34.90400266 -26.27766596 33.80487662 -25.421875 32.703125 C-21.59346753 27.77566308 -17.71744473 22.88731202 -13.80859375 18.0234375 C-13.2772583 17.36190674 -12.74592285 16.70037598 -12.19848633 16.01879883 C-11.18332807 14.75666335 -10.16636877 13.49597337 -9.1472168 12.23706055 C-5.94317197 8.25774589 -2.93676267 4.18088212 0 0 Z " fill="#0767AC" transform="translate(76,67)"/>
<path d="M0 0 C0.495 0.99 0.495 0.99 1 2 C-0.14309334 4.45250978 -1.34500732 6.80774429 -2.625 9.1875 C-19.98708251 42.76479104 -19.99230183 83.00397995 -8.89794922 118.55566406 C2.75704008 154.15307325 25.45788813 186.01017705 55 209 C55.53302734 209.42007324 56.06605469 209.84014648 56.61523438 210.27294922 C95.85237847 240.99959777 147.4095581 257.02315465 197.16625977 251.22827148 C225.01466082 247.42059537 252.85434556 236.84005349 274 218 C274.82757813 217.30390625 275.65515625 216.6078125 276.5078125 215.890625 C282.58358727 210.67193445 287.68460438 204.89424488 292.75 198.72265625 C295 196 295 196 297 194 C296.41069845 199.17455197 294.77638794 203.29222682 292.5625 207.9375 C292.03450806 209.04859131 292.03450806 209.04859131 291.49584961 210.18212891 C285.60044837 222.22975566 277.758081 232.8778285 269 243 C267.92298828 244.27810547 267.92298828 244.27810547 266.82421875 245.58203125 C261.42939197 251.82009916 255.53599966 256.9863322 249 262 C248.14792969 262.66773438 247.29585938 263.33546875 246.41796875 264.0234375 C210.27986794 291.43854846 164.2648909 298.72713672 120 295 C119.12021484 294.9282959 118.24042969 294.8565918 117.33398438 294.78271484 C87.95546753 292.16762206 58.93098528 280.12492525 35 263 C34.00613281 262.29617188 33.01226562 261.59234375 31.98828125 260.8671875 C13.54034957 247.4110491 -3.27388416 232.04350013 -16 213 C-16.43296387 212.35272949 -16.86592773 211.70545898 -17.31201172 211.03857422 C-41.75558341 174.06778601 -54.76560245 129.5976547 -45.9609375 85.29296875 C-45.64775518 83.86040178 -45.32755248 82.42934973 -45 81 C-44.8443457 80.30471191 -44.68869141 79.60942383 -44.52832031 78.89306641 C-40.26888408 60.67781266 -31.5547901 44.15472533 -20.55957031 29.1484375 C-17.51703864 24.95709769 -14.58415404 20.68788596 -11.625 16.4375 C-7.7781934 10.93788498 -3.90996098 5.4549081 0 0 Z " fill="#0767AC" transform="translate(202,21)"/>
<path d="M0 0 C0.66 0.33 1.32 0.66 2 1 C1.68546875 1.6084375 1.3709375 2.216875 1.046875 2.84375 C-10.00911891 25.4885568 -9.5265499 49.79324409 -1.90234375 73.3984375 C4.33474859 90.86229605 14.33961103 105.54974719 27 119 C27.58910156 119.66515625 28.17820312 120.3303125 28.78515625 121.015625 C39.16094544 132.23515969 53.20316532 139.81370092 67 146 C68.06476563 146.48210937 69.12953125 146.96421875 70.2265625 147.4609375 C79.47748584 151.32524725 89.16818443 153.24178897 99 155 C100.08796875 155.19464844 101.1759375 155.38929688 102.296875 155.58984375 C127.3203878 158.36143536 150.8522876 155.33363437 171.0625 139.5625 C175.71761679 135.52619028 179.49719179 131.05695519 183 126 C183.33 126.66 183.66 127.32 184 128 C182.74431961 130.44193613 181.44131959 132.73301744 180 135.0625 C179.58572754 135.74062744 179.17145508 136.41875488 178.74462891 137.11743164 C175.49225999 142.36668244 171.98477009 147.27800079 168 152 C167.45988281 152.67289063 166.91976562 153.34578125 166.36328125 154.0390625 C156.27841467 166.21612751 142.7182515 174.35301233 127.875 179.375 C127.17181641 179.6136377 126.46863281 179.85227539 125.74414062 180.09814453 C115.47445423 183.35869923 105.17183225 184.36932977 94.4375 184.3125 C93.30779785 184.30686035 92.1780957 184.3012207 91.01416016 184.29541016 C64.62138449 183.91788993 39.69467215 175.6988709 19 159 C18.4834082 158.58878906 17.96681641 158.17757812 17.43457031 157.75390625 C-3.83475741 140.73844407 -19.42713584 118.67199088 -26 92 C-26.22429687 91.09894531 -26.44859375 90.19789062 -26.6796875 89.26953125 C-31.86874477 64.07061617 -26.29297784 38.30031786 -12.32373047 16.95703125 C-8.40685828 11.16624419 -4.2252435 5.56784424 0 0 Z " fill="#0767AC" transform="translate(302,0)"/>
<path d="" fill="#0868AF" transform="translate(0,0)"/>
</svg>
