<?xml version="1.0" encoding="UTF-8"?>
<svg version="1.1" xmlns="http://www.w3.org/2000/svg" width="500" height="500">
<path d="M0 0 C165 0 330 0 500 0 C500 165 500 330 500 500 C335 500 170 500 0 500 C0 335 0 170 0 0 Z " fill="#F6DE1D" transform="translate(0,0)"/>
<path d="M0 0 C7.90054178 6.32892863 16.25012384 14.44863285 20.625 23.75 C19.47201717 27.2089485 18.89462167 27.49196271 15.8984375 29.31640625 C15.12040771 29.79754883 14.34237793 30.27869141 13.54077148 30.77441406 C12.70231689 31.28198242 11.8638623 31.78955078 11 32.3125 C9.26843936 33.3797409 7.53798509 34.44877872 5.80859375 35.51953125 C4.50510986 36.32511475 4.50510986 36.32511475 3.17529297 37.14697266 C-1.23494959 39.91910099 -5.53946973 42.84775529 -9.82861328 45.80297852 C-14.16357896 48.75 -14.16357896 48.75 -16.375 48.75 C-17.6015625 47.02734375 -17.6015625 47.02734375 -19 44.6875 C-23.2074179 38.2027661 -28.50438742 32.59197478 -36.0390625 30.1796875 C-43.31288604 28.8416932 -51.52684458 28.81507625 -58.375 31.75 C-62.85515417 34.85164519 -65.66972417 37.53943495 -67.375 42.75 C-68.21479556 50.10080309 -68.09268593 56.78121504 -63.375 62.75 C-54.36916562 72.45872877 -39.40667763 77.08499467 -27.45947266 82.07861328 C-12.17792361 88.48045757 2.32769339 95.45611945 14.625 106.75 C15.264375 107.29785156 15.90375 107.84570312 16.5625 108.41015625 C24.74892534 115.84737749 30.2781836 126.01251128 32.625 136.75 C32.79056396 137.39477295 32.95612793 138.0395459 33.12670898 138.70385742 C37.94858313 158.28508313 33.73469515 176.69563633 23.625 193.75 C16.98883064 203.61996089 6.30452165 209.9979487 -4.375 214.75 C-5.42945313 215.245 -6.48390625 215.74 -7.5703125 216.25 C-21.74272595 222.25729179 -38.2507018 222.60331033 -53.375 221.75 C-54.40681396 221.69199219 -54.40681396 221.69199219 -55.45947266 221.6328125 C-77.68613431 220.10728841 -100.92472067 209.8703706 -115.84179688 193.10107422 C-128.375 178.1480517 -128.375 178.1480517 -128.375 172.75 C-124.57254131 170.55929415 -120.76793184 168.37238285 -116.96142578 166.1887207 C-115.67113832 165.44785737 -114.38140835 164.70602211 -113.09228516 163.96313477 C-105.62902735 159.66320807 -98.148277 155.47332483 -90.375 151.75 C-89.7459375 152.60722656 -89.116875 153.46445312 -88.46875 154.34765625 C-79.65785835 166.19774239 -70.55066377 175.56244177 -55.375 178.75 C-44.97638194 179.57791545 -33.53432513 180.3822463 -24.375 174.75 C-23.715 174.38777344 -23.055 174.02554688 -22.375 173.65234375 C-17.61836464 170.72899494 -14.91435006 167.12406233 -13.375 161.75 C-12.36802688 154.62852001 -13.07102818 148.61432414 -17.375 142.75 C-24.54669264 133.9796638 -37.88366631 129.79143469 -47.97265625 125.4765625 C-99.07446881 103.6084718 -99.07446881 103.6084718 -110.375 76.75 C-116.67024484 60.74370482 -116.53522528 40.54607266 -110.12109375 24.640625 C-103.33732952 10.0749405 -92.37700076 -1.05742735 -77.37109375 -7.1875 C-52.57489163 -15.98093804 -22.01780966 -15.80694086 0 0 Z " fill="#010100" transform="translate(426.375,239.25)"/>
<path d="M0 0 C15.51 0 31.02 0 47 0 C47.06787916 22.01930223 47.12307591 44.03851896 47.15543652 66.05789948 C47.17086552 76.28326683 47.19187867 86.50856426 47.22631836 96.73388672 C47.25634272 105.65257457 47.27560378 114.57121176 47.28226548 123.48994875 C47.28615578 128.20663513 47.29521458 132.92317662 47.31719017 137.63981628 C47.33776196 142.09180749 47.34379264 146.54359603 47.33932304 150.99563026 C47.3401391 152.61760375 47.34598024 154.239585 47.35761642 155.86151695 C47.48657452 174.7870214 44.83610049 193.54308728 33 209 C32.55011719 209.61359375 32.10023438 210.2271875 31.63671875 210.859375 C21.52142374 223.73856752 5.3761079 229.45336595 -10.34765625 231.53125 C-33.16362725 234.06156562 -54.31857662 229.91685286 -73 216 C-73.72960937 215.46761719 -74.45921875 214.93523437 -75.2109375 214.38671875 C-81.51165642 209.36855724 -85.69131655 202.71372766 -90 196 C-90.58136719 195.10539063 -91.16273438 194.21078125 -91.76171875 193.2890625 C-93 191 -93 191 -93 188 C-90.87963867 186.39355469 -90.87963867 186.39355469 -87.91796875 184.671875 C-86.83966797 184.03636719 -85.76136719 183.40085937 -84.65039062 182.74609375 C-83.50763672 182.08738281 -82.36488281 181.42867187 -81.1875 180.75 C-78.97180027 179.45458797 -76.75695016 178.15772162 -74.54296875 176.859375 C-73.45290527 176.22580078 -72.3628418 175.59222656 -71.23974609 174.93945312 C-67.14256232 172.48670045 -63.18024797 169.85125152 -59.2355957 167.16113281 C-58.12897583 166.58637207 -58.12897583 166.58637207 -57 166 C-52.89757312 167.36747563 -51.89396236 170.14163802 -49.8125 173.6875 C-45.2512588 181.11966213 -40.47713739 186.19506484 -32 189 C-24.57246172 189.7408296 -16.63911934 189.78228617 -10 186 C-5.19272085 182.0062604 -2.45041847 177.06422361 -1 171 C-0.54014347 165.46697633 -0.56162533 159.94201679 -0.56762695 154.39453125 C-0.55860179 152.70863632 -0.54827272 151.02274795 -0.53674316 149.33686829 C-0.50923565 144.77755258 -0.49989715 140.21836161 -0.49388909 135.65897369 C-0.48448914 130.88767076 -0.45828444 126.11646039 -0.43388367 121.34521484 C-0.39025957 112.31796961 -0.36168748 103.29074239 -0.33856028 94.26342392 C-0.31148669 83.98284856 -0.2675765 73.7023665 -0.22227156 63.42185783 C-0.1294838 42.28127563 -0.05999854 21.14070244 0 0 Z " fill="#010100" transform="translate(225,229)"/>
</svg>
