<?xml version="1.0" encoding="UTF-8"?>
<svg version="1.1" xmlns="http://www.w3.org/2000/svg" width="760" height="760">
<path d="M0 0 C250.8 0 501.6 0 760 0 C760 250.8 760 501.6 760 760 C509.2 760 258.4 760 0 760 C0 509.2 0 258.4 0 0 Z " fill="#F2DE48" transform="translate(0,0)"/>
<path d="M0 0 C44.55 0 89.1 0 135 0 C135 250.8 135 501.6 135 760 C47.22 760 -40.56 760 -131 760 C-130.39499995 753.94999952 -129.78415878 748.24624195 -128.72265625 742.3125 C-128.59622238 741.59848022 -128.46978851 740.88446045 -128.33952332 740.14880371 C-128.06333377 738.59086556 -127.78551242 737.03321597 -127.50622559 735.47583008 C-126.7107625 731.03743055 -125.92891373 726.5966186 -125.14453125 722.15625 C-124.8883754 720.70913635 -124.8883754 720.70913635 -124.62704468 719.23278809 C-122.46324957 706.99512423 -120.35807632 694.74736057 -118.25 682.5 C-117.82497047 680.03254876 -117.39992142 677.56510088 -116.97485352 675.09765625 C-113.57941257 655.38304857 -110.19175525 635.66710088 -106.80435181 615.95111084 C-103.52111375 596.84142119 -100.2327614 577.73262082 -96.9375 558.625 C-96.73269012 557.43739075 -96.52788025 556.24978149 -96.31686401 555.02618408 C-94.67334148 545.49648841 -93.02936995 535.96687021 -91.38537598 526.43725586 C-89.9442039 518.08320737 -88.50321607 509.72912714 -87.0625 501.375 C-86.75540604 499.59431122 -86.75540604 499.59431122 -86.44210815 497.77764893 C-83.12121164 478.51960988 -79.80898006 459.26008911 -76.5 440 C-72.98498302 419.54066238 -69.46549078 399.08210549 -65.9375 378.625 C-65.73269012 377.43739075 -65.52788025 376.24978149 -65.31686401 375.02618408 C-63.67334148 365.49648841 -62.02936995 355.96687021 -60.38537598 346.43725586 C-58.9442039 338.08320737 -57.50321607 329.72912714 -56.0625 321.375 C-55.85777069 320.18787415 -55.65304138 319.00074829 -55.44210815 317.77764893 C-52.12121164 298.51960988 -48.80898006 279.26008911 -45.5 260 C-41.98498302 239.54066238 -38.46549078 219.08210549 -34.9375 198.625 C-34.73269012 197.43739075 -34.52788025 196.24978149 -34.31686401 195.02618408 C-32.67334148 185.49648841 -31.02936995 175.96687021 -29.38537598 166.43725586 C-24.72949509 139.44849072 -20.0755791 112.45938683 -15.43374538 85.46820164 C-14.8486843 82.06621201 -14.26346671 78.66424951 -13.67782593 75.26235962 C-11.28475716 61.3607601 -8.90253934 47.45751354 -6.5625 33.546875 C-6.1870346 31.31990174 -5.81154699 29.09293223 -5.43603516 26.8659668 C-4.74366327 22.75880168 -4.05657654 18.65079999 -3.37255859 14.54223633 C-3.06886997 12.73776181 -2.76500775 10.9333165 -2.4609375 9.12890625 C-2.32606934 8.30940491 -2.19120117 7.48990356 -2.05224609 6.64556885 C-1.11365462 1.11365462 -1.11365462 1.11365462 0 0 Z " fill="#8852A3" transform="translate(625,0)"/>
<path d="M0 0 C16.17 0 32.34 0 49 0 C52.96 6.93 56.92 13.86 61 21 C62.7325 23.908125 64.465 26.81625 66.25 29.8125 C72.19669767 39.87687882 77.4691249 50.22011979 82 61 C82.22961426 60.39865234 82.45922852 59.79730469 82.69580078 59.17773438 C88.21478384 44.90980162 94.66032174 31.74734703 102.60546875 18.67578125 C106.26234464 12.56135011 109.62225887 6.27294782 113 0 C127.85 0 142.7 0 158 0 C156.37622039 4.87133883 154.59773915 8.66081972 151.9375 12.9375 C151.11836858 14.27857193 150.29936142 15.61971977 149.48046875 16.9609375 C149.06458496 17.63737305 148.64870117 18.31380859 148.22021484 19.01074219 C146.37677479 22.01601421 144.56242932 25.03845815 142.75 28.0625 C142.38527588 28.669729 142.02055176 29.27695801 141.64477539 29.90258789 C138.36100715 35.3773898 135.11777553 40.87585011 131.875 46.375 C126.94789121 54.72713984 121.98697668 63.05846497 117 71.375 C116.37722168 72.41446777 115.75444336 73.45393555 115.11279297 74.52490234 C114.51869629 75.51441895 113.92459961 76.50393555 113.3125 77.5234375 C112.75304687 78.4628418 112.19359375 79.40224609 111.6171875 80.37011719 C110.58400405 82.0502881 109.50903234 83.70591424 108.3828125 85.32519531 C107.90585937 86.01452148 107.42890625 86.70384766 106.9375 87.4140625 C106.51339844 87.99365723 106.08929687 88.57325195 105.65234375 89.17041016 C104.7738064 91.0755666 104.7738064 91.0755666 105.67163086 93.37231445 C107.10659703 96.21086267 108.65435892 98.91643237 110.31640625 101.62890625 C110.98929688 102.73169922 111.6621875 103.83449219 112.35546875 104.97070312 C113.09111558 106.16798734 113.82679353 107.36525243 114.5625 108.5625 C115.32852857 109.81550857 116.09414643 111.06876832 116.859375 112.32226562 C118.44909406 114.92561801 120.04057323 117.52788174 121.63330078 120.12939453 C124.92100936 125.50240851 128.18717324 130.88846566 131.45343018 136.27453613 C133.21399488 139.17715257 134.9762417 142.07874748 136.73828125 144.98046875 C139.24725842 149.11275314 141.75591392 153.24523263 144.26423645 157.37791443 C145.35326204 159.17214558 146.44237303 160.96632487 147.53149414 162.76049805 C148.95418847 165.10421011 150.37650755 167.44814931 151.79858398 169.79223633 C155.24952908 175.4792661 158.70781062 181.1616653 162.1796875 186.8359375 C162.83493408 187.90803467 163.49018066 188.98013184 164.1652832 190.0847168 C165.40412627 192.11076963 166.64476958 194.13572309 167.88745117 196.15942383 C168.43119385 197.04911865 168.97493652 197.93881348 169.53515625 198.85546875 C170.013479 199.63559326 170.49180176 200.41571777 170.98461914 201.21948242 C172 203 172 203 172 204 C127.89437495 208.03336791 127.89437495 208.03336791 119.45019531 201.88623047 C114.40906632 196.4471176 112.05634066 189.97023652 109.94482422 182.95166016 C108.70017034 179.06332285 106.82130754 175.98921336 104.5625 172.625 C103.86132514 171.47569457 103.16764689 170.32179104 102.48046875 169.1640625 C101.91465088 168.21708496 101.91465088 168.21708496 101.33740234 167.25097656 C83.88531861 137.87744388 83.88531861 137.87744388 78 124 C76.41397762 126.37903358 75.35085149 128.33637513 74.2578125 130.9296875 C69.13573812 142.8351157 63.2529606 154.02301843 56.66503906 165.17724609 C54.88740105 168.19088988 53.1258434 171.21352358 51.3671875 174.23828125 C44.64714182 185.79269509 44.64714182 185.79269509 42.60717773 189.10107422 C40.89439672 191.99618949 40.89439672 191.99618949 39.83227539 195.35595703 C38.30155152 199.20646695 37.18874551 201.3171897 34 204 C26.62203495 206.02686845 18.61258664 205.11826866 11.0625 204.75 C8.92658127 204.68977399 6.79050057 204.63502682 4.65429688 204.5859375 C-0.56734685 204.45401576 -5.78292512 204.25358684 -11 204 C-6.53932842 195.68142182 -1.84847308 187.50917521 2.9375 179.375 C3.30516479 178.74882782 3.67282959 178.12265564 4.05163574 177.47750854 C9.84758416 167.60641053 15.70814211 157.77526844 21.61279297 147.96875 C26.16452504 140.40713821 30.67004744 132.81962192 35.12646484 125.20141602 C37.99126357 120.32343136 40.92724667 115.50410226 43.95703125 110.7265625 C44.93724243 109.16639404 44.93724243 109.16639404 45.93725586 107.57470703 C47.20115048 105.56922778 48.47873351 103.57229107 49.77172852 101.58544922 C50.33947998 100.68068848 50.90723145 99.77592773 51.4921875 98.84375 C52.25571533 97.65555664 52.25571533 97.65555664 53.03466797 96.44335938 C54.32530703 93.17661285 53.93994073 91.36091003 53 88 C51.68099204 85.26978782 51.68099204 85.26978782 49.9296875 82.60546875 C49.28805664 81.58018066 48.64642578 80.55489258 47.98535156 79.49853516 C47.28893555 78.40589355 46.59251953 77.31325195 45.875 76.1875 C44.77913894 74.4429353 43.68704418 72.69604953 42.59509277 70.94903564 C41.84561876 69.75039252 41.09503746 68.55244107 40.34338379 67.35516357 C36.56287094 61.32791915 32.89792463 55.23328575 29.25 49.125 C28.63213623 48.0927832 28.01427246 47.06056641 27.37768555 45.99707031 C25.03044449 42.074531 22.68658682 38.14997727 20.34326172 34.22509766 C18.79252285 31.62852266 17.24054041 29.03269902 15.6875 26.4375 C15.20732422 25.63481689 14.72714844 24.83213379 14.23242188 24.00512695 C10.5509012 17.87115294 6.78116151 11.79544755 2.9440918 5.75756836 C0 1.10325626 0 1.10325626 0 0 Z " fill="#F3F3F2" transform="translate(564,519)"/>
<path d="M0 0 C1.80984375 -0.00483398 1.80984375 -0.00483398 3.65625 -0.00976562 C21.46406789 0.09669416 36.56851505 5.23484755 49.6875 17.625 C53.58299089 21.73432452 57.42468668 26.25505904 60 31.3125 C59.75251831 33.9645584 59.35577791 35.00714202 57.31689453 36.75708008 C56.59614746 37.19431396 55.87540039 37.63154785 55.1328125 38.08203125 C54.33423828 38.57550049 53.53566406 39.06896973 52.71289062 39.57739258 C51.43188477 40.34345825 51.43188477 40.34345825 50.125 41.125 C48.38775478 42.18706493 46.65077439 43.24956317 44.9140625 44.3125 C44.07004883 44.82425781 43.22603516 45.33601562 42.35644531 45.86328125 C40.34235038 47.10195381 38.36304843 48.3724135 36.3984375 49.6875 C34.96371094 50.6465625 34.96371094 50.6465625 33.5 51.625 C32.6853125 52.17800781 31.870625 52.73101563 31.03125 53.30078125 C29 54.3125 29 54.3125 26 53.3125 C24.6459068 51.32649663 23.31542376 49.32432457 22 47.3125 C17.00286162 41.48250522 10.60187993 37.96587414 2.95703125 37.07421875 C-3.83712469 36.83908403 -9.34771515 38.33278042 -14.67578125 42.6796875 C-18.7309957 47.27178949 -18.67378513 52.38107165 -18.41015625 58.2890625 C-17.62486121 64.07780877 -14.81913927 66.79571052 -10.390625 70.203125 C-6.23538466 73.27768293 -1.94771475 75.50178402 2.75 77.625 C3.5656543 78.00398437 4.38130859 78.38296875 5.22167969 78.7734375 C9.51158118 80.75716913 13.82563124 82.68121841 18.15625 84.57421875 C38.94818395 93.6811176 59.85364724 104.26477412 69.3125 126.3125 C75.11099438 142.46367105 75.05681497 159.62451501 68 175.3125 C66.22860823 178.84103642 64.28738288 182.09605158 62 185.3125 C61.55011719 185.94542969 61.10023438 186.57835937 60.63671875 187.23046875 C50.86251743 199.7029003 33.90902865 206.10391651 18.77734375 208.91015625 C6.34528283 210.23435715 -6.80738287 210.15262001 -19 207.3125 C-19.93070312 207.14105469 -20.86140625 206.96960938 -21.8203125 206.79296875 C-34.32096973 204.20949959 -46.57815664 197.91967269 -56 189.3125 C-56.83015625 188.56226563 -57.6603125 187.81203125 -58.515625 187.0390625 C-64.26485324 181.58245965 -69.75747854 175.64036438 -73 168.3125 C-72.7890625 166.30322266 -72.7890625 166.30322266 -72 164.3125 C-70.45629883 163.06738281 -70.45629883 163.06738281 -68.45703125 162.015625 C-67.71888184 161.61778809 -66.98073242 161.21995117 -66.22021484 160.81005859 C-65.42566895 160.39836426 -64.63112305 159.98666992 -63.8125 159.5625 C-62.17533027 158.68573743 -60.53861722 157.80812161 -58.90234375 156.9296875 C-58.0810498 156.49366211 -57.25975586 156.05763672 -56.41357422 155.60839844 C-52.86200205 153.70148512 -49.36679871 151.70120353 -45.875 149.6875 C-44.73804688 149.03523437 -43.60109375 148.38296875 -42.4296875 147.7109375 C-41.22699219 147.01871094 -41.22699219 147.01871094 -40 146.3125 C-37.0715241 149.19599931 -34.2651024 152.10119494 -31.625 155.25 C-23.69260682 164.2671649 -15.34064629 169.92648238 -3.02734375 170.76171875 C-1.26872404 170.81799198 0.49058514 170.8557821 2.25 170.875 C3.07717529 170.88966309 3.90435059 170.90432617 4.7565918 170.91943359 C13.59746193 170.7729827 20.70879608 167.45025992 27 161.3125 C30.2838763 156.22305597 29.53288445 150.11738793 29 144.3125 C27.50958674 138.02090816 22.51442466 135.44035791 17.3190918 132.203125 C11.27740867 128.7616543 4.92904226 126.02858871 -1.4375 123.25 C-28.44234358 111.36080788 -28.44234358 111.36080788 -40 102.3125 C-40.65871094 101.82007813 -41.31742187 101.32765625 -41.99609375 100.8203125 C-52.52092285 92.52234034 -58.31419598 79.75300252 -60.625 66.8125 C-62.40394903 49.42579059 -59.84213448 33.39180103 -48.73046875 19.46875 C-35.87640032 5.43912209 -18.66782665 -0.24930324 0 0 Z " fill="#2F2F2C" transform="translate(401,513.6875)"/>
<path d="M0 0 C14.19 0 28.38 0 43 0 C43.09062453 19.49020034 43.16416948 38.98022758 43.20724869 58.47058582 C43.22779116 67.52221585 43.25575075 76.57370475 43.30175781 85.62524414 C43.34188233 93.52326696 43.36749307 101.42118748 43.37635398 109.31930941 C43.38152583 113.49345151 43.39350331 117.66730118 43.42292023 121.84134865 C43.76676083 172.64174289 43.76676083 172.64174289 26.41796875 190.74609375 C11.81689211 204.35646729 -6.62975649 207.9177107 -26.06640625 207.34375 C-44.4942626 206.34243042 -60.51377907 198.44253554 -73 185 C-77.49923122 179.60522117 -80.99915837 174.78503226 -83 168 C-76.15535597 163.35288096 -69.17935492 158.94601791 -62.125 154.625 C-61.09375 153.98433594 -60.0625 153.34367188 -59 152.68359375 C-58.01257813 152.07902344 -57.02515625 151.47445312 -56.0078125 150.8515625 C-55.11723145 150.30322754 -54.22665039 149.75489258 -53.30908203 149.18994141 C-51 148 -51 148 -48 148 C-46.45703125 150.16015625 -46.45703125 150.16015625 -44.8125 153.0625 C-40.62563532 159.93143655 -35.84942409 165.49660692 -28 168 C-19.78054581 168.87296272 -12.50897222 168.29033108 -5.6875 163.3125 C-0.05379075 155.59223177 -0.55651735 147.21459717 -0.56762695 138.046875 C-0.55859961 136.53831688 -0.54827001 135.02976607 -0.53674316 133.52122498 C-0.50926105 129.4453628 -0.49990066 125.36964015 -0.49388909 121.29369736 C-0.48448245 117.02687851 -0.45827725 112.76016294 -0.43388367 108.4934082 C-0.39027785 100.42239625 -0.36169459 92.3514044 -0.33856028 84.28031063 C-0.31147683 75.08797919 -0.26756729 65.89575195 -0.22227156 56.70349503 C-0.12951001 37.80237144 -0.06001136 18.90125789 0 0 Z " fill="#30302C" transform="translate(262,516)"/>
</svg>
