<?xml version="1.0" encoding="UTF-8"?>
<svg version="1.1" xmlns="http://www.w3.org/2000/svg" width="500" height="500">
<path d="M0 0 C0 3.42002325 -0.54776703 4.15748534 -2.45703125 6.88671875 C-2.98659424 7.65145508 -3.51615723 8.41619141 -4.06176758 9.20410156 C-4.63950928 10.02362305 -5.21725098 10.84314453 -5.8125 11.6875 C-6.40635498 12.54182617 -7.00020996 13.39615234 -7.61206055 14.27636719 C-8.82993274 16.02833098 -10.05039826 17.77849485 -11.2734375 19.52685547 C-13.21022612 22.3011299 -15.12484387 25.08986931 -17.03491211 27.88256836 C-21.89879005 34.99202801 -26.82424072 42.05834845 -31.75 49.125 C-39.01692909 59.55307778 -46.18626654 70.04536166 -53.33496094 80.5546875 C-59.40555929 89.47009999 -65.53644352 98.34294586 -71.70556641 107.19042969 C-73.74872074 110.12316376 -75.78680124 113.05937211 -77.82421875 115.99609375 C-80.66186567 120.08538753 -83.5221724 124.1576843 -86.39453125 128.22265625 C-87.78429032 130.21063266 -89.17362841 132.19890346 -90.5625 134.1875 C-91.22411133 135.11385254 -91.88572266 136.04020508 -92.56738281 136.99462891 C-93.16518555 137.85620605 -93.76298828 138.7177832 -94.37890625 139.60546875 C-94.9107251 140.35981201 -95.44254395 141.11415527 -95.99047852 141.89135742 C-97.18541635 143.92274912 -97.18541635 143.92274912 -96.80541992 146.05737305 C-95.96446266 148.08571405 -95.01606407 149.69444704 -93.734375 151.4765625 C-93.26330322 152.137771 -92.79223145 152.79897949 -92.30688477 153.48022461 C-91.79311279 154.18800049 -91.27934082 154.89577637 -90.75 155.625 C-90.2149585 156.37209229 -89.67991699 157.11918457 -89.12866211 157.88891602 C-87.42530728 160.26380716 -85.71322352 162.63222102 -84 165 C-82.92286048 166.49586582 -81.84603171 167.99195546 -80.76953125 169.48828125 C-78.0694041 173.23708541 -75.36067627 176.97959343 -72.64990234 180.72070312 C-70.98915323 183.01498452 -69.3318875 185.31174037 -67.67578125 187.609375 C-67.12873535 188.36806885 -66.58168945 189.1267627 -66.01806641 189.90844727 C-64.93273694 191.41387826 -63.84776905 192.91957 -62.76318359 194.42553711 C-60.11219313 198.1001653 -57.44378056 201.75980481 -54.73828125 205.39453125 C-53.96701904 206.43347534 -53.96701904 206.43347534 -53.18017578 207.4934082 C-52.20744809 208.80103806 -51.23074543 210.10572326 -50.24951172 211.40698242 C-47 215.77850917 -47 215.77850917 -47 218 C-50.82644297 218.63305123 -54.18495677 218.77723251 -58 218 C-61.48983662 215.27988435 -63.60176651 211.68050067 -66 208 C-66.89508323 206.72366516 -67.79651933 205.4517699 -68.703125 204.18359375 C-70.74617065 201.32448544 -72.77247031 198.45478316 -74.78515625 195.57421875 C-78.02102786 190.95480142 -81.31593809 186.37966939 -84.625 181.8125 C-89.03178679 175.73003155 -93.41901614 169.63486645 -97.75439453 163.5012207 C-100.06717013 160.24495719 -102.47653244 157.09568243 -105 154 C-114.66418935 167.06491676 -124.23631659 180.19221099 -133.71728516 193.390625 C-134.57845947 194.58945312 -134.57845947 194.58945312 -135.45703125 195.8125 C-136.30890015 196.99888062 -136.30890015 196.99888062 -137.17797852 198.20922852 C-138.82225031 200.48935164 -140.48063648 202.75865051 -142.140625 205.02734375 C-143.84341711 207.36179904 -145.43456562 209.68521075 -146.984375 212.12890625 C-148.54142919 214.49785298 -149.7319009 216.3025527 -152 218 C-155.78706759 218.69748175 -159.20278949 218.55619177 -163 218 C-159.94699578 212.36425871 -156.406792 207.30915576 -152.5625 202.1875 C-151.3039598 200.49533265 -150.04616446 198.80261109 -148.7890625 197.109375 C-148.15516602 196.25666016 -147.52126953 195.40394531 -146.86816406 194.52539062 C-144.02714543 190.68489184 -141.22919818 186.81393328 -138.4375 182.9375 C-137.91019287 182.2055542 -137.38288574 181.4736084 -136.83959961 180.71948242 C-135.77128057 179.23614937 -134.70316561 177.75266931 -133.63525391 176.26904297 C-131.94090765 173.91800473 -130.24250128 171.56994775 -128.54296875 169.22265625 C-122.96902298 161.52255807 -117.40390811 153.82092883 -112 146 C-114.96793263 140.56354648 -118.3320541 135.61043005 -122 130.625 C-123.1674644 129.02401891 -124.33411268 127.42244243 -125.5 125.8203125 C-126.08652344 125.0149707 -126.67304688 124.20962891 -127.27734375 123.37988281 C-129.88532889 119.77690107 -132.44428841 116.14015987 -135 112.5 C-139.75741533 105.72928328 -144.58380634 99.0112051 -149.4609375 92.32617188 C-153.1098288 87.30429214 -156.5914827 82.18786345 -160 77 C-155.55051649 76.02146423 -152.43670421 75.62588932 -148 77 C-143.56033623 80.98257732 -140.64073927 86.52621923 -137.54296875 91.55810547 C-135.06304715 95.48281684 -132.31105985 99.19845328 -129.5625 102.9375 C-128.47942049 104.43153231 -127.39739608 105.92633003 -126.31640625 107.421875 C-125.50453857 108.54239258 -125.50453857 108.54239258 -124.67626953 109.68554688 C-121.78061631 113.68362327 -118.89046287 117.68567049 -116 121.6875 C-115.47220947 122.41767334 -114.94441895 123.14784668 -114.40063477 123.90014648 C-111.25292851 128.25676537 -108.12022569 132.62365405 -105 137 C-100.132802 131.09954209 -95.54232848 125.04329261 -91.12866211 118.79931641 C-86.96069239 112.9128295 -82.67813518 107.11406248 -78.38647461 101.31738281 C-75.45212426 97.34786878 -72.53650849 93.36785087 -69.671875 89.34765625 C-63.40936027 80.55999469 -56.92183945 72.0651586 -50.05859375 63.73828125 C-47.2590594 60.33679031 -44.5471899 56.87707912 -41.875 53.375 C-38.53233495 48.99458604 -35.16098811 44.63998329 -31.75 40.3125 C-27.47882309 34.89133202 -23.23370229 29.45048179 -19 24 C-14.57375227 18.30364331 -10.14099354 12.61259097 -5.6875 6.9375 C-5.22537109 6.34775391 -4.76324219 5.75800781 -4.28710938 5.15039062 C-1.12012816 1.12012816 -1.12012816 1.12012816 0 0 Z " fill="#000000" transform="translate(380,101)"/>
<path d="M0 0 C31.35 0 62.7 0 95 0 C95 2.64 95 5.28 95 8 C66.62 8 38.24 8 9 8 C9 26.48 9 44.96 9 64 C35.73 64 62.46 64 90 64 C90 66.64 90 69.28 90 72 C63.27 72 36.54 72 9 72 C9 92.13 9 112.26 9 133 C37.71 133 66.42 133 96 133 C96 135.64 96 138.28 96 141 C64.32 141 32.64 141 0 141 C0 94.47 0 47.94 0 0 Z " fill="#000000" transform="translate(118,178)"/>
<path d="M0 0 C12 0 12 0 15.28881836 2.89770508 C16.18224596 4.24402787 17.03048814 5.62105299 17.83984375 7.01953125 C18.56087784 8.14130264 18.56087784 8.14130264 19.29647827 9.28573608 C20.88312813 11.77192195 22.40825605 14.29067436 23.9375 16.8125 C25.05737406 18.58607769 26.18207283 20.35661702 27.3112793 22.12426758 C29.68816053 25.84971177 32.04667837 29.58591753 34.39550781 33.32910156 C39.57039792 41.52632646 45.04233729 49.5205089 50.50247192 57.52914429 C61.60241753 73.83143496 72.48625209 90.27356435 83.31167603 106.75888062 C92.86029295 121.29538186 102.53678024 135.73998228 112.28833008 150.14099121 C123.23639893 166.31437691 134.01342244 182.59662975 144.72460938 198.92773438 C145.31004517 199.8194635 145.89548096 200.71119263 146.49865723 201.62994385 C147.5845558 203.28445768 148.66921347 204.93978698 149.75231934 206.59613037 C152.73522562 211.14168147 155.81074428 215.59655323 159 220 C158.67 220.66 158.34 221.32 158 222 C150.30471099 212.22093843 142.74069593 202.36492463 135.39404297 192.32104492 C130.9999314 186.32558607 126.51824223 180.40234019 122 174.5 C105.05204679 152.32152278 88.99767696 129.61365186 73.57641602 106.34667969 C69.41894108 100.08661502 65.1506896 93.94518598 60.7421875 87.859375 C54.66517892 79.3861286 48.91480609 70.67563714 43.06591797 62.04443359 C40.13840819 57.73031791 37.19622735 53.42634671 34.25 49.125 C33.47897949 47.99892334 33.47897949 47.99892334 32.69238281 46.85009766 C31.12856053 44.56652247 29.56432229 42.28323269 28 40 C25.64535141 36.56282977 23.29129161 33.12525713 20.9375 29.6875 C20.40092773 28.90455566 19.86435547 28.12161133 19.31152344 27.31494141 C18.80524414 26.57550293 18.29896484 25.83606445 17.77734375 25.07421875 C17.33640381 24.43057373 16.89546387 23.78692871 16.44116211 23.1237793 C14.6110049 20.42675446 12.80692375 17.71263041 11 15 C10.19550547 30.92873713 9.80784412 46.82990803 9.68359375 62.77734375 C9.66294651 65.05375986 9.64194852 67.33017281 9.62062073 69.60658264 C9.56620004 75.51308586 9.51644829 81.41961888 9.46777344 87.32617188 C9.41696274 93.38739581 9.3615921 99.44857806 9.30664062 105.50976562 C9.20004226 117.33980789 9.09839161 129.16988682 9 141 C6.03 141 3.06 141 0 141 C0 94.47 0 47.94 0 0 Z " fill="#000000" transform="translate(0,178)"/>
<path d="M0 0 C35.97 0 71.94 0 109 0 C109 2.64 109 5.28 109 8 C92.5 8 76 8 59 8 C59 51.89 59 95.78 59 141 C56.03 141 53.06 141 50 141 C50 97.11 50 53.22 50 8 C33.5 8 17 8 0 8 C0 5.36 0 2.72 0 0 Z " fill="#000000" transform="translate(336,178)"/>
<path d="M0 0 C2.27883092 2.48599737 2.78592508 3.93110095 3.0625 7.25 C1.0825 7.25 -0.8975 7.25 -2.9375 7.25 C-3.2675 5.93 -3.5975 4.61 -3.9375 3.25 C-8.58802872 2.98067479 -8.58802872 2.98067479 -12.9375 4.25 C-12.6075 5.9 -12.2775 7.55 -11.9375 9.25 C-11.18984375 9.42015625 -10.4421875 9.5903125 -9.671875 9.765625 C-8.68703125 10.00796875 -7.7021875 10.2503125 -6.6875 10.5 C-5.22570312 10.84804688 -5.22570312 10.84804688 -3.734375 11.203125 C-0.54987036 12.39509043 0.97212196 13.58464618 3.0625 16.25 C3.51728628 19.43350395 3.7683706 21.23509505 3.0625 24.25 C0.52796343 27.46954645 -1.05047305 28.95432435 -4.9375 30.25 C-10.52841456 30.61661735 -14.12306761 30.45962159 -18.9375 27.25 C-20.74685423 24.61821203 -20.9375 23.4888234 -20.9375 20.25 C-18.9575 20.25 -16.9775 20.25 -14.9375 20.25 C-14.6075 21.57 -14.2775 22.89 -13.9375 24.25 C-12.679375 24.29125 -11.42125 24.3325 -10.125 24.375 C-9.41730469 24.39820313 -8.70960938 24.42140625 -7.98046875 24.4453125 C-5.62390281 24.38254462 -5.62390281 24.38254462 -2.9375 22.25 C-2.9375 20.93 -2.9375 19.61 -2.9375 18.25 C-4.14986328 18.01216797 -4.14986328 18.01216797 -5.38671875 17.76953125 C-16.64112013 15.31229766 -16.64112013 15.31229766 -19.9375 10.25 C-20.37694991 7.17385065 -20.14261461 5.04766794 -19.375 2.0625 C-14.41750097 -4.18825964 -6.31971715 -3.76493788 0 0 Z " fill="#000000" transform="translate(496.9375,279.75)"/>
<path d="M0 0 C1.98 0 3.96 0 6 0 C6.08729047 4.06236402 6.14048992 8.12448589 6.1875 12.1875 C6.21263672 13.33798828 6.23777344 14.48847656 6.26367188 15.67382812 C6.27333984 16.78564453 6.28300781 17.89746094 6.29296875 19.04296875 C6.3086792 20.06414795 6.32438965 21.08532715 6.34057617 22.13745117 C5.94204934 25.48707631 4.99829227 27.30316765 3 30 C-0.696859 32.46457267 -3.7098688 32.67738914 -8 32 C-11.38186376 30.0572272 -12.70264591 29.00642921 -13.8125 25.25 C-13.874375 24.5075 -13.93625 23.765 -14 23 C-11.125 22.8125 -11.125 22.8125 -8 23 C-7.34 23.99 -6.68 24.98 -6 26 C-4.35 25.67 -2.7 25.34 -1 25 C-0.67 16.75 -0.34 8.5 0 0 Z " fill="#000000" transform="translate(465,278)"/>
<path d="M0 0 C1.2065625 0.0309375 1.2065625 0.0309375 2.4375 0.0625 C3.0625 2.4375 3.0625 2.4375 3.4375 5.0625 C2.7775 5.7225 2.1175 6.3825 1.4375 7.0625 C-0.6875 6.6875 -0.6875 6.6875 -2.5625 6.0625 C-2.94468767 4.40635343 -3.27645102 2.73792976 -3.5625 1.0625 C-2.5625 0.0625 -2.5625 0.0625 0 0 Z " fill="#000000" transform="translate(443.5625,302.9375)"/>
<path d="" fill="#000000" transform="translate(0,0)"/>
<path d="" fill="#000000" transform="translate(0,0)"/>
</svg>
