<?xml version="1.0" encoding="UTF-8"?>
<svg version="1.1" xmlns="http://www.w3.org/2000/svg" width="500" height="500">
<path d="M0 0 C1.21300781 -0.01675781 2.42601562 -0.03351562 3.67578125 -0.05078125 C12.85961006 0.4534426 20.48117777 4.54140854 28.25 9.125 C30.28474476 10.30019192 32.31991595 11.47464575 34.35546875 12.6484375 C35.39880371 13.25397461 36.44213867 13.85951172 37.51708984 14.48339844 C42.670433 17.45651155 47.86691809 20.35154541 53.0625 23.25 C55.16156505 24.42428843 57.26052284 25.5987686 59.359375 26.7734375 C61.46871711 27.95318381 63.57809215 29.13287124 65.6875 30.3125 C78.81519874 37.65380716 91.9347626 45.00838105 105.02392578 52.41821289 C112.06725964 56.40308246 119.12456584 60.36248867 126.1875 64.3125 C135.14770905 69.32357988 144.09293417 74.36022336 153.02563477 79.42016602 C158.99749204 82.80031797 164.98334681 86.15426127 170.97753906 89.49462891 C180.67357571 94.90220752 190.33316488 100.36846446 199.9375 105.9375 C201.44654907 106.80749634 201.44654907 106.80749634 202.98608398 107.69506836 C214.19409089 114.22769673 221.87158887 121.59279625 225.6875 134.3125 C226.73461511 139.30895475 226.83331702 144.11288976 226.82794189 149.19143677 C226.83239858 150.5156227 226.83239858 150.5156227 226.8369453 151.86655986 C226.84560297 154.81876442 226.84713807 157.77092829 226.84863281 160.72314453 C226.8532631 162.84246405 226.85828804 164.96178274 226.86367798 167.08110046 C226.87678458 172.83549929 226.88324367 178.58988646 226.88768864 184.34429789 C226.89062246 187.94219907 226.89472788 191.54009709 226.89919281 195.13799667 C226.9128638 206.40298196 226.92253214 217.66795999 226.9263947 228.932953 C226.93087315 241.92163513 226.94841292 254.9102119 226.9773953 267.898862 C226.99903821 277.94834645 227.00910039 287.99780131 227.01043582 298.0473088 C227.01148207 304.04478564 227.01735148 310.0421634 227.03525543 316.03961563 C227.05178095 321.6850812 227.05386984 327.33037367 227.04511642 332.97585487 C227.04434842 335.04134778 227.04865732 337.10685017 227.05857468 339.17231941 C227.13190909 355.40494876 226.54779929 368.58778126 215.125 381.125 C209.6250098 386.06088864 203.87704522 389.61021545 197.4375 393.1875 C196.42679443 393.75412354 195.41608887 394.32074707 194.37475586 394.90454102 C191.14837309 396.71207936 187.91843834 398.51311886 184.6875 400.3125 C180.54071723 402.62330261 176.39475652 404.93556483 172.25 407.25 C171.21077393 407.82983643 170.17154785 408.40967285 169.10083008 409.00708008 C161.89010283 413.04341366 154.74681346 417.18415828 147.625 421.375 C138.67676668 426.63681326 129.62075213 431.65341079 120.47412109 436.56103516 C113.14152643 440.50217006 105.89718701 444.57628807 98.68188477 448.72753906 C91.95919012 452.5936093 85.20640874 456.40294794 78.4375 460.1875 C77.39231201 460.77192871 76.34712402 461.35635742 75.27026367 461.95849609 C73.14223989 463.1478922 71.01406531 464.33701853 68.88574219 465.52587891 C64.65565416 467.88891587 60.42657325 470.25374574 56.19848633 472.62036133 C54.1183173 473.78425193 52.03743188 474.94686315 49.95581055 476.1081543 C44.73284966 479.02620073 39.52998738 481.97334381 34.35546875 484.9765625 C32.81656982 485.86396118 32.81656982 485.86396118 31.24658203 486.76928711 C29.31677099 487.88387327 27.39155837 489.00647905 25.47216797 490.13891602 C13.76646018 496.87846813 1.70756164 499.64658495 -11.6328125 496.5390625 C-20.28198071 493.48258952 -28.01492831 488.56755357 -35.81347656 483.81933594 C-40.50836149 480.9884616 -45.25922354 478.2530518 -50 475.5 C-53.06805763 473.7104635 -56.13511335 471.91921799 -59.20214844 470.12792969 C-61.29579097 468.90592609 -63.3902072 467.68524721 -65.48535156 466.46582031 C-68.53455066 464.6900379 -71.58014739 462.90822224 -74.625 461.125 C-75.55594482 460.58447998 -76.48688965 460.04395996 -77.44604492 459.48706055 C-78.30560791 458.98215088 -79.1651709 458.47724121 -80.05078125 457.95703125 C-80.80399658 457.51721924 -81.55721191 457.07740723 -82.33325195 456.62426758 C-84.32702175 455.30287555 -85.8870576 454.2413194 -87.3125 452.3125 C-87.24169922 450.23193359 -87.24169922 450.23193359 -86.3125 448.3125 C-84.62939453 447.31103516 -84.62939453 447.31103516 -82.4453125 446.6015625 C-81.64706055 446.32900635 -80.84880859 446.0564502 -80.02636719 445.77563477 C-79.17204102 445.49905029 -78.31771484 445.22246582 -77.4375 444.9375 C-70.75401076 442.65507473 -64.7106529 440.21936671 -58.734375 436.37890625 C-55.19143178 434.81886835 -53.18888948 434.76762598 -49.3125 435.3125 C-45.45841104 437.07169019 -41.9111511 439.27231907 -38.3125 441.5 C-36.18037137 442.77848493 -34.04753956 444.05579779 -31.9140625 445.33203125 C-30.82641602 445.98896973 -29.73876953 446.6459082 -28.61816406 447.32275391 C-23.33958681 450.50003637 -18.02483475 453.61016056 -12.6875 456.6875 C-11.73488281 457.25235107 -10.78226563 457.81720215 -9.80078125 458.39916992 C-8.45693359 459.17224487 -8.45693359 459.17224487 -7.0859375 459.9609375 C-6.30653809 460.41645996 -5.52713867 460.87198242 -4.72412109 461.34130859 C-0.75011936 462.94169115 2.34824615 462.8658579 6.29858398 461.23364258 C7.16813721 460.72986084 8.03769043 460.2260791 8.93359375 459.70703125 C9.92359375 459.14242188 10.91359375 458.5778125 11.93359375 457.99609375 C12.98675781 457.37863281 14.03992188 456.76117188 15.125 456.125 C16.23101562 455.49078125 17.33703125 454.8565625 18.4765625 454.203125 C20.77088444 452.88722542 23.06237306 451.56637414 25.35107422 450.24072266 C30.27588432 447.39452405 35.23206547 444.60490292 40.1875 441.8125 C42.08469294 440.73838284 43.98182788 439.66416325 45.87890625 438.58984375 C49.85881752 436.34003485 53.84633939 434.10449546 57.83984375 431.87890625 C68.20431239 426.10184366 78.52320099 420.26797508 88.75 414.25 C97.69823332 408.98818674 106.75424787 403.97158921 115.90087891 399.06396484 C123.22913066 395.12516417 130.47009024 391.05496477 137.67993164 386.90405273 C144.52717913 382.96431941 151.41360075 379.09847949 158.3125 375.25 C166.1328347 370.88238499 173.93235417 366.48248919 181.6875 362 C182.48881348 361.53779053 183.29012695 361.07558105 184.11572266 360.59936523 C187.60269644 358.73126322 187.60269644 358.73126322 190.6875 356.3125 C190.8053602 353.5574092 190.85759696 350.82669722 190.86831665 348.07038879 C190.87552117 347.19580401 190.88272568 346.32121922 190.89014852 345.42013186 C190.9130142 342.46605482 190.92848671 339.5119863 190.94384766 336.55786133 C190.95828766 334.44924712 190.97304517 332.34063507 190.98809814 330.23202515 C191.11845985 310.96955874 191.18423959 291.7065053 191.23594093 272.44368458 C191.27487374 258.19590087 191.34325662 243.9489063 191.45048869 229.70146924 C191.52327892 219.69380743 191.56176598 209.6863618 191.57496679 199.67844599 C191.58384429 193.69635543 191.60819835 187.71523953 191.66963577 181.73343849 C191.72678603 176.10493573 191.74158166 170.47791244 191.72376251 164.84916306 C191.72464257 162.78270428 191.74096151 160.71618608 191.77380753 158.64998817 C192.43239154 148.12704077 192.43239154 148.12704077 188.70829582 138.78336239 C186.38817596 137.20286082 184.33345567 136.21618953 181.6875 135.3125 C180.80433105 134.79228271 179.92116211 134.27206543 179.01123047 133.73608398 C178.28307129 133.34751221 177.55491211 132.95894043 176.8046875 132.55859375 C175.95994873 132.10371582 175.11520996 131.64883789 174.24487305 131.18017578 C172.91709839 130.47223877 172.91709839 130.47223877 171.5625 129.75 C163.78775249 125.55686295 156.05699714 121.29832299 148.375 116.9375 C140.3264531 112.37053549 132.2649892 107.82809939 124.1875 103.3125 C115.2271965 98.30159013 106.28206483 93.26477608 97.34936523 88.20483398 C92.41956496 85.41450038 87.48333449 82.63653742 82.53515625 79.87890625 C72.17068931 74.10184461 61.85175499 68.26804876 51.625 62.25 C42.53079801 56.90157023 33.33200337 51.7859733 24.02587891 46.81567383 C19.7185216 44.51259876 15.43545242 42.2001488 11.24609375 39.6875 C10.27760498 39.10911377 10.27760498 39.10911377 9.28955078 38.51904297 C7.65002852 37.52817208 6.02167007 36.51888995 4.39453125 35.5078125 C1.13116241 34.06684444 0.06841622 34.36589333 -3.3125 35.3125 C-5.83536136 36.47913492 -5.83536136 36.47913492 -8.390625 37.98046875 C-9.37385742 38.53686035 -10.35708984 39.09325195 -11.37011719 39.66650391 C-12.42360352 40.27155762 -13.47708984 40.87661133 -14.5625 41.5 C-16.82279267 42.7827706 -19.08321293 44.06531639 -21.34375 45.34765625 C-22.511767 46.0130989 -23.67973567 46.6786264 -24.84765625 47.34423828 C-29.19791557 49.81547494 -33.56526455 52.25527421 -37.93457031 54.69262695 C-47.4440619 59.99736754 -56.91878573 65.3591982 -66.36474609 70.77612305 C-74.17219435 75.2471244 -82.02117971 79.64235043 -89.875 84.03125 C-96.86540566 87.93866348 -103.84375733 91.86659069 -110.8125 95.8125 C-118.84042056 100.35814733 -126.88419956 104.87448105 -134.9375 109.375 C-144.36375329 114.6455152 -153.75938689 119.96625628 -163.125 125.34375 C-166.82332078 127.46601716 -170.53335653 129.5662414 -174.25 131.65625 C-175.70841309 132.47971924 -175.70841309 132.47971924 -177.19628906 133.31982422 C-179.07083611 134.37780963 -180.94770466 135.43169497 -182.82714844 136.48095703 C-183.6627832 136.95388184 -184.49841797 137.42680664 -185.359375 137.9140625 C-186.10026367 138.32994629 -186.84115234 138.74583008 -187.60449219 139.17431641 C-189.4696435 140.21319467 -189.4696435 140.21319467 -190.3125 142.3125 C-190.42578131 145.09730824 -190.47798066 147.85793914 -190.48658752 150.64363098 C-190.49308648 151.51569221 -190.49958543 152.38775343 -190.50628132 153.28624076 C-190.52675707 156.22573003 -190.53991904 159.16520539 -190.55297852 162.10473633 C-190.56578531 164.2052683 -190.57892068 166.30579829 -190.59236145 168.40632629 C-190.70825219 187.57865101 -190.76487985 206.75149785 -190.80912876 225.92410755 C-190.84240258 240.10467097 -190.90201876 254.28459746 -190.99663979 268.46488744 C-191.0608754 278.4266985 -191.09465091 288.3883355 -191.10587829 298.35034579 C-191.11345355 304.30491314 -191.13476002 310.25871145 -191.18890572 316.21305275 C-191.23923305 321.81357788 -191.25198041 327.41292412 -191.23565483 333.01363945 C-191.23626005 335.07082869 -191.25061009 337.12806594 -191.27960205 339.18505096 C-191.31709564 341.99161344 -191.30540528 344.79380775 -191.28126526 347.60041809 C-191.30388587 348.41715258 -191.32650648 349.23388707 -191.34981257 350.07537109 C-191.29854135 352.41244786 -191.17399886 354.13640837 -190.3125 356.3125 C-187.88402315 358.52409917 -185.26319588 359.90843086 -182.3125 361.3125 C-181.35496826 361.86631348 -180.39743652 362.42012695 -179.41088867 362.99072266 C-178.5263501 363.4810498 -177.64181152 363.97137695 -176.73046875 364.4765625 C-175.72508057 365.03617676 -174.71969238 365.59579102 -173.68383789 366.17236328 C-172.63317139 366.7548584 -171.58250488 367.33735352 -170.5 367.9375 C-157.95885649 374.90981918 -157.95885649 374.90981918 -151.8046875 378.53125 C-150.96655518 379.02415527 -150.12842285 379.51706055 -149.26489258 380.02490234 C-147.73250275 380.93065447 -146.20337116 381.84195538 -144.6784668 382.76025391 C-133.9141603 389.11854846 -122.53517441 393.46642751 -109.9375 390.25 C-103.88442495 388.08467234 -99.78189985 384.71251975 -96.4375 379.25 C-94.32061097 373.72256753 -94.16495132 368.50851432 -94.16773987 362.63838196 C-94.1624496 361.32939549 -94.1624496 361.32939549 -94.15705246 359.99396485 C-94.14637985 357.07059683 -94.14268706 354.14726141 -94.13891602 351.22387695 C-94.1326099 349.1278876 -94.12584404 347.03189959 -94.11865234 344.93591309 C-94.10399044 340.42336112 -94.09226272 335.9108143 -94.08270454 331.39824867 C-94.06725885 324.26882621 -94.04331213 317.1394482 -94.01780701 310.01005554 C-93.94657866 289.7374451 -93.88671746 269.46480972 -93.83569336 249.19213867 C-93.80743681 237.99517683 -93.77208615 226.79825974 -93.72903961 215.60134476 C-93.70219978 208.50765572 -93.68433669 201.41401727 -93.67300236 194.32028735 C-93.66390733 189.91707757 -93.6465612 185.51392964 -93.62682343 181.11075592 C-93.61932057 179.06204126 -93.61526523 177.01331079 -93.61482811 174.96458244 C-93.61375308 172.17815328 -93.6005735 169.39204231 -93.58424377 166.60566711 C-93.58686063 165.78613141 -93.58947748 164.9665957 -93.59217364 164.12222558 C-93.54071506 158.54071506 -93.54071506 158.54071506 -91.3125 156.3125 C-87.05507862 155.91386504 -82.78302426 155.98347459 -78.5090332 155.99682617 C-76.38635794 155.99998311 -74.26508064 155.97654239 -72.14257812 155.95117188 C-70.79427259 155.94889854 -69.44596331 155.94819554 -68.09765625 155.94921875 C-66.25506226 155.94474731 -66.25506226 155.94474731 -64.37524414 155.94018555 C-61.3125 156.3125 -61.3125 156.3125 -59.64467371 157.60040349 C-57.32312487 160.58403516 -57.90255462 164.30160197 -57.93154907 167.93110657 C-57.9268691 168.82217344 -57.92218913 169.71324031 -57.91736734 170.63130921 C-57.90536163 173.62976259 -57.91489671 176.62776359 -57.92431641 179.6262207 C-57.92025287 181.7714108 -57.91491222 183.91659881 -57.90838623 186.06178284 C-57.89467195 191.90125382 -57.90003064 197.74056634 -57.90952349 203.58004022 C-57.91710957 209.69408619 -57.9100764 215.80811842 -57.90536499 221.92216492 C-57.89989983 232.20277339 -57.90711424 242.48331733 -57.92138672 252.76391602 C-57.93766695 264.6272106 -57.93246149 276.49035012 -57.9159075 288.35364085 C-57.90225721 298.54578131 -57.9003917 308.73787528 -57.90822351 318.93002194 C-57.91288673 325.0136644 -57.91356312 331.09723425 -57.90361404 337.18087196 C-57.89489685 342.91250597 -57.9010527 348.64394221 -57.91829681 354.37555504 C-57.92223844 356.47083586 -57.92116786 358.56613353 -57.91450882 360.66140747 C-57.85703056 380.59802117 -59.55357691 398.10933634 -74.109375 413.1953125 C-86.62871205 425.22630662 -102.75748936 426.79502407 -119.3515625 426.59375 C-135.5608615 426.07965869 -150.12113036 419.45808003 -163.9375 411.375 C-173.63473766 405.78544592 -183.43925906 400.43698069 -193.35595703 395.24633789 C-206.27471327 388.39437279 -218.89521231 380.60556978 -224.3125 366.3125 C-225.5479226 362.00540094 -225.46062441 357.77401979 -225.45967102 353.32566833 C-225.46334771 352.40712903 -225.4670244 351.48858972 -225.4708125 350.54221588 C-225.4818461 347.45709336 -225.48569266 344.37200453 -225.48950195 341.28686523 C-225.49576691 339.07754916 -225.50241374 336.86823415 -225.50941467 334.65892029 C-225.53045587 327.39631891 -225.54081801 320.13371731 -225.55078125 312.87109375 C-225.55482896 310.3701228 -225.55894589 307.86915195 -225.56313133 305.36818123 C-225.58000091 294.96335267 -225.59463486 284.55852569 -225.60188007 274.15368557 C-225.60378984 271.45491471 -225.60571019 268.75614387 -225.60766602 266.05737305 C-225.60814976 265.38664153 -225.6086335 264.71591001 -225.6091319 264.0248533 C-225.61742542 253.1687215 -225.64275132 242.31270013 -225.67524669 231.45661651 C-225.70836863 220.29982871 -225.72600113 209.14308078 -225.72952431 197.98623997 C-225.73187319 191.7266023 -225.74081261 185.46713916 -225.76598549 179.20754814 C-225.78929899 173.31502622 -225.79348605 167.42279332 -225.78322411 161.5302372 C-225.78272942 159.37240512 -225.78902999 157.21455865 -225.80278015 155.05677032 C-225.8883038 140.83513309 -225.69325382 128.21775507 -215.3125 117.3125 C-209.80240092 111.88208421 -203.44940546 108.35623744 -196.6875 104.6875 C-194.43443477 103.44614897 -192.18183736 102.20394849 -189.9296875 100.9609375 C-188.81045898 100.34573242 -187.69123047 99.73052734 -186.53808594 99.09667969 C-181.93477242 96.5504327 -177.37201005 93.93613116 -172.8125 91.3125 C-165.23899296 86.96489366 -157.62803643 82.68862381 -150 78.4375 C-141.69066197 73.8055947 -133.44835903 69.07540419 -125.25 64.25 C-116.30182482 58.98809191 -107.245748 53.97158699 -98.09912109 49.06396484 C-90.76942154 45.12438601 -83.52733688 41.05287854 -76.31567383 36.90185547 C-68.46247066 32.38410089 -60.55798983 27.96120507 -52.64697266 23.5456543 C-44.80154997 19.16101733 -36.99064192 14.71900979 -29.2109375 10.21875 C-19.67225293 4.7281901 -11.3337899 0.0359043 0 0 Z " fill="#8BC84A" transform="translate(249.3125,0.6875)"/>
<path d="M0 0 C25.71383494 -0.44514786 55.50560853 2.00558868 75.8359375 19.62109375 C77.28980905 21.08506163 78.70986786 22.58376594 80.0859375 24.12109375 C80.7253125 24.8171875 81.3646875 25.51328125 82.0234375 26.23046875 C91.06658471 36.91073743 96.89000022 51.92272859 95.77734375 66.03515625 C95.54917969 67.05351562 95.32101562 68.071875 95.0859375 69.12109375 C88.47154754 72.42828873 78.38913628 71.35976038 71.0859375 71.12109375 C70.25578125 71.1159375 69.425625 71.11078125 68.5703125 71.10546875 C66.26261638 71.00125022 64.28911734 70.81486102 62.0859375 70.12109375 C60.2734375 67.74609375 60.2734375 67.74609375 59.0859375 64.12109375 C55.77726608 54.07253609 52.16507703 46.19680427 42.90625 40.4375 C21.93937094 30.65102044 -8.73069973 30.93310753 -30.14453125 38.5546875 C-35.94791863 40.8279979 -39.69849432 44.04286427 -42.8515625 49.43359375 C-44.5078371 55.18184089 -44.75500508 59.8505488 -42.6640625 65.49609375 C-39.12592487 70.8033002 -34.64933698 72.04252989 -28.6640625 73.55859375 C-27.82327148 73.77394775 -26.98248047 73.98930176 -26.11621094 74.21118164 C-13.21319114 77.39919467 -0.05327372 79.21619634 13.08230591 81.15707397 C79.86616123 91.03394371 79.86616123 91.03394371 95.36328125 109.5859375 C104.14225375 122.50555916 105.04999137 138.96526779 102.40234375 154.00390625 C101.48435461 157.1654456 100.40670743 160.10692288 99.0859375 163.12109375 C98.68503906 164.05953125 98.28414062 164.99796875 97.87109375 165.96484375 C90.53648544 181.10177453 76.91094517 190.06877012 61.54907227 195.65429688 C29.4306749 206.6533232 -7.35390365 205.72639623 -39.9140625 197.12109375 C-40.98914063 196.84652344 -42.06421875 196.57195312 -43.171875 196.2890625 C-59.01097119 191.66404641 -73.56099862 181.40279565 -81.9140625 167.12109375 C-87.2534963 156.42810066 -90.90949407 144.17823536 -88.9140625 132.12109375 C-84.82599458 127.99690783 -80.28714738 128.67062916 -74.8046875 128.61328125 C-73.52078125 128.61585938 -72.236875 128.6184375 -70.9140625 128.62109375 C-69.63015625 128.59273437 -68.34625 128.564375 -67.0234375 128.53515625 C-65.17492187 128.53128906 -65.17492187 128.53128906 -63.2890625 128.52734375 C-62.16242188 128.52025391 -61.03578125 128.51316406 -59.875 128.50585938 C-56.9140625 129.12109375 -56.9140625 129.12109375 -54.57006836 131.48339844 C-52.7746881 134.34309007 -52.11014488 136.56772629 -51.4765625 139.87109375 C-49.77444855 147.31097892 -47.12273347 154.31331562 -40.75 159.00390625 C-18.01489802 172.83845766 15.67816875 171.75319065 41.109375 166.49609375 C49.65053576 164.18341022 57.0095384 160.50494699 62.0859375 153.12109375 C63.89338567 149.3534553 64.38248723 146.28943227 64.3984375 142.12109375 C64.42357422 140.60515625 64.42357422 140.60515625 64.44921875 139.05859375 C63.91466317 134.73616581 62.07313825 132.13914452 59.0859375 129.05859375 C51.7836168 124.34251163 42.96915297 122.35575397 34.5234375 120.68359375 C33.49114014 120.47605469 32.45884277 120.26851563 31.39526367 120.0546875 C20.6300818 118.01747175 9.78005781 116.84200456 -1.1015625 115.62109375 C-56.32325778 109.41068654 -56.32325778 109.41068654 -73.3515625 91.1953125 C-82.6115632 78.90266157 -84.26793964 65.02036273 -82.9140625 50.12109375 C-80.27135963 36.45046321 -73.40802011 24.74350137 -62.37890625 16.14453125 C-43.09784739 3.25263033 -22.5380601 0.69728529 0 0 Z " fill="#8BC84A" transform="translate(296.9140625,150.87890625)"/>
</svg>
