<?xml version="1.0" encoding="UTF-8"?>
<svg version="1.1" xmlns="http://www.w3.org/2000/svg" width="500" height="500">
<path d="M0 0 C27.51324329 -1.19849355 55.05191476 15.00860816 76.0625 31.16015625 C77.34253906 32.14048828 77.34253906 32.14048828 78.6484375 33.140625 C84.35907454 37.62227381 89.85025572 42.36548772 95.33007812 47.12451172 C97.83971747 49.29740567 100.2964503 51.31612312 103.0625 53.16015625 C103.65675781 52.54269531 104.25101563 51.92523438 104.86328125 51.2890625 C128.37592199 27.26448246 163.99424055 0.78603457 198.97460938 -0.13232422 C212.47449753 -0.25800438 223.57939092 2.71245877 233.88671875 11.76171875 C250.91827964 29.13773818 253.425785 56.59728415 253.3671875 79.60229492 C252.68014344 121.92486936 252.68014344 121.92486936 245.0625 137.16015625 C246.35285156 137.42570313 247.64320313 137.69125 248.97265625 137.96484375 C253.94606617 139.07393067 258.70018671 140.58545148 263.5 142.28515625 C264.36616943 142.59155029 265.23233887 142.89794434 266.12475586 143.21362305 C291.25489612 152.27256128 315.83482968 164.29096792 335.0625 183.16015625 C335.84367187 183.91683594 336.62484375 184.67351562 337.4296875 185.453125 C346.93566815 195.263169 352.34951697 206.53019253 352.37939453 220.23901367 C352.25652631 226.54700723 350.82170668 231.53794828 348.0625 237.16015625 C347.66160156 237.97742188 347.26070313 238.7946875 346.84765625 239.63671875 C335.98641967 259.4702812 315.67385835 272.23030385 296.0625 282.16015625 C295.24265625 282.57894043 294.4228125 282.99772461 293.578125 283.42919922 C283.66478815 288.44858623 273.62043522 292.89211361 263.1875 296.72265625 C262.27838867 297.0573291 261.36927734 297.39200195 260.43261719 297.73681641 C255.62218678 299.44429442 251.14523323 300.65465281 246.0625 301.16015625 C246.31644531 302.083125 246.57039063 303.00609375 246.83203125 303.95703125 C256.06781774 338.54507417 260.01719104 381.24544938 243.0625 414.16015625 C236.42449519 425.20864747 227.64008967 433.56945726 215.0625 437.16015625 C195.69219343 441.05527225 177.32756043 435.70908908 160.0625 427.16015625 C159.1334082 426.7118042 159.1334082 426.7118042 158.18554688 426.25439453 C141.99579116 418.38508372 126.93134145 407.51455616 113.8671875 395.16015625 C113.32682861 394.65170166 112.78646973 394.14324707 112.22973633 393.61938477 C111.18352236 392.62728806 110.14635662 391.62553453 109.11987305 390.61303711 C106.10373177 387.73504758 105.4350817 387.16015625 101.0625 387.16015625 C99.09626208 388.7895849 97.35266737 390.4163587 95.5625 392.22265625 C70.22361024 416.5643286 34.73727931 439.08440873 -1.484375 438.40625 C-13.58055114 437.5441922 -24.024121 433.05842903 -32.3515625 424.125 C-46.3970203 406.723854 -49.17473913 384.99366483 -49.25 363.41015625 C-49.25442612 362.29332458 -49.25442612 362.29332458 -49.25894165 361.15393066 C-49.2765192 341.50379981 -46.5429735 322.2637622 -41.9375 303.16015625 C-42.93040039 302.83760864 -42.93040039 302.83760864 -43.94335938 302.50854492 C-79.82728907 290.74377754 -124.02645616 273.59799844 -143.68359375 238.67578125 C-148.81669994 228.37758691 -150.03821563 216.4471723 -146.375 205.41015625 C-134.39891037 177.03019737 -104.24360234 159.95100616 -77.0078125 148.640625 C-71.35795607 146.36940029 -65.66475745 144.22770797 -59.9375 142.16015625 C-59.1439209 141.87350098 -58.3503418 141.5868457 -57.53271484 141.29150391 C-45.95636072 137.16015625 -45.95636072 137.16015625 -40.9375 137.16015625 C-41.10878418 136.38115967 -41.28006836 135.60216309 -41.45654297 134.79956055 C-49.61355037 97.40455599 -57.18976603 53.24182622 -35.75390625 18.75 C-28.93022171 9.02074655 -19.55083651 3.06433637 -7.90625 0.7578125 C-5.27635421 0.37689505 -2.64643014 0.21875733 0 0 Z M-17.9375 31.16015625 C-34.38732797 58.03593153 -27.70163167 97.32999684 -21.1875 126.28515625 C-20.77491778 127.91119808 -20.35907872 129.53642367 -19.9375 131.16015625 C-19.24309814 131.04406006 -18.54869629 130.92796387 -17.83325195 130.80834961 C-10.89899554 129.65064515 -3.96449838 128.49435906 2.97387695 127.36157227 C5.63920499 126.92505162 8.30268737 126.48174571 10.96557617 126.03100586 C17.24986968 124.98304319 23.47597913 124.05576448 29.84375 123.66015625 C40.46022818 123.38809916 40.46022818 123.38809916 49.30859375 118.35546875 C51.56697991 115.46244644 53.28912511 112.334355 54.98339844 109.08740234 C56.7962938 105.84962044 59.10753834 103.03707448 61.4375 100.16015625 C61.89133057 99.58716797 62.34516113 99.01417969 62.81274414 98.42382812 C70.53694318 88.70703328 78.76346512 79.38673032 87.0625 70.16015625 C65.23811668 48.21822688 34.28994674 23.02335818 1.75 21.78515625 C-6.11621747 22.09064042 -12.89687982 25.00728655 -17.9375 31.16015625 Z M131.0625 57.16015625 C130.52512207 57.61986816 129.98774414 58.07958008 129.43408203 58.55322266 C127.73518924 60.01267093 126.0530944 61.48936715 124.375 62.97265625 C123.84487305 63.42898437 123.31474609 63.8853125 122.76855469 64.35546875 C121.10806112 65.80808777 121.10806112 65.80808777 119.0625 68.16015625 C119.0625 73.20689164 121.02959313 74.67244731 124.375 78.03515625 C130.27372353 84.18790857 135.55951661 90.64973179 140.72900391 97.41943359 C142.06272958 99.16045594 143.41009676 100.89003325 144.76171875 102.6171875 C146.40062795 104.72066465 148.03827539 106.82511715 149.67578125 108.9296875 C150.27459106 109.67593384 150.27459106 109.67593384 150.88549805 110.43725586 C152.0625 112.16015625 152.0625 112.16015625 152.98364258 114.43188477 C154.37010883 117.41828281 155.50383785 119.04796165 158.0625 121.16015625 C164.4227194 123.46470932 171.44541934 123.77782619 178.125 124.47265625 C180.03839087 124.70134384 181.95124282 124.93458608 183.86352539 125.17236328 C186.68804241 125.52330255 189.5125107 125.87186831 192.3391571 126.20526123 C200.13360225 127.12800823 207.77581183 128.45552176 215.46313477 130.04418945 C218.39616085 130.64963512 221.05644858 131.16015625 224.0625 131.16015625 C231.97052237 101.61546355 238.24827498 62.37463591 223.0625 34.16015625 C220.19287132 29.21982961 217.00054176 25.06473479 211.6328125 22.7890625 C182.58089426 15.68061442 151.53162945 39.37257214 131.0625 57.16015625 Z M98.99609375 88.1796875 C98.17238281 89.10136719 97.34867188 90.02304688 96.5 90.97265625 C95.83508545 91.7160022 95.83508545 91.7160022 95.15673828 92.47436523 C90.63164063 97.57214791 86.32670384 102.84325092 82.0625 108.16015625 C81.29035156 109.11019531 80.51820313 110.06023437 79.72265625 111.0390625 C76.08264686 114.74518368 76.08264686 114.74518368 74.0625 119.16015625 C92.5425 119.16015625 111.0225 119.16015625 130.0625 119.16015625 C126.26332509 113.46139389 122.71612066 108.29530538 118.25 103.22265625 C117.73518066 102.63145996 117.22036133 102.04026367 116.68994141 101.43115234 C115.64960865 100.23939301 114.60668978 99.04988562 113.56103516 97.86279297 C112.15155532 96.26134097 110.75267276 94.65122098 109.35546875 93.0390625 C108.55753906 92.13027344 107.75960937 91.22148438 106.9375 90.28515625 C106.23367187 89.48335938 105.52984375 88.6815625 104.8046875 87.85546875 C102.18968465 85.31082472 101.57593859 85.65836466 98.99609375 88.1796875 Z M69.5 140.54296875 C68.72052002 140.57333221 67.94104004 140.60369568 67.13793945 140.63497925 C63.08693281 140.84725442 59.62539251 141.14856716 56.0625 143.16015625 C54.35305943 145.01465435 54.35305943 145.01465435 53.00390625 147.32421875 C52.18901733 148.61694702 52.18901733 148.61694702 51.35766602 149.93579102 C50.78588623 150.87608154 50.21410645 151.81637207 49.625 152.78515625 C49.01519287 153.76863037 48.40538574 154.75210449 47.77709961 155.76538086 C45.85371921 158.88609086 43.95507861 162.02068507 42.0625 165.16015625 C41.47726563 166.12421387 40.89203125 167.08827148 40.2890625 168.08154297 C33.39739753 179.48124557 26.8586777 191.08647742 20.59957886 202.84494019 C19.91321975 204.12901319 19.22036582 205.40963757 18.52078247 206.68655396 C17.54603019 208.47171502 16.60049957 210.27273748 15.65625 212.07421875 C15.10646484 213.10498535 14.55667969 214.13575195 13.99023438 215.19775391 C11.78858103 222.22798065 18.06086152 230.33923093 21.25 236.47265625 C21.55662567 237.06329865 21.86325134 237.65394104 22.1791687 238.26248169 C28.92922949 251.22627682 36.33503758 263.75489961 44.0625 276.16015625 C44.67641602 277.15418457 45.29033203 278.14821289 45.92285156 279.17236328 C47.68285704 282.01188249 49.46171071 284.83838339 51.25 287.66015625 C51.77859619 288.50956787 52.30719238 289.35897949 52.85180664 290.23413086 C53.34801514 291.00378174 53.84422363 291.77343262 54.35546875 292.56640625 C54.7836792 293.23994141 55.21188965 293.91347656 55.65307617 294.60742188 C57.91994138 297.10478247 60.18081754 297.08360298 63.42724609 297.36547852 C64.74329834 297.42046509 64.74329834 297.42046509 66.0859375 297.4765625 C67.09156738 297.51861816 68.09719727 297.56067383 69.13330078 297.60400391 C70.76887939 297.66273682 70.76887939 297.66273682 72.4375 297.72265625 C73.5807373 297.76438965 74.72397461 297.80612305 75.90185547 297.84912109 C94.09605076 298.45141509 112.30728227 298.43802526 130.5 297.78515625 C131.47018066 297.75437988 132.44036133 297.72360352 133.43994141 297.69189453 C140.97567619 297.43173793 140.97567619 297.43173793 148.0625 295.16015625 C150.65612293 292.24543311 152.58183016 289.01136854 154.5625 285.66015625 C155.4587207 284.19485474 155.4587207 284.19485474 156.37304688 282.69995117 C158.29532933 279.53473608 160.18167453 276.35015547 162.0625 273.16015625 C162.68253906 272.12068848 163.30257812 271.0812207 163.94140625 270.01025391 C170.95969248 258.22092497 177.68657935 246.26605413 184.10961914 234.1421814 C185.04360264 232.38324495 185.98945988 230.63062981 186.93554688 228.87817383 C187.49306641 227.80978271 188.05058594 226.7413916 188.625 225.640625 C189.12128906 224.70114014 189.61757813 223.76165527 190.12890625 222.79370117 C191.49834564 218.93069314 190.67018603 216.58297815 189.10131836 212.90966797 C188.70565674 212.14412598 188.30999512 211.37858398 187.90234375 210.58984375 C187.44690186 209.70748047 186.99145996 208.82511719 186.5222168 207.91601562 C186.01988525 206.96533203 185.51755371 206.01464844 185 205.03515625 C184.47124268 204.03033203 183.94248535 203.02550781 183.39770508 201.99023438 C174.29646176 184.90229273 164.23870626 168.34304274 153.8125 152.03515625 C153.19270264 151.05095703 152.57290527 150.06675781 151.93432617 149.05273438 C151.35271729 148.15748047 150.7711084 147.26222656 150.171875 146.33984375 C149.66624023 145.55335449 149.16060547 144.76686523 148.63964844 143.95654297 C146.03412112 140.98882315 143.13794251 141.16639431 139.2890625 140.84814453 C137.75552948 140.76137707 136.22163198 140.68090854 134.6875 140.60546875 C133.43706909 140.54240036 133.43706909 140.54240036 132.16137695 140.47805786 C123.06678906 140.05816338 113.97683473 140.00919056 104.87402344 140.02978516 C102.06439829 140.03515262 99.25493291 140.02979411 96.4453125 140.0234375 C87.45658644 140.0189243 78.48028865 140.13642984 69.5 140.54296875 Z M175.0625 145.16015625 C178.65492466 151.93645532 182.46760954 158.542057 186.44946289 165.09326172 C190.03256854 171.02789751 193.38920137 177.08016498 196.70019531 183.17016602 C198.62577042 186.68822469 200.51252758 190.04260932 203.0625 193.16015625 C207.37997299 183.2467897 211.49270224 173.30774448 215.0625 163.09765625 C215.36486572 162.2355957 215.66723145 161.37353516 215.97875977 160.48535156 C217.50403315 156.41196704 217.50403315 156.41196704 218.0625 152.16015625 C196.76520201 147.04129066 196.76520201 147.04129066 175.0625 145.16015625 Z M16.4140625 146.18359375 C14.53460938 146.5084375 14.53460938 146.5084375 12.6171875 146.83984375 C11.32039063 147.06929687 10.02359375 147.29875 8.6875 147.53515625 C6.75390625 147.86773437 6.75390625 147.86773437 4.78125 148.20703125 C-1.52899616 149.30840892 -7.75352946 150.48500474 -13.9375 152.16015625 C-9.45450241 166.06570186 -4.76518303 179.75648529 1.0625 193.16015625 C3.18288258 190.44949669 4.91975923 187.73808268 6.5234375 184.6953125 C6.98911133 183.82221436 7.45478516 182.94911621 7.93457031 182.04956055 C8.43053711 181.11668213 8.92650391 180.18380371 9.4375 179.22265625 C14.31857332 170.13420735 19.53921028 161.32070489 25.04833984 152.59985352 C25.57379395 151.76768311 26.09924805 150.9355127 26.640625 150.078125 C27.10887695 149.34360107 27.57712891 148.60907715 28.05957031 147.85229492 C29.14747841 146.34461914 29.14747841 146.34461914 29.0625 145.16015625 C24.70983316 145.05242918 20.70108498 145.4388997 16.4140625 146.18359375 Z M239.0625 158.16015625 C238.68552979 159.20655273 238.30855957 160.25294922 237.92016602 161.33105469 C236.1648568 166.19431402 234.39666617 171.05283489 232.625 175.91015625 C232.30836395 176.77996124 231.99172791 177.64976624 231.66549683 178.54592896 C227.71629591 189.36605449 223.72875116 200.09227512 218.46508789 210.36035156 C216.11659989 215.12565943 215.66163715 218.02744013 217.0625 223.16015625 C218.21308737 226.10676447 219.56194229 228.93783978 220.9375 231.78515625 C225.01563211 240.51131974 228.55755448 249.39706322 231.9375 258.41015625 C232.28914215 259.34713348 232.28914215 259.34713348 232.64788818 260.30303955 C234.12780977 264.25231156 235.59578584 268.20596562 237.0625 272.16015625 C238.06011921 274.82772477 239.06104298 277.49402565 240.0625 280.16015625 C246.57862677 278.85169706 252.61709494 277.05368773 258.8125 274.66015625 C259.71572998 274.31194824 260.61895996 273.96374023 261.54956055 273.60498047 C286.5320275 263.78665695 314.76674988 251.06293146 328.9375 226.97265625 C331.30008854 221.06618489 331.33313857 216.84900957 329.30078125 210.859375 C322.0722873 195.10262636 303.88481349 184.74125263 289.0625 177.16015625 C288.29309082 176.76586426 287.52368164 176.37157227 286.73095703 175.96533203 C271.42070001 168.21334089 255.86939114 161.77373703 239.0625 158.16015625 Z M-42.875 159.49609375 C-44.32616211 159.97260376 -44.32616211 159.97260376 -45.80664062 160.45874023 C-46.83982422 160.81395752 -47.87300781 161.1691748 -48.9375 161.53515625 C-50.54141602 162.08055054 -50.54141602 162.08055054 -52.17773438 162.63696289 C-72.90056887 169.84229859 -92.8510528 179.25721013 -109.9375 193.16015625 C-111.18853516 194.16369141 -111.18853516 194.16369141 -112.46484375 195.1875 C-119.27062771 200.90617038 -125.41147753 207.66145112 -126.94140625 216.71484375 C-126.92506034 226.94738654 -120.73823157 236.06296516 -113.9765625 243.2421875 C-96.18221319 260.01121185 -59.84280336 281.16015625 -34.9375 281.16015625 C-34.66188232 280.35723145 -34.38626465 279.55430664 -34.10229492 278.72705078 C-20.49936984 239.28389594 -20.49936984 239.28389594 -11.9375 222.16015625 C-11.15069284 216.12796803 -13.68890953 211.71720361 -16.1875 206.41015625 C-19.53721211 199.08136255 -22.51802026 191.73835572 -25.1328125 184.12109375 C-25.53095154 182.96371704 -25.53095154 182.96371704 -25.93713379 181.78295898 C-27.25854643 177.92092642 -28.55358992 174.05154876 -29.82519531 170.17285156 C-30.3075904 168.74402163 -30.79032202 167.31530526 -31.2734375 165.88671875 C-31.48356476 165.22110931 -31.69369202 164.55549988 -31.91018677 163.86972046 C-33.04793542 160.38143933 -33.04793542 160.38143933 -35.79541016 158.15625 C-38.40719571 158.16101277 -40.39130127 158.67581957 -42.875 159.49609375 Z M1.0625 245.16015625 C-8.91056934 265.52971097 -8.91056934 265.52971097 -13.9375 287.16015625 C0.68481794 290.13355346 15.18698091 292.87248212 30.0625 294.16015625 C26.74392777 288.43001706 23.40838952 282.71703008 19.95849609 277.06494141 C13.61270635 266.64114528 7.84447107 255.90399198 2.0625 245.16015625 C1.7325 245.16015625 1.4025 245.16015625 1.0625 245.16015625 Z M202.0625 245.16015625 C201.7315332 245.78245117 201.40056641 246.40474609 201.05957031 247.04589844 C193.79113859 260.67733439 186.29321109 274.10015582 178.18481445 287.25097656 C177.04982852 289.18171183 176.0406739 291.14608751 175.0625 293.16015625 C189.46676494 292.8672784 205.38431314 290.71955187 219.0625 286.16015625 C216.92673321 278.61692108 214.34301901 271.30019562 211.5625 263.97265625 C211.17191406 262.93173828 210.78132813 261.89082031 210.37890625 260.81835938 C208.38930462 255.54290052 206.33890937 250.31855826 204.0625 245.16015625 C203.4025 245.16015625 202.7425 245.16015625 202.0625 245.16015625 Z M-19.9375 308.16015625 C-24.88526162 326.14288376 -27.2155469 343.39347378 -27.3125 362.03515625 C-27.32035522 362.77851227 -27.32821045 363.52186829 -27.33630371 364.28775024 C-27.46090066 379.43735941 -25.98025918 396.06048059 -16.625 408.66015625 C-9.60092721 415.19417745 -2.08409576 416.21943171 7.20703125 416.390625 C14.54996689 415.79796672 21.03592363 413.60067822 27.6875 410.53515625 C28.46383789 410.18179199 29.24017578 409.82842773 30.04003906 409.46435547 C51.70655167 399.48111355 69.4738005 386.29902803 87.0625 370.16015625 C85.73691171 367.2616211 84.26761656 365.07481967 82.125 362.72265625 C75.18586863 354.94852567 68.4394181 347.02760468 62.0625 338.78515625 C61.28181152 337.78564941 60.50112305 336.78614258 59.69677734 335.75634766 C57.88512644 333.36786928 56.32487777 330.95082342 54.84692383 328.34399414 C51.51133342 322.72312035 48.33512919 317.46502016 41.77880859 315.54394531 C36.80862559 314.53985581 31.80300752 314.25369693 26.75 313.97265625 C24.95605346 313.82177327 23.16273129 313.66327996 21.37011719 313.49731445 C17.85998998 313.17459163 14.34926375 312.87805179 10.83544922 312.59863281 C4.75156852 312.08065699 -1.20550338 311.05599757 -7.1875 309.84765625 C-13.50692174 308.57239806 -13.50692174 308.57239806 -19.9375 308.16015625 Z M218.515625 308.078125 C216.44792986 308.50136653 214.38022025 308.92453741 212.3125 309.34765625 C211.18956543 309.58121826 210.06663086 309.81478027 208.90966797 310.05541992 C201.69649169 311.48137007 194.6261072 312.44730286 187.3046875 313.04296875 C169.6535677 313.60356319 169.6535677 313.60356319 154.28515625 320.61328125 C151.59242281 323.83528829 149.71384971 327.32411903 148.01464844 331.15039062 C146.53145974 334.28105968 144.51893373 336.75178354 142.375 339.47265625 C141.65828125 340.42785156 140.9415625 341.38304687 140.203125 342.3671875 C136.6054751 347.06120152 132.84634892 351.61576627 129.0625 356.16015625 C128.13280702 357.27864128 127.20311972 358.39713103 126.2734375 359.515625 C123.87357771 362.40030918 121.46919168 365.28117017 119.0625 368.16015625 C126.376472 386.31898329 158.58272565 402.70652569 175.5 410.16015625 C187.46737569 415.18941756 198.87366979 418.2690681 211.875 415.28515625 C221.71168749 408.72736459 227.15530702 399.46329474 229.76953125 388.08203125 C230.29970437 385.10695905 230.72309805 382.16312568 231.0625 379.16015625 C231.19060059 378.06272095 231.19060059 378.06272095 231.32128906 376.94311523 C233.90165145 353.435459 231.55192941 329.85668855 225.0625 307.16015625 C222.75633361 307.16015625 220.77479692 307.59858379 218.515625 308.078125 Z M75.0625 319.16015625 C76.56340581 322.16196788 77.73267471 324.17826237 79.78515625 326.69921875 C80.58675171 327.68680176 80.58675171 327.68680176 81.40454102 328.69433594 C82.25616821 329.72929199 82.25616821 329.72929199 83.125 330.78515625 C83.70628662 331.49575195 84.28757324 332.20634766 84.88647461 332.93847656 C90.65794524 339.9543683 96.59885017 346.7684847 103.0625 353.16015625 C109.86136929 346.11628266 116.24093086 338.88117206 122.1875 331.09765625 C122.74332764 330.37199463 123.29915527 329.64633301 123.87182617 328.89868164 C126.30053743 325.67861373 128.24264195 322.79987234 130.0625 319.16015625 C111.9125 319.16015625 93.7625 319.16015625 75.0625 319.16015625 Z " fill="#52C0DE" transform="translate(147.9375,29.83984375)"/>
<path d="M0 0 C10.97352487 7.47991287 16.54644495 16.65691743 20.609375 29.15625 C22.84977624 41.39925069 20.83256588 53.45598168 14.24609375 64.01953125 C6.43356785 74.7666129 -2.96693907 81.16549144 -16.00390625 84.26953125 C-31.30380838 85.63587765 -43.18522078 82.33423423 -55.125 72.52734375 C-63.28439772 65.09288307 -68.44020627 54.45121538 -69.3046875 43.4375 C-69.34795078 28.74240545 -66.11411198 17.10603014 -55.93359375 6.1171875 C-41.14601694 -8.04176762 -17.59736804 -10.13736547 0 0 Z " fill="#52C1DE" transform="translate(274.00390625,209.73046875)"/>
</svg>
