<?xml version="1.0" encoding="UTF-8"?>
<svg version="1.1" xmlns="http://www.w3.org/2000/svg" width="500" height="500">
<path d="M0 0 C2.55716142 0.09181908 3.81897423 0.26272011 5.79296875 1.921875 C7.43748056 4.0777056 8.83525838 6.31057636 10.25 8.625 C11.03653615 9.82023647 11.82720419 11.01276005 12.62109375 12.203125 C19.25 22.22984652 19.25 22.22984652 19.25 24.625 C22.86018081 24.57421741 25.17790914 24.46884485 28.05957031 22.20068359 C29.90925865 20.29508398 31.65358881 18.33468523 33.375 16.3125 C41.38468168 7.18215787 41.38468168 7.18215787 45.25 4.625 C48.875 4.625 48.875 4.625 52.25 5.625 C54.80831991 8.41610785 55.94823974 11.17813617 57.08203125 14.7578125 C57.40623047 15.72847656 57.73042969 16.69914062 58.06445312 17.69921875 C58.73100685 19.73670784 59.38463224 21.77847088 60.02539062 23.82421875 C61.88744134 29.52258065 61.88744134 29.52258065 66.0078125 33.66015625 C70.98076918 33.60623262 73.59592052 31.03638466 77.3125 27.9375 C78.69770502 26.82753535 80.08438853 25.71941289 81.47265625 24.61328125 C82.12387451 24.09016357 82.77509277 23.5670459 83.44604492 23.02807617 C86.68650736 20.5077165 89.22989577 18.77072918 93.3125 18.1875 C97.16063309 18.7606262 97.91779063 19.50142218 100.25 22.625 C101.32320024 26.02970037 101.91226371 29.48321727 102.5 33 C102.67273438 33.93328125 102.84546875 34.8665625 103.0234375 35.828125 C103.85294759 40.47601484 104.47197677 44.88421042 104.25 49.625 C111.07328679 51.46812522 115.27164961 49.29441694 121.4375 46.25 C123.20055052 45.40619047 124.96482987 44.56494249 126.73046875 43.7265625 C127.88905396 43.15929443 127.88905396 43.15929443 129.07104492 42.58056641 C132.41131413 41.11571333 134.33105138 40.34056352 137.875 41.4375 C140.25 42.625 140.25 42.625 142.25 44.625 C142.53710938 47.48242187 142.53710938 47.48242187 142.59375 51.09375 C142.63822266 53.03314453 142.63822266 53.03314453 142.68359375 55.01171875 C142.71853721 57.07239848 142.75012448 59.13311448 142.78173828 61.19384766 C142.81544276 63.18146267 142.86067702 65.16887169 142.90625 67.15625 C142.92494141 68.34798828 142.94363281 69.53972656 142.96289062 70.76757812 C142.95868267 73.75559673 142.95868267 73.75559673 145.25 75.625 C150.63101015 75.36036016 155.58477024 74.33903866 160.8125 73.0625 C165.84256422 71.87549886 170.1038133 70.97003078 175.25 71.625 C177.75 73.1875 177.75 73.1875 179.25 75.625 C179.63849551 81.16106101 178.64298723 85.89320732 177.25 91.1875 C174.94701281 99.86085236 174.94701281 99.86085236 176.25 108.625 C177.14307861 108.60928955 178.03615723 108.5935791 178.95629883 108.57739258 C182.27178756 108.52624561 185.58685675 108.48864188 188.90258789 108.46020508 C190.33722552 108.44512411 191.77181708 108.4246562 193.20629883 108.39868164 C195.26915859 108.36226563 197.33140858 108.34526757 199.39453125 108.33203125 C200.63565674 108.3163208 201.87678223 108.30061035 203.15551758 108.28442383 C206.25 108.625 206.25 108.625 208.14892578 109.92089844 C210.13271673 112.99115583 209.83642074 116.16870499 209.25 119.625 C207.65977343 124.02329051 205.48109868 128.12952204 203.36132812 132.29101562 C200.76532183 137.64246797 199.6797301 140.80947779 201.25 146.625 C201.94222656 146.66238281 202.63445312 146.69976562 203.34765625 146.73828125 C209.41164252 147.14574278 215.34527146 147.87181289 221.3125 149 C222.56160156 149.23460937 223.81070312 149.46921875 225.09765625 149.7109375 C228.17058365 150.60197221 229.41933662 151.06969903 231.25 153.625 C232.1875 156.375 232.1875 156.375 232.25 159.625 C229.17497732 165.70148022 225.12574142 170.89895063 220.87695312 176.1953125 C220.39548828 176.824375 219.91402344 177.4534375 219.41796875 178.1015625 C218.75704224 178.9380835 218.75704224 178.9380835 218.08276367 179.79150391 C216.87406716 182.45269148 217.24000688 183.92257118 218.25 186.625 C220.10750795 187.99082851 220.10750795 187.99082851 222.51171875 188.7578125 C223.38376953 189.08910156 224.25582031 189.42039063 225.15429688 189.76171875 C226.07275391 190.08785156 226.99121094 190.41398438 227.9375 190.75 C229.73389913 191.41705 231.5294935 192.08627187 233.32421875 192.7578125 C234.17491943 193.07572754 235.02562012 193.39364258 235.90209961 193.72119141 C243.86108846 196.78495107 243.86108846 196.78495107 245.8125 201 C246.25 204.625 246.25 204.625 245.375 207.0625 C240.42256891 213.03454925 234.74278494 218.19271521 228.81640625 223.1796875 C227.13496233 224.56000379 227.13496233 224.56000379 226.25 226.625 C226.2103287 228.29119446 226.20615553 229.95891013 226.25 231.625 C226.89582031 231.8415625 227.54164063 232.058125 228.20703125 232.28125 C232.40758117 234.13617833 236.10566476 236.60944404 239.9375 239.125 C240.70900391 239.62386719 241.48050781 240.12273437 242.27539062 240.63671875 C247.97550517 244.35050517 247.97550517 244.35050517 250.25 246.625 C250.7865328 249.84419678 251.05088249 251.56551365 250.25 254.625 C247.18675999 258.37106751 242.57090186 260.44908962 238.4140625 262.78515625 C237.73996338 263.17131104 237.06586426 263.55746582 236.37133789 263.95532227 C235.01520143 264.7257776 233.64714214 265.47566909 232.26733398 266.20288086 C229.21001032 267.92031678 227.43555039 269.27180756 225.79296875 272.3984375 C226.55342015 277.76709441 230.53350713 280.32929655 234.5 283.75 C236.07001195 285.14585076 237.63780338 286.54420398 239.203125 287.9453125 C239.90598633 288.55648926 240.60884766 289.16766602 241.33300781 289.79736328 C243.26875854 291.64288416 244.83352556 293.35452389 246.25 295.625 C246.1875 299.1875 246.1875 299.1875 245.25 302.625 C242.46540881 305.18934325 239.6951733 306.32377518 236.1171875 307.45703125 C235.14652344 307.78123047 234.17585938 308.10542969 233.17578125 308.43945312 C231.13829216 309.10600685 229.09652912 309.75963224 227.05078125 310.40039062 C221.37840779 312.26990033 221.37840779 312.26990033 217.1796875 316.3125 C217.29226698 321.61624434 220.29728353 324.75813715 223.5 328.8125 C224.11230469 329.61880859 224.72460938 330.42511719 225.35546875 331.25585938 C226.49341451 332.75361512 227.64001522 334.24486185 228.79785156 335.72729492 C232.26934305 340.26392965 232.26934305 340.26392965 232.0625 344.125 C231.02704332 348.58542876 231.02704332 348.58542876 228.25 350.625 C225.09765625 351.5390625 225.09765625 351.5390625 221.3125 352.25 C220.65241943 352.37479736 219.99233887 352.49959473 219.31225586 352.62817383 C213.3252495 353.71272949 207.32494382 354.29693041 201.25 354.625 C199.41240192 361.43057682 201.57669644 365.45542909 204.6875 371.5625 C207.85235546 377.80286136 210.19161498 382.53565084 209.25 389.625 C208.14892578 391.32910156 208.14892578 391.32910156 206.25 392.625 C203.15551758 392.96557617 203.15551758 392.96557617 199.39453125 392.91796875 C198.73289474 392.91372391 198.07125824 392.90947906 197.38957214 392.90510559 C195.2801309 392.88833693 193.17165154 392.85069099 191.0625 392.8125 C189.63087319 392.79745068 188.19923138 392.7837627 186.76757812 392.77148438 C183.26140712 392.7384403 179.75579746 392.68667167 176.25 392.625 C175.15215923 398.75633715 175.51081793 403.16708119 177.1875 409.125 C178.75288782 414.7975935 179.61298511 419.71534775 179.25 425.625 C177.75 428.125 177.75 428.125 175.25 429.625 C169.31672497 429.98420368 164.27841042 429.13698345 158.5625 427.625 C150.44352247 425.41387208 150.44352247 425.41387208 142.25 426.625 C142.26571045 427.51807861 142.2814209 428.41115723 142.29760742 429.33129883 C142.34875439 432.64678756 142.38635812 435.96185675 142.41479492 439.27758789 C142.42987589 440.71222552 142.4503438 442.14681708 142.47631836 443.58129883 C142.51273437 445.64415859 142.52973243 447.70640858 142.54296875 449.76953125 C142.5586792 451.01065674 142.57438965 452.25178223 142.59057617 453.53051758 C142.25 456.625 142.25 456.625 140.95410156 458.52392578 C137.88384417 460.50771673 134.70629501 460.21142074 131.25 459.625 C126.85170949 458.03477343 122.74547796 455.85609868 118.58398438 453.73632812 C113.23253203 451.14032183 110.06552221 450.0547301 104.25 451.625 C104.21261719 452.31722656 104.17523438 453.00945312 104.13671875 453.72265625 C103.73134628 459.75555249 103.02804651 465.68141197 101.9375 471.625 C101.71449219 472.8625 101.49148438 474.1 101.26171875 475.375 C100.14497251 478.96238561 99.33865548 480.49855905 96.25 482.625 C93.05225262 483.34736883 91.13999621 483.11285139 88.25732422 481.53271484 C86.00711016 480.02931469 83.84493235 478.44611908 81.6875 476.8125 C74.24540891 470.31306534 74.24540891 470.31306534 65.4375 467.9375 C64.715625 468.164375 63.99375 468.39125 63.25 468.625 C63.10304688 469.17285156 62.95609375 469.72070312 62.8046875 470.28515625 C61.24358121 475.80285953 59.40215981 481.20111034 57.375 486.5625 C57.02671143 487.5381189 57.02671143 487.5381189 56.67138672 488.53344727 C55.49421446 491.56345857 54.4020964 493.49364401 51.9296875 495.62890625 C48.45302144 496.92125296 46.77124388 496.79268991 43.25 495.625 C40.50390625 493.40234375 40.50390625 493.40234375 37.8125 490.5625 C37.33659424 490.07096436 36.86068848 489.57942871 36.37036133 489.07299805 C33.56524688 486.14714151 30.98007419 483.090292 28.4375 479.9375 C25.86393157 476.88404581 25.86393157 476.88404581 21.8125 476.125 C20.966875 476.29 20.12125 476.455 19.25 476.625 C18.92515625 477.59373047 18.92515625 477.59373047 18.59375 478.58203125 C16.73882167 482.78258117 14.26555596 486.48066476 11.75 490.3125 C11.25113281 491.08400391 10.75226563 491.85550781 10.23828125 492.65039062 C6.52449483 498.35050517 6.52449483 498.35050517 4.25 500.625 C1.0309341 501.16151098 -0.69149005 501.4313868 -3.75 500.625 C-6.39253252 498.4039347 -7.96234825 495.54947993 -9.75 492.625 C-10.53653615 491.42976353 -11.32720419 490.23723995 -12.12109375 489.046875 C-18.75 479.02015348 -18.75 479.02015348 -18.75 476.625 C-21.40104688 475.92269398 -21.40104688 475.92269398 -24.75 476.625 C-27.80973678 479.07418232 -30.30532228 481.98880673 -32.875 484.9375 C-34.27078271 486.49847167 -35.6691336 488.05715156 -37.0703125 489.61328125 C-37.68148926 490.30977783 -38.29266602 491.00627441 -38.92236328 491.72387695 C-40.76996891 493.64577183 -42.48779349 495.21119022 -44.75 496.625 C-48.3125 496.5625 -48.3125 496.5625 -51.75 495.625 C-54.20698938 492.91365685 -55.50898606 490.11179153 -56.79296875 486.7109375 C-57.14423828 485.78539062 -57.49550781 484.85984375 -57.85742188 483.90625 C-58.21384766 482.9471875 -58.57027344 481.988125 -58.9375 481 C-59.30552734 480.03320312 -59.67355469 479.06640625 -60.05273438 478.0703125 C-62.75 470.90429325 -62.75 470.90429325 -62.75 468.625 C-65.28802184 467.48837705 -65.28802184 467.48837705 -68.75 467.625 C-72.17802317 469.54828269 -75.14576017 472.02189766 -78.1875 474.5 C-88.68478422 482.99348213 -88.68478422 482.99348213 -94.75 482.625 C-98.42957976 480.67339968 -99.51229986 479.32136097 -100.859375 475.375 C-101.07078125 474.1375 -101.2821875 472.9 -101.5 471.625 C-101.61577393 470.96943115 -101.73154785 470.3138623 -101.85083008 469.63842773 C-102.85843482 463.67008508 -103.42367232 457.66768843 -103.75 451.625 C-110.55557682 449.78740192 -114.58042909 451.95169644 -120.6875 455.0625 C-126.92786136 458.22735546 -131.66065084 460.56661498 -138.75 459.625 C-140.45410156 458.52392578 -140.45410156 458.52392578 -141.75 456.625 C-142.09057617 453.53051758 -142.09057617 453.53051758 -142.04296875 449.76953125 C-142.03872391 449.10789474 -142.03447906 448.44625824 -142.03010559 447.76457214 C-142.01333693 445.6551309 -141.97569099 443.54665154 -141.9375 441.4375 C-141.92245068 440.00587319 -141.9087627 438.57423138 -141.89648438 437.14257812 C-141.8634403 433.63640712 -141.81167167 430.13079746 -141.75 426.625 C-147.88133715 425.52715923 -152.29208119 425.88581793 -158.25 427.5625 C-163.9225935 429.12788782 -168.84034775 429.98798511 -174.75 429.625 C-177.25 428.125 -177.25 428.125 -178.75 425.625 C-179.10920368 419.69172497 -178.26198345 414.65341042 -176.75 408.9375 C-174.90254075 402.37420795 -174.90254075 402.37420795 -174.75 395.625 C-177.53473903 392.84026097 -179.28815009 393.35691484 -183.18359375 393.31640625 C-184.47201172 393.29126953 -185.76042969 393.26613281 -187.08789062 393.24023438 C-189.13971784 393.21148078 -191.19146505 393.18746374 -193.2434082 393.16870117 C-195.22364527 393.14705014 -197.2036539 393.10697473 -199.18359375 393.06640625 C-200.37009521 393.05295166 -201.55659668 393.03949707 -202.77905273 393.02563477 C-205.75 392.625 -205.75 392.625 -207.63085938 391.31982422 C-209.6469218 388.26670351 -209.3362151 385.08008301 -208.75 381.625 C-207.15977343 377.22670949 -204.98109868 373.12047796 -202.86132812 368.95898438 C-200.26532183 363.60753203 -199.1797301 360.44052221 -200.75 354.625 C-201.44222656 354.58761719 -202.13445312 354.55023438 -202.84765625 354.51171875 C-208.88055249 354.10634628 -214.80641197 353.40304651 -220.75 352.3125 C-221.9875 352.08949219 -223.225 351.86648438 -224.5 351.63671875 C-228.08738561 350.51997251 -229.62355905 349.71365548 -231.75 346.625 C-232.47236883 343.42725262 -232.23785139 341.51499621 -230.65771484 338.63232422 C-229.15431469 336.38211016 -227.57111908 334.21993235 -225.9375 332.0625 C-219.43806534 324.62040891 -219.43806534 324.62040891 -217.0625 315.8125 C-217.4028125 314.7296875 -217.4028125 314.7296875 -217.75 313.625 C-218.29785156 313.47804688 -218.84570312 313.33109375 -219.41015625 313.1796875 C-224.92785953 311.61858121 -230.32611034 309.77715981 -235.6875 307.75 C-236.3379126 307.51780762 -236.9883252 307.28561523 -237.65844727 307.04638672 C-240.68845857 305.86921446 -242.61864401 304.7770964 -244.75390625 302.3046875 C-246.04625296 298.82802144 -245.91768991 297.14624388 -244.75 293.625 C-242.52734375 290.87890625 -242.52734375 290.87890625 -239.6875 288.1875 C-239.19596436 287.71159424 -238.70442871 287.23568848 -238.19799805 286.74536133 C-235.27214151 283.94024688 -232.215292 281.35507419 -229.0625 278.8125 C-226.00904581 276.23893157 -226.00904581 276.23893157 -225.25 272.1875 C-225.415 271.341875 -225.58 270.49625 -225.75 269.625 C-226.71873047 269.30015625 -226.71873047 269.30015625 -227.70703125 268.96875 C-231.90758117 267.11382167 -235.60566476 264.64055596 -239.4375 262.125 C-240.20900391 261.62613281 -240.98050781 261.12726563 -241.77539062 260.61328125 C-247.47550517 256.89949483 -247.47550517 256.89949483 -249.75 254.625 C-250.36404332 251.33149494 -250.64758881 249.74383708 -249.75 246.625 C-247.18466929 243.65359936 -244.05021004 241.71242794 -240.75 239.625 C-240.19892578 239.26809082 -239.64785156 238.91118164 -239.08007812 238.54345703 C-228.38493645 231.625 -228.38493645 231.625 -225.75 231.625 C-225.16060103 228.92299579 -225.16060103 228.92299579 -225.75 225.625 C-227.75906077 222.93396448 -230.21878421 220.81776697 -232.75 218.625 C-233.79220703 217.70460937 -233.79220703 217.70460937 -234.85546875 216.765625 C-237.6149424 214.34267253 -240.38412751 211.93458442 -243.1875 209.5625 C-245.33694208 206.89719182 -245.68049419 205.03078474 -245.75 201.625 C-243.76018987 197.30050151 -241.9078889 195.82329466 -237.49609375 194.16796875 C-236.47708984 193.77802734 -235.45808594 193.38808594 -234.40820312 192.98632812 C-233.34537109 192.59896484 -232.28253906 192.21160156 -231.1875 191.8125 C-230.12080078 191.40580078 -229.05410156 190.99910156 -227.95507812 190.58007812 C-220.11294643 187.625 -220.11294643 187.625 -217.75 187.625 C-216.66198429 185.07078547 -216.66198429 185.07078547 -216.75 181.625 C-218.47929064 178.28190872 -220.75365518 175.3998368 -223.0625 172.4375 C-223.97418945 171.22803711 -223.97418945 171.22803711 -224.90429688 169.99414062 C-226.03267133 168.49752049 -227.16839237 167.00639095 -228.3137207 165.52270508 C-231.76788433 160.95884075 -231.76788433 160.95884075 -231.5625 157.125 C-230.73738184 153.57064484 -230.49670021 152.7609801 -227.75 150.625 C-225.5769043 149.91723633 -225.5769043 149.91723633 -223.07421875 149.45703125 C-221.70813477 149.20083008 -221.70813477 149.20083008 -220.31445312 148.93945312 C-218.89036133 148.69098633 -218.89036133 148.69098633 -217.4375 148.4375 C-216.49970703 148.26025391 -215.56191406 148.08300781 -214.59570312 147.90039062 C-209.92757551 147.04835042 -205.51659257 146.39345698 -200.75 146.625 C-198.91240192 139.81942318 -201.07669644 135.79457091 -204.1875 129.6875 C-207.35235546 123.44713864 -209.69161498 118.71434916 -208.75 111.625 C-207.63085938 109.93017578 -207.63085938 109.93017578 -205.75 108.625 C-202.77905273 108.22436523 -202.77905273 108.22436523 -199.18359375 108.18359375 C-197.2490332 108.14395508 -197.2490332 108.14395508 -195.27539062 108.10351562 C-193.91277327 108.08861737 -192.55014183 108.07495973 -191.1875 108.0625 C-188.51902794 108.03121032 -185.85185285 107.98565083 -183.18359375 107.93359375 C-181.99822021 107.92126709 -180.81284668 107.90894043 -179.59155273 107.89624023 C-176.61713095 107.91660812 -176.61713095 107.91660812 -174.75 105.625 C-174.52097906 100.15030903 -175.91325427 94.75050303 -177.3125 89.5 C-178.57777984 84.62679349 -179.3771735 80.64238797 -178.75 75.625 C-177.25 73.125 -177.25 73.125 -174.75 71.625 C-168.81672497 71.26579632 -163.77841042 72.11301655 -158.0625 73.625 C-151.49920795 75.47245925 -151.49920795 75.47245925 -144.75 75.625 C-141.96526097 72.84026097 -142.48191484 71.08684991 -142.44140625 67.19140625 C-142.41626953 65.90298828 -142.39113281 64.61457031 -142.36523438 63.28710938 C-142.33648078 61.23528216 -142.31246374 59.18353495 -142.29370117 57.1315918 C-142.27205014 55.15135473 -142.23197473 53.1713461 -142.19140625 51.19140625 C-142.17795166 50.00490479 -142.16449707 48.81840332 -142.15063477 47.59594727 C-141.75 44.625 -141.75 44.625 -140.44482422 42.74414062 C-137.39170351 40.7280782 -134.20508301 41.0387849 -130.75 41.625 C-126.35170949 43.21522657 -122.24547796 45.39390132 -118.08398438 47.51367188 C-112.73253203 50.10967817 -109.56552221 51.1952699 -103.75 49.625 C-103.69392578 48.58666016 -103.69392578 48.58666016 -103.63671875 47.52734375 C-103.23134628 41.49444751 -102.52804651 35.56858803 -101.4375 29.625 C-101.21449219 28.3875 -100.99148437 27.15 -100.76171875 25.875 C-99.64497251 22.28761439 -98.83865548 20.75144095 -95.75 18.625 C-92.55225262 17.90263117 -90.63999621 18.13714861 -87.75732422 19.71728516 C-85.50711016 21.22068531 -83.34493235 22.80388092 -81.1875 24.4375 C-73.74540891 30.93693466 -73.74540891 30.93693466 -64.9375 33.3125 C-64.215625 33.085625 -63.49375 32.85875 -62.75 32.625 C-62.60304687 32.07714844 -62.45609375 31.52929688 -62.3046875 30.96484375 C-60.74358121 25.44714047 -58.90215981 20.04888966 -56.875 14.6875 C-56.64280762 14.0370874 -56.41061523 13.3866748 -56.17138672 12.71655273 C-54.99421446 9.68654143 -53.9020964 7.75635599 -51.4296875 5.62109375 C-47.95302144 4.32874704 -46.27124388 4.45731009 -42.75 5.625 C-40.00390625 7.84765625 -40.00390625 7.84765625 -37.3125 10.6875 C-36.83659424 11.17903564 -36.36068848 11.67057129 -35.87036133 12.17700195 C-33.06524688 15.10285849 -30.48007419 18.159708 -27.9375 21.3125 C-25.36393157 24.36595419 -25.36393157 24.36595419 -21.3125 25.125 C-20.466875 24.96 -19.62125 24.795 -18.75 24.625 C-18.5334375 23.97917969 -18.316875 23.33335938 -18.09375 22.66796875 C-16.23882167 18.46741883 -13.76555596 14.76933524 -11.25 10.9375 C-10.75113281 10.16599609 -10.25226563 9.39449219 -9.73828125 8.59960938 C-4.63914772 0.77319129 -4.63914772 0.77319129 0 0 Z M-12.75 51.625 C-15.00381019 55.1935328 -15.08543599 58.3915452 -14.421875 62.5625 C-12.89653057 67.24495266 -9.48994235 70.49638875 -5.4375 73.125 C-0.19579849 74.10020028 4.46618262 73.63324461 9.125 71 C12.71399446 66.9887709 14.28239047 63.47125703 14.1875 58.0625 C12.87131317 53.23648161 10.87363426 50.05761847 7.125 46.75 C-0.904712 43.60793878 -7.28647381 44.97029804 -12.75 51.625 Z M-121.75 113.625 C-123.77684279 115.37153474 -125.81410221 117.10397517 -127.86328125 118.82421875 C-129.51105398 120.39693765 -130.92154808 121.98432142 -132.36791992 123.73754883 C-133.15400635 124.69040771 -133.94009277 125.6432666 -134.75 126.625 C-133.73915596 126.62646656 -132.72831192 126.62793312 -131.68683624 126.62944412 C-107.03776194 126.66611499 -82.38882272 126.72566374 -57.73986053 126.80890274 C-45.81957284 126.84863314 -33.89935058 126.88105607 -21.97900391 126.89599609 C-11.58358537 126.90904374 -1.1883112 126.93608764 9.207026 126.97961307 C14.70616991 127.00215792 20.20513623 127.01791488 25.70433044 127.01688385 C30.8918479 127.0161331 36.07897381 127.03424913 41.26638985 127.06616783 C43.1592435 127.07461087 45.05214137 127.07645533 46.94500542 127.07080269 C70.5774756 127.0096889 92.02888423 132.95693363 109.625 149.5 C121.05360931 161.65193901 125.684214 175.31082966 125.5234375 191.7421875 C124.43777733 207.15856189 114.99349165 219.18325984 103.93066406 229.19824219 C99.3423925 233.09334082 94.31595363 236.38932639 89.25 239.625 C92.37947333 242.83229327 95.59386471 245.73267638 99.0625 248.5625 C109.44716586 257.89477052 114.06665157 270.58864027 116.9765625 283.96484375 C118.20706544 290.06769683 118.20706544 290.06769683 121.5 295.1875 C122.4075 295.661875 123.315 296.13625 124.25 296.625 C125.260625 297.2025 126.27125 297.78 127.3125 298.375 C133.89347866 300.97011359 141.59987161 300.61964491 148.125 298.0625 C153.40788688 295.35873575 156.72546007 291.3836913 159.5625 286.25 C161.59467905 278.49077088 161.34157001 270.59159108 161.25 262.625 C168.18 262.625 175.11 262.625 182.25 262.625 C182.25 252.395 182.25 242.165 182.25 231.625 C171.74854091 226.26012416 161.10134864 221.33817694 150.31787109 216.56713867 C143.20986399 213.32867357 143.20986399 213.32867357 141.25 208.625 C140.38260692 201.30737545 141.88229709 195.86193242 145.0390625 189.328125 C145.42113861 188.49085876 145.80321472 187.65359253 146.1968689 186.79095459 C147.81579656 183.24435369 149.47812063 179.71863723 151.13769531 176.19091797 C152.3498649 173.59782576 153.53865612 170.99489946 154.7265625 168.390625 C155.10873932 167.59988586 155.49091614 166.80914673 155.88467407 165.9944458 C157.57251129 162.28630572 158.39861329 160.40585338 157.62011719 156.31542969 C156.45656458 154.03062041 155.32404288 151.90740429 153.8515625 149.8125 C153.37823486 149.13638672 152.90490723 148.46027344 152.41723633 147.76367188 C151.90829834 147.05791016 151.39936035 146.35214844 150.875 145.625 C150.07968872 144.5122168 150.07968872 144.5122168 149.26831055 143.37695312 C143.99566 136.10304431 138.30436261 129.25784677 132.25 122.625 C131.50363281 121.80644531 130.75726563 120.98789063 129.98828125 120.14453125 C124.16457857 114.06247577 117.61017999 108.96116783 110.91210938 103.89013672 C109.46493115 102.78859771 108.03549957 101.66381993 106.609375 100.53515625 C91.28359848 88.75165827 73.44791017 80.8202953 55.25 74.625 C53.81382324 74.12323242 53.81382324 74.12323242 52.34863281 73.61132812 C41.89167011 69.73308015 41.89167011 69.73308015 31.24609375 70.8046875 C29.06763623 72.70680033 27.31619085 74.65862491 25.57714844 76.96386719 C22.83382362 80.39756514 19.61014582 83.4026284 16.5 86.5 C15.87303223 87.15387695 15.24606445 87.80775391 14.60009766 88.48144531 C10.53566752 92.65946745 6.835668 95.96165142 0.90625 97.05859375 C-6.65319013 97.07228839 -10.37473194 94.04528003 -15.6875 88.875 C-18.92844537 85.55395521 -21.984085 82.10114581 -25.015625 78.58984375 C-27.76882795 75.47078725 -30.56728217 72.31225516 -33.75 69.625 C-64.40273003 69.625 -100.456803 93.49748897 -121.75 113.625 Z M-188.0625 184.5625 C-191.29090625 188.50832986 -192.21848526 191.35655805 -192.0625 196.6015625 C-191.3405793 201.27599901 -188.47279466 203.98625123 -185.0625 207 C-180.77399882 209.10379303 -177.44076709 209.44188403 -172.75 208.625 C-168.34633645 206.54780021 -165.56978705 203.91493904 -163.38671875 199.61328125 C-162.15448203 195.76537639 -162.50223727 192.42866382 -163.75 188.625 C-165.74337292 184.89979599 -168.0314843 182.40784472 -171.90234375 180.64453125 C-178.36504449 178.82171822 -182.88201475 180.22209344 -188.0625 184.5625 Z M163.875 187.375 C161.92925999 191.26648002 161.44212235 194.39792298 162.25 198.625 C163.61979781 202.30221123 165.48441732 205.00425729 168.5625 207.5 C173.3766725 209.515235 176.82016211 210.04409042 181.875 208.5625 C186.19133634 206.08460321 189.21253896 203.55537241 190.91796875 198.73828125 C191.85209529 194.03065345 190.98618545 190.52562401 188.609375 186.390625 C185.84840321 182.8045352 182.65339071 181.07127758 178.23046875 180.25 C171.6135826 179.84514272 168.03040685 182.56347628 163.875 187.375 Z M-147.75 182.625 C-146.90650552 186.8424724 -145.92509449 189.57368314 -144.125 193.375 C-141.88371163 198.65664477 -140.62384666 203.11392593 -142.75 208.625 C-145.93949676 213.85017041 -150.23512162 215.66274739 -155.625 218.0625 C-156.46474365 218.45083008 -157.3044873 218.83916016 -158.16967773 219.23925781 C-162.0924703 221.03939492 -166.03426195 222.76339378 -170.04296875 224.36328125 C-170.68443848 224.62246338 -171.3259082 224.88164551 -171.98681641 225.14868164 C-173.70379108 225.83175193 -175.43169771 226.48715876 -177.16015625 227.140625 C-180.4147369 229.00599551 -180.6775524 230.08164536 -181.75 233.625 C-182.07225589 236.87687035 -182.07225589 236.87687035 -182.05078125 240.41015625 C-182.05628998 241.05953156 -182.06179871 241.70890686 -182.06747437 242.37796021 C-182.07915106 244.48136185 -182.07285629 246.58409781 -182.0625 248.6875 C-182.06134186 249.4047525 -182.06018372 250.122005 -182.05899048 250.86099243 C-182.00581246 267.48852888 -179.49752235 282.38573647 -175.75 298.625 C-158.59 298.625 -141.43 298.625 -123.75 298.625 C-123.75 260.345 -123.75 222.065 -123.75 182.625 C-131.67 182.625 -139.59 182.625 -147.75 182.625 Z M-40.75 183.625 C-40.75 194.845 -40.75 206.065 -40.75 217.625 C-29.61916315 217.71240785 -29.61916315 217.71240785 -18.48828125 217.77148438 C-13.94146077 217.78934583 -9.39482332 217.81036504 -4.84814453 217.85131836 C-1.17821638 217.88416373 2.49151522 217.90190541 6.16157913 217.90963173 C7.55447097 217.91513047 8.94735333 217.92586686 10.34016037 217.94219017 C20.88400614 218.06072962 30.80450168 217.62858397 39.25 210.625 C42.31712676 207.04668545 42.96174414 203.57539065 42.78515625 198.96875 C41.7404796 194.39352378 38.82300809 191.50687879 35.25 188.625 C29.00185773 184.99772278 23.2054172 183.49708917 16.01269531 183.51147461 C14.12118744 183.51158791 14.12118744 183.51158791 12.19146729 183.51170349 C10.82035279 183.51680972 9.44923869 183.5220257 8.078125 183.52734375 C6.67136689 183.52920972 5.26460812 183.53063278 3.85784912 183.53163147 C0.16219273 183.53544256 -3.53342413 183.5452608 -7.22906494 183.55633545 C-11.00296484 183.56657986 -14.77687134 183.57119043 -18.55078125 183.57617188 C-25.95055571 183.58635318 -33.35022171 183.60592841 -40.75 183.625 Z M-40.75 267.625 C-40.75 278.515 -40.75 289.405 -40.75 300.625 C-25.57 300.625 -10.39 300.625 5.25 300.625 C5.25 319.435 5.25 338.245 5.25 357.625 C-44.58 357.625 -94.41 357.625 -145.75 357.625 C-142.92741417 361.85887874 -140.45650731 365.21732601 -137.0625 368.875 C-132.84964413 373.42571174 -132.84964413 373.42571174 -131.75 375.625 C-123.68997873 374.90818322 -116.0392143 373.18843295 -108.18945312 371.265625 C-100.80214833 369.55973113 -95.3576818 368.63970765 -88.44921875 372.44140625 C-84.2643126 376.39421074 -83.67616859 382.14756041 -82.5625 387.5625 C-82.30315674 388.68317871 -82.04381348 389.80385742 -81.77661133 390.95849609 C-80.70199889 395.67395965 -79.69058764 400.31071026 -79.3046875 405.13671875 C-78.92830925 408.84044092 -78.574313 411.37440592 -76.75 414.625 C-71.45694436 418.20503036 -65.84420505 419.86468658 -59.75 421.625 C-58.02911005 422.16923268 -56.30906582 422.71614624 -54.58984375 423.265625 C-43.45308196 426.72232522 -32.29997976 429.08346884 -20.75 430.625 C-19.80640625 430.75648438 -18.8628125 430.88796875 -17.890625 431.0234375 C12.72437175 434.5413098 47.54286875 429.47856562 75.25 415.625 C76.05050662 413.21263869 76.05050662 413.21263869 76.65234375 410.26171875 C76.90306641 409.14603516 77.15378906 408.03035156 77.41210938 406.88085938 C77.66798828 405.70330078 77.92386719 404.52574219 78.1875 403.3125 C81.31572107 389.22350434 81.31572107 389.22350434 82.82421875 382.96484375 C83.05326904 382.01085693 83.28231934 381.05687012 83.51831055 380.07397461 C84.79890705 375.78780058 86.72275745 373.49181334 90.5625 371.3125 C96.14274974 369.88499425 101.41201196 370.69086943 106.953125 371.9375 C108.1803125 372.20820313 109.4075 372.47890625 110.671875 372.7578125 C111.93515625 373.04398437 113.1984375 373.33015625 114.5 373.625 C117.02544557 374.19017028 119.55146229 374.75279624 122.078125 375.3125 C123.1909082 375.56386719 124.30369141 375.81523437 125.45019531 376.07421875 C128.26501962 376.72151093 128.26501962 376.72151093 131.25 376.625 C132.88852007 375.20557211 132.88852007 375.20557211 134.4375 373.25 C135.34242188 372.16912109 135.34242188 372.16912109 136.265625 371.06640625 C136.92046875 370.26074219 137.5753125 369.45507812 138.25 368.625 C138.98734375 367.72652344 139.7246875 366.82804687 140.484375 365.90234375 C144.19701715 362.12145442 144.19701715 362.12145442 146.25 357.625 C144.75448608 357.62286247 144.75448608 357.62286247 143.22875977 357.62068176 C133.81269755 357.60398047 124.39706577 357.56111137 114.98123169 357.49290943 C110.14090838 357.45868262 105.30089925 357.43353616 100.46044922 357.42944336 C95.78524314 357.42515116 91.11074529 357.39661227 86.4357605 357.35156822 C84.6561191 357.33862261 82.87639282 357.3342751 81.09671021 357.33884621 C70.23757122 357.3602331 63.30952649 357.04139267 54.89453125 349.51953125 C54.28996094 348.83246094 53.68539062 348.14539063 53.0625 347.4375 C52.14404297 346.42623047 52.14404297 346.42623047 51.20703125 345.39453125 C45.78631259 337.72329466 43.19247068 329.72187472 41.1875 320.625 C40.93492432 319.53501709 40.68234863 318.44503418 40.42211914 317.32202148 C39.27538913 312.34213532 38.18348827 307.35351192 37.15625 302.34765625 C34.74648193 290.662667 32.09343764 280.25620114 22.25 272.625 C16.40571435 268.97371297 10.99668029 267.49399575 4.0925293 267.51147461 C3.09186935 267.51155014 2.09120941 267.51162567 1.06022644 267.51170349 C-0.54159737 267.51944542 -0.54159737 267.51944542 -2.17578125 267.52734375 C-3.82987251 267.52946617 -3.82987251 267.52946617 -5.51737976 267.53163147 C-9.03244767 267.53721996 -12.54745141 267.54977041 -16.0625 267.5625 C-18.44856679 267.56751648 -20.83463457 267.57207913 -23.22070312 267.57617188 C-29.06384657 267.58633386 -34.90685163 267.60591168 -40.75 267.625 Z M-122.15234375 394.16796875 C-125.03780158 398.65531775 -125.41642394 402.37691147 -124.75 407.625 C-122.35178971 412.42142058 -119.54642058 415.22678971 -114.75 417.625 C-109.50991369 418.29040779 -105.76581002 417.92658267 -101.296875 415.015625 C-97.85607497 411.92238053 -96.03014278 408.1607752 -95.5234375 403.57421875 C-95.77254567 398.63996072 -97.77412453 395.55825616 -101.13671875 392.03515625 C-103.94871832 389.5772099 -106.44527124 388.83657764 -110.0625 388.25 C-114.7301931 388.90130601 -118.93706061 390.63026168 -122.15234375 394.16796875 Z M97.9375 395.1875 C94.84443657 399.65525829 94.59185712 403.26970043 95.25 408.625 C97.25141613 412.48487396 99.3444825 415.61946399 103.25 417.625 C107.66829602 418.71479003 111.14384027 418.98662914 115.5 417.5625 C119.96490417 414.41677206 122.7078225 411.48873516 124.25 406.1875 C124.25 401.34569419 123.22578852 397.6638456 119.78125 394.109375 C112.50271395 387.9012119 104.60478573 387.79942662 97.9375 395.1875 Z " fill="#000000" transform="translate(249.75,-0.625)"/>
</svg>
