<?xml version="1.0" encoding="UTF-8"?>
<svg version="1.1" xmlns="http://www.w3.org/2000/svg" width="500" height="500">
<path d="M0 0 C16.99809618 15.42332905 27.9660698 30.87483472 29.12548828 54.56396484 C31.33335396 118.70301746 3.50485852 182.07882905 -27 237 C-26.32122803 236.87882812 -25.64245605 236.75765625 -24.94311523 236.6328125 C10.32619191 230.42374277 10.32619191 230.42374277 20.06640625 235.59765625 C25.19919068 239.32022112 29.07233814 243.92876593 31 250 C32.23471036 259.91667372 30.31472854 266.80317919 24.68359375 274.890625 C10.01490964 293.44588353 -15.30846979 302.57149507 -38.0078125 305.54296875 C-46.6402563 306.46675506 -55.33508428 306.23278878 -64 306 C-64.02187378 306.97718994 -64.02187378 306.97718994 -64.04418945 307.97412109 C-64.76620391 337.22718726 -66.19653468 368.14617607 -79 395 C-79.28182129 395.59216309 -79.56364258 396.18432617 -79.85400391 396.79443359 C-88.43685873 414.37246151 -102.57948594 425.95999778 -120.94140625 432.64453125 C-132.22312113 436.51278243 -143.05610178 438.34701592 -155 438.4375 C-155.94294922 438.44765137 -156.88589844 438.45780273 -157.85742188 438.46826172 C-170.59090031 438.30875625 -182.29871886 433.67897638 -191.6875 425 C-216.56552157 398.2151069 -216.91726214 353.29541233 -216 319 C-216.72703125 319.26554687 -217.4540625 319.53109375 -218.203125 319.8046875 C-233.99463314 325.35196087 -248.97936218 326.42756705 -265.375 323.25 C-266.19484375 323.09321777 -267.0146875 322.93643555 -267.859375 322.77490234 C-275.50812065 321.16130167 -282.44768171 318.37176847 -288.875 313.875 C-289.59429687 313.37742187 -290.31359375 312.87984375 -291.0546875 312.3671875 C-291.69664062 311.91601562 -292.33859375 311.46484375 -293 311 C-293.99 310.34 -294.98 309.68 -296 309 C-296.61746094 309.39832031 -297.23492187 309.79664063 -297.87109375 310.20703125 C-308.96559694 317.14742822 -318.90732461 319.60178012 -332 318 C-349.22432277 313.69889744 -361.67458051 299.7974931 -370.5625 285.171875 C-400.14312737 235.0410098 -414.17024968 175.87342755 -424 119 C-424.30587036 117.28296875 -424.30587036 117.28296875 -424.61791992 115.53125 C-426.07519716 106.56896264 -426.34010802 97.75420752 -426.31567383 88.69726562 C-426.31252136 86.26646665 -426.33604977 83.8368992 -426.36132812 81.40625 C-426.43011106 64.51102741 -423.57002821 48.91938662 -418 33 C-417.55720703 31.65035156 -417.55720703 31.65035156 -417.10546875 30.2734375 C-409.55750979 9.11157996 -392.00252385 -7.55739952 -372.20874023 -17.24951172 C-355.22257443 -25.17598653 -337.89455062 -27.40713706 -319.3125 -27.3125 C-318.56577026 -27.31067719 -317.81904053 -27.30885437 -317.04968262 -27.30697632 C-305.44791178 -27.25940776 -294.33881035 -26.54500288 -283 -24 C-282.1248877 -23.81244141 -281.24977539 -23.62488281 -280.34814453 -23.43164062 C-263.18567294 -19.74949952 -263.18567294 -19.74949952 -256.47265625 -17.578125 C-249.28604381 -15.19416562 -249.28604381 -15.19416562 -241.9140625 -15.9140625 C-239.93819669 -16.94702184 -237.99603019 -18.04661994 -236.08984375 -19.203125 C-215.5747576 -31.13351644 -188.05751106 -30.19969335 -165.3046875 -27.7121582 C-155.80771006 -26.68007748 -148.10051431 -27.22693068 -138.8125 -29.375 C-90.71115982 -39.8964762 -38.00958121 -33.52170294 0 0 Z " fill="#FAFBFC" transform="translate(445,62)"/>
<path d="M0 0 C0.61294922 0.3201709 1.22589844 0.6403418 1.85742188 0.97021484 C9.87905794 5.22507736 17.13481912 10.02138221 24 16 C24.81984375 16.69867188 25.6396875 17.39734375 26.484375 18.1171875 C43.95174937 33.3604552 59.48505072 53.8707254 67 76 C67 76.99 67 77.98 67 79 C66.43192627 78.98428955 65.86385254 78.9685791 65.27856445 78.95239258 C41.98593585 78.17454804 41.98593585 78.17454804 22 88.890625 C14.53080821 97.0444927 12.82099421 104.38832074 12.8125 115.125 C12.80025391 115.91648438 12.78800781 116.70796875 12.77539062 117.5234375 C12.75112213 127.55441478 14.90452068 136.7569856 18.375 146.125 C18.72095215 147.06311523 19.0669043 148.00123047 19.42333984 148.96777344 C26.95238934 168.81619336 37.1929678 187.51645023 47.40478516 206.08325195 C48.47418449 208.03858005 49.53105507 210.00080923 50.57568359 211.96948242 C53.35513777 217.18549409 56.20862218 221.92706273 59.875 226.5625 C64 231.7970297 64 231.7970297 64 234 C63.32453125 234.30292969 62.6490625 234.60585938 61.953125 234.91796875 C54.20842565 238.55529142 50.47458747 242.05808579 47 250 C46.06383723 253.87767378 45.73492785 257.70112502 45.45703125 261.67578125 C45.35569474 263.05116563 45.25351817 264.42648829 45.15063477 265.80175781 C45.09626251 266.5335022 45.04189026 267.26524658 44.98587036 268.01916504 C43.1895208 291.78119236 40.20015114 315.39132697 37 339 C36.90225281 339.72775635 36.80450562 340.4555127 36.70379639 341.20532227 C31.69052253 378.38606717 31.69052253 378.38606717 17.375 390.1875 C12.32007913 393.73075882 6.77523599 395.90396841 1 398 C0.19433594 398.32226562 -0.61132812 398.64453125 -1.44140625 398.9765625 C-11.78853815 402.530794 -27.72299484 403.62537635 -37.875 399.0625 C-47.44514782 392.83759304 -53.6440839 382.78357788 -57 372 C-61.06059329 352.44628782 -61.14417403 332.16139351 -61.2734375 312.265625 C-61.2792408 311.41201889 -61.2850441 310.55841278 -61.29102325 309.67893982 C-61.34203058 301.72530199 -61.37354381 293.77166914 -61.38085938 285.81787109 C-61.38588238 281.40875618 -61.41011666 277.00008281 -61.44618607 272.59111786 C-61.45591188 270.93426923 -61.45835593 269.27735959 -61.45301437 267.62049103 C-61.42086953 257.20173445 -62.16485314 250.53965658 -68.25 241.75 C-74.32943932 235.67056068 -80.58071463 234.34505268 -89 234 C-88.4246491 227.87126214 -86.55955843 222.64523552 -84.3125 216.9375 C-83.95381836 216.009375 -83.59513672 215.08125 -83.22558594 214.125 C-81.17705145 208.86411536 -79.02276751 203.66749442 -76.75 198.5 C-69.99348208 182.94899273 -67.61662035 167.89791978 -67.6875 151 C-67.68865814 150.32834808 -67.68981628 149.65669617 -67.69100952 148.96469116 C-67.73116662 137.11834816 -68.71265503 125.632783 -71 114 C-71.2165625 112.8140625 -71.433125 111.628125 -71.65625 110.40625 C-73.66837488 100.92051841 -77.96934579 92.62291679 -85.6171875 86.47265625 C-97.52424536 79.1137041 -111.24963509 79.87477487 -124.3671875 82.94140625 C-129.61665392 84.47108948 -134.59333287 86.46678859 -139.625 88.59765625 C-142.71739966 89.88257694 -145.81070751 90.98389919 -149 92 C-146.40786609 60.31406461 -137.43235927 26.9645195 -113 5 C-105.79668212 -0.98655581 -97.81740899 -5.81495983 -89 -9 C-87.93652344 -9.391875 -86.87304688 -9.78375 -85.77734375 -10.1875 C-58.24852646 -18.66696458 -25.13491823 -13.13146863 0 0 Z " fill="#336791" transform="translate(314,73)"/>
<path d="M0 0 C-1.75642698 2.78100938 -3.48384005 5.4133994 -5.66015625 7.88671875 C-16.18179161 19.92070416 -23.56076094 35.72769247 -28 51 C-28.20818359 51.69254883 -28.41636719 52.38509766 -28.63085938 53.09863281 C-35.90786332 77.71453911 -36.4318491 102.95448961 -36.125 128.4375 C-36.08962107 132.34105559 -36.05889395 136.24457423 -36.03366089 140.14820862 C-36.01702181 142.54469798 -35.99418089 144.94115646 -35.96365356 147.33750916 C-35.9066487 153.72326031 -36.14625568 159.98855167 -36.75770569 166.34637451 C-38.46342902 185.0275845 -36.63951676 204.44896867 -24.60644531 219.77490234 C-21.56622124 223.34682037 -18.336707 226.7055298 -15 230 C-19.22318351 236.0331193 -24.00664778 241.30591204 -29.04541016 246.65063477 C-32.36201221 250.1861156 -35.52925237 253.77647559 -38.5625 257.5625 C-56.51861867 279.84261048 -56.51861867 279.84261048 -66.5 281.625 C-75.19606192 280.0721318 -82.11623574 273.33475272 -87.18017578 266.37890625 C-98.46617935 249.99874386 -105.94323302 231.49429108 -113 213 C-113.24733887 212.35724121 -113.49467773 211.71448242 -113.74951172 211.05224609 C-117.24870083 201.89341208 -119.88109148 192.55806664 -122.42675781 183.10302734 C-123.22829886 180.16245044 -124.0834361 177.23819822 -124.9375 174.3125 C-125.4398201 172.54137137 -125.94188931 170.77016628 -126.43896484 168.99755859 C-126.83189499 167.59853578 -127.22835213 166.20050097 -127.62744141 164.80322266 C-131.49477177 151.14837744 -134.46613026 137.34570302 -137.25 123.4375 C-137.42253296 122.58005188 -137.59506592 121.72260376 -137.77282715 120.83917236 C-140.74495236 106.00870037 -143.38632282 91.49967335 -143.3125 76.3125 C-143.30758545 75.09860596 -143.3026709 73.88471191 -143.29760742 72.6340332 C-142.99269218 49.008575 -138.22470204 26.00844226 -121.44140625 8.31640625 C-92.06155362 -19.55919793 -34.66435037 -16.50683351 0 0 Z " fill="#336791" transform="translate(188,72)"/>
<path d="M0 0 C16.99809618 15.42332905 27.9660698 30.87483472 29.12548828 54.56396484 C31.33335396 118.70301746 3.50485852 182.07882905 -27 237 C-26.32122803 236.87882812 -25.64245605 236.75765625 -24.94311523 236.6328125 C10.32619191 230.42374277 10.32619191 230.42374277 20.06640625 235.59765625 C25.19919068 239.32022112 29.07233814 243.92876593 31 250 C32.23471036 259.91667372 30.31472854 266.80317919 24.68359375 274.890625 C10.01490964 293.44588353 -15.30846979 302.57149507 -38.0078125 305.54296875 C-46.6402563 306.46675506 -55.33508428 306.23278878 -64 306 C-64.02187378 306.97718994 -64.02187378 306.97718994 -64.04418945 307.97412109 C-64.76620391 337.22718726 -66.19653468 368.14617607 -79 395 C-79.28182129 395.59216309 -79.56364258 396.18432617 -79.85400391 396.79443359 C-88.43685873 414.37246151 -102.57948594 425.95999778 -120.94140625 432.64453125 C-132.22312113 436.51278243 -143.05610178 438.34701592 -155 438.4375 C-155.94294922 438.44765137 -156.88589844 438.45780273 -157.85742188 438.46826172 C-170.59090031 438.30875625 -182.29871886 433.67897638 -191.6875 425 C-216.56552157 398.2151069 -216.91726214 353.29541233 -216 319 C-216.72703125 319.26554687 -217.4540625 319.53109375 -218.203125 319.8046875 C-233.99463314 325.35196087 -248.97936218 326.42756705 -265.375 323.25 C-266.19484375 323.09321777 -267.0146875 322.93643555 -267.859375 322.77490234 C-275.50812065 321.16130167 -282.44768171 318.37176847 -288.875 313.875 C-289.59429687 313.37742187 -290.31359375 312.87984375 -291.0546875 312.3671875 C-291.69664062 311.91601562 -292.33859375 311.46484375 -293 311 C-293.99 310.34 -294.98 309.68 -296 309 C-296.61746094 309.39832031 -297.23492187 309.79664063 -297.87109375 310.20703125 C-308.96559694 317.14742822 -318.90732461 319.60178012 -332 318 C-349.22432277 313.69889744 -361.67458051 299.7974931 -370.5625 285.171875 C-400.14312737 235.0410098 -414.17024968 175.87342755 -424 119 C-424.30587036 117.28296875 -424.30587036 117.28296875 -424.61791992 115.53125 C-426.07519716 106.56896264 -426.34010802 97.75420752 -426.31567383 88.69726562 C-426.31252136 86.26646665 -426.33604977 83.8368992 -426.36132812 81.40625 C-426.43011106 64.51102741 -423.57002821 48.91938662 -418 33 C-417.55720703 31.65035156 -417.55720703 31.65035156 -417.10546875 30.2734375 C-409.55750979 9.11157996 -392.00252385 -7.55739952 -372.20874023 -17.24951172 C-355.22257443 -25.17598653 -337.89455062 -27.40713706 -319.3125 -27.3125 C-318.56577026 -27.31067719 -317.81904053 -27.30885437 -317.04968262 -27.30697632 C-305.44791178 -27.25940776 -294.33881035 -26.54500288 -283 -24 C-282.1248877 -23.81244141 -281.24977539 -23.62488281 -280.34814453 -23.43164062 C-263.18567294 -19.74949952 -263.18567294 -19.74949952 -256.47265625 -17.578125 C-249.28604381 -15.19416562 -249.28604381 -15.19416562 -241.9140625 -15.9140625 C-239.93819669 -16.94702184 -237.99603019 -18.04661994 -236.08984375 -19.203125 C-215.5747576 -31.13351644 -188.05751106 -30.19969335 -165.3046875 -27.7121582 C-155.80771006 -26.68007748 -148.10051431 -27.22693068 -138.8125 -29.375 C-90.71115982 -39.8964762 -38.00958121 -33.52170294 0 0 Z M-152 -13 C-156.63898271 -12.74696458 -160.7503535 -13.08129884 -165.3125 -13.9375 C-190.64812335 -18.35613444 -215.93143102 -15.8381048 -238.734375 -3.70703125 C-244.24421271 -0.82688881 -244.24421271 -0.82688881 -246.96337891 -1.44970703 C-248.08365479 -1.84971924 -248.08365479 -1.84971924 -249.2265625 -2.2578125 C-250.0817749 -2.55155762 -250.9369873 -2.84530273 -251.81811523 -3.14794922 C-252.74438721 -3.47037598 -253.67065918 -3.79280273 -254.625 -4.125 C-288.69412969 -15.5166241 -333.12423289 -22.26560408 -366.86132812 -5.9909668 C-386.86885994 4.44903639 -400.85926093 20.9736549 -407.81396484 42.52197266 C-414.32441183 64.71268693 -415.6056584 90.02868405 -411.39794922 112.80224609 C-410.90860822 115.50472933 -410.47427997 118.21468793 -410.03515625 120.92578125 C-405.90428461 145.79782453 -400.46463613 170.64137778 -392.74389648 194.65991211 C-391.85331647 197.46142487 -391.0003615 200.27361703 -390.14453125 203.0859375 C-374.48498247 258.02139285 -374.48498247 258.02139285 -338.5625 300.1875 C-330.61733867 304.22977506 -323.09062009 305.80268353 -314.28125 303.1953125 C-302.97286236 298.00633716 -295.15819425 288.13648734 -287.43408203 278.73681641 C-283.54292519 274.02423728 -279.55361527 269.39521229 -275.54248047 264.78466797 C-274.48710764 263.56358925 -273.43959565 262.33568414 -272.39892578 261.10205078 C-270.82553867 259.23921757 -269.2283776 257.39953059 -267.625 255.5625 C-267.1494165 254.98822266 -266.67383301 254.41394531 -266.18383789 253.82226562 C-264.7890625 252.25390625 -264.7890625 252.25390625 -262 250 C-259.046875 250.0234375 -259.046875 250.0234375 -256 251 C-254.96101562 251.32097656 -253.92203125 251.64195312 -252.8515625 251.97265625 C-251.78679687 252.33230469 -250.72203125 252.69195312 -249.625 253.0625 C-244.47007345 254.69814107 -240.3737395 255.42146977 -235 255 C-243.9693618 266.86437195 -250.33866975 271.41920636 -264.8125 274.3125 C-278.18740961 277.09836708 -278.18740961 277.09836708 -288 286 C-288.89462478 290.01393597 -288.78762639 293.53689271 -286.8203125 297.19140625 C-280.13284167 305.62273909 -270.28232576 308.5186098 -260 310 C-238.99404171 311.71592499 -223.02174968 308.82792091 -206 296 C-205.98018066 297.19560547 -205.96036133 298.39121094 -205.93994141 299.62304688 C-205.44615974 329.26323351 -205.44615974 329.26323351 -204.125 358.875 C-204.02566162 360.71094727 -204.02566162 360.71094727 -203.92431641 362.58398438 C-202.67951472 381.7894961 -198.2310636 401.67788719 -183.6875 415.375 C-172.04393451 425.02196088 -159.78706278 426.96115908 -145 426 C-126.41835158 423.28025018 -108.20379801 416.85481031 -96 402 C-94.0000078 399.11331174 -92.44270865 396.19735431 -91 393 C-90.48373047 391.95199219 -90.48373047 391.95199219 -89.95703125 390.8828125 C-87.56228574 385.57950635 -86.25555771 380.13642046 -85.0703125 374.46875 C-84.89693863 373.64029572 -84.72356476 372.81184143 -84.54493713 371.95828247 C-82.58519088 362.32385448 -81.2430923 352.61569997 -79.9375 342.875 C-79.67918596 340.98213509 -79.42055659 339.0893132 -79.16162109 337.1965332 C-77.75575175 326.86812195 -76.38956565 316.53423489 -75.125 306.1875 C-75.00503662 305.21216309 -74.88507324 304.23682617 -74.76147461 303.23193359 C-74.23951142 298.79262659 -73.86671614 294.47981846 -74 290 C-73.42636719 290.144375 -72.85273438 290.28875 -72.26171875 290.4375 C-52.28562988 294.80253308 -29.23658563 292.32152371 -11 283 C-10.06027344 282.5359375 -9.12054688 282.071875 -8.15234375 281.59375 C1.73665569 276.47921934 12.45200266 269.64598481 17 259 C17.638399 253.9726079 17.82029739 252.12497928 14.8125 248 C7.53765392 243.01538324 -3.0379688 246.09779649 -11.125 247.5 C-17.81509348 248.65674571 -24.33172783 249.32648625 -31.125 249.375 C-32.26026123 249.39530273 -32.26026123 249.39530273 -33.41845703 249.41601562 C-39.04501117 249.37135059 -43.77194157 248.02928174 -49 246 C-46.69014539 241.76526655 -44.34803594 237.56049162 -41.86328125 233.42578125 C-23.30727979 202.51316973 -9.38816069 170.1198751 2 136 C2.50684326 134.49735596 2.50684326 134.49735596 3.02392578 132.96435547 C12.59475022 104.28352126 22.73600335 62.90316134 11.00390625 33.50390625 C7.80565616 27.11847269 2.90556846 22.11029524 -2 17 C-2.75152344 16.17371094 -3.50304687 15.34742188 -4.27734375 14.49609375 C-24.59028774 -7.10119612 -57.40286913 -19.86913659 -86.67578125 -21.11376953 C-108.64451434 -21.698279 -131.00346676 -19.99884441 -152 -13 Z " fill="#020202" transform="translate(445,62)"/>
<path d="M0 0 C2.09469265 0.01077718 4.18853506 -0.00001218 6.28320312 -0.01269531 C19.53243802 -0.02995146 31.89837747 1.56883779 44.46289062 5.88574219 C45.50106934 6.23983154 46.53924805 6.5939209 47.60888672 6.95874023 C66.48004397 13.61299607 88.23874799 27.19215469 98.02539062 45.51074219 C109.55249856 73.98395173 97.98464839 113.46690003 88.15698242 141.18115234 C87.26888484 143.8420089 86.49247986 146.53161419 85.69726562 149.22167969 C83.33018815 156.96043613 80.35125192 164.41019607 77.27539062 171.88574219 C76.98776855 172.58794891 76.70014648 173.29015564 76.40380859 174.01364136 C66.89314488 197.20114738 55.43784909 218.81008889 42.46289062 240.26074219 C41.47289062 239.93074219 40.48289062 239.60074219 39.46289062 239.26074219 C40.52941287 235.95297756 41.66549965 232.69023524 42.93554688 229.45605469 C43.19529297 228.78960937 43.45503906 228.12316406 43.72265625 227.43652344 C44.25568498 226.07477121 44.79470997 224.71535014 45.33984375 223.35839844 C48.57198294 214.99191345 48.6560603 206.7552326 48.65039062 197.88574219 C48.65135742 196.289198 48.65135742 196.289198 48.65234375 194.66040039 C48.61167657 188.51364911 48.28743595 182.5364215 47.46289062 176.44824219 C45.39954766 160.70798677 45.53259138 144.56554741 47.96289062 128.88574219 C50.58822985 111.80084229 51.18893464 97.01465944 43.46289062 81.26074219 C43.14143066 80.58092285 42.8199707 79.90110352 42.48876953 79.20068359 C26.88129783 46.50905074 1.38029317 19.75128456 -31.53710938 4.26074219 C-31.20710938 3.60074219 -30.87710937 2.94074219 -30.53710938 2.26074219 C-28.17009392 1.77053869 -25.90870837 1.4201333 -23.51367188 1.15136719 C-22.79764801 1.067276 -22.08162415 0.98318481 -21.34390259 0.89654541 C-14.22880009 0.12376544 -7.15158277 -0.04356634 0 0 Z " fill="#346891" transform="translate(345.537109375,54.7392578125)"/>
<path d="M0 0 C0.71679932 -0.01772461 1.43359863 -0.03544922 2.17211914 -0.05371094 C7.99727089 -0.04564937 12.63371672 1.07529567 17.265625 4.85546875 C17.71421875 5.39816406 18.1628125 5.94085938 18.625 6.5 C19.08390625 7.02980469 19.5428125 7.55960938 20.015625 8.10546875 C31.78643226 27.21611847 31.4114972 61.51662262 26.60546875 83.00390625 C24.74938686 90.06691655 21.74774076 96.74162289 18.8671875 103.43359375 C16.17547381 109.6968817 13.75715382 116.05110507 11.375 122.4375 C10.79661377 123.97579468 10.79661377 123.97579468 10.20654297 125.54516602 C8.03142381 131.34811856 8.03142381 131.34811856 6.375 137.3125 C-4.90857876 138.36213523 -15.13145072 133.35320533 -23.625 126.3125 C-26.375 123.8125 -26.375 123.8125 -28.625 121.3125 C-29.10453125 120.82523437 -29.5840625 120.33796875 -30.078125 119.8359375 C-34.6739449 114.93837185 -37.17716267 109.51889606 -39.625 103.3125 C-39.94726562 102.56613281 -40.26953125 101.81976563 -40.6015625 101.05078125 C-42.68895812 95.46163316 -42.90156992 90.0246018 -42.9375 84.125 C-42.94305908 83.38378906 -42.94861816 82.64257812 -42.9543457 81.87890625 C-42.8940066 77.02702322 -42.33719063 72.42238123 -41.5625 67.6328125 C-40.63554076 61.09731903 -40.6203882 54.87376797 -40.88671875 48.28515625 C-40.91901077 47.3179213 -40.9513028 46.35068634 -40.98457336 45.35414124 C-41.11916507 41.33921804 -41.25532196 37.32829728 -41.49584961 33.31811523 C-42.4411513 16.81577286 -42.4411513 16.81577286 -39.39813232 12.62145996 C-35.93940325 9.49976778 -31.98772564 7.8918265 -27.625 6.3125 C-25.87394038 5.52317984 -24.12369387 4.73204759 -22.375 3.9375 C-20.80072079 3.37005646 -19.21761185 2.82624576 -17.625 2.3125 C-16.95855469 2.08820313 -16.29210937 1.86390625 -15.60546875 1.6328125 C-10.47035855 0.19930181 -5.29825355 0.07957896 0 0 Z " fill="#336791" transform="translate(205.625,166.6875)"/>
<path d="M0 0 C0.15677669 5.96433053 -0.43713053 11.4427363 -1.4375 17.3125 C-3.96131573 33.52465595 -4.08685052 48.09668268 -2.12963867 64.42333984 C-1.24430008 72.01092385 -0.69213423 79.48447839 -0.6875 87.125 C-0.68242432 87.98198486 -0.67734863 88.83896973 -0.67211914 89.72192383 C-0.77010704 98.66530567 -2.63553995 106.74177987 -6 115 C-9.20050702 112.32480416 -10.68652951 108.87641133 -12.4375 105.1875 C-15.25361129 99.3813273 -18.24086471 93.70873859 -21.39257812 88.07763672 C-32.1410671 68.83974384 -44.03380672 46.68733739 -44.3125 24.1875 C-44.34150391 23.41857422 -44.37050781 22.64964844 -44.40039062 21.85742188 C-44.46981292 15.52931277 -42.99818247 10.07523181 -38.47998047 5.44091797 C-28.89253644 -2.6788342 -11.61668791 -2.77547071 0 0 Z " fill="#356992" transform="translate(383,165)"/>
<path d="M0 0 C6.9371923 0.11561987 6.9371923 0.11561987 9.60546875 2.3359375 C12.86403428 6.25386086 14.66346585 9.47218804 14.59765625 14.65234375 C13.26723161 19.87839088 8.81214384 23.42173002 5 27 C4.30390625 27.66515625 3.6078125 28.3303125 2.890625 29.015625 C-8.67404437 39.01515115 -22.04804907 40.08920261 -36.66113281 39.21386719 C-42.95784536 38.63809264 -48.42834843 36.90585002 -54 34 C-54 33.34 -54 32.68 -54 32 C-52.84383179 31.72119995 -52.84383179 31.72119995 -51.66430664 31.43676758 C-48.12691183 30.57557423 -44.59483329 29.6942142 -41.0625 28.8125 C-39.85013672 28.52052734 -38.63777344 28.22855469 -37.38867188 27.92773438 C-27.48424801 25.43149747 -19.64134133 22.61214722 -12.875 14.6875 C-12.04871094 13.73488281 -11.22242188 12.78226562 -10.37109375 11.80078125 C-9.58863281 10.87652344 -8.80617187 9.95226562 -8 9 C-6.6479123 7.45650969 -5.29401394 5.91460171 -3.9375 4.375 C-3.38964844 3.74335938 -2.84179688 3.11171875 -2.27734375 2.4609375 C-1.54167701 1.61953273 -0.79030613 0.79030613 0 0 Z " fill="#366992" transform="translate(226,320)"/>
<path d="M0 0 C5.99075572 2.42458916 12.14672687 2.12897324 18.50390625 2.125 C19.56222656 2.12564453 20.62054688 2.12628906 21.7109375 2.12695312 C31.01569659 2.06529508 40.11091961 1.23928599 49.31640625 -0.0625 C39.97406534 9.92234391 28.35978045 14.18579889 15.31640625 16.9375 C14.55134766 17.1132959 13.78628906 17.2890918 12.99804688 17.47021484 C7.68372525 18.39625377 2.25895078 18.12215492 -3.12109375 18.125 C-4.94350586 18.14336914 -4.94350586 18.14336914 -6.80273438 18.16210938 C-8.56713867 18.16500977 -8.56713867 18.16500977 -10.3671875 18.16796875 C-11.96904907 18.17413208 -11.96904907 18.17413208 -13.60327148 18.18041992 C-16.90328512 17.92017473 -19.59714953 17.10514833 -22.68359375 15.9375 C-22.98991173 10.11745836 -22.68174883 6.13430214 -19.68359375 0.9375 C-11.97174052 -5.16771714 -8.20862255 -3.88303536 0 0 Z " fill="#376A93" transform="translate(394.68359375,322.0625)"/>
<path d="M0 0 C3.28911108 1.12682509 6.49673504 2.49673504 9 5 C9.4375 7.25 9.4375 7.25 9 10 C5.68013958 13.17551867 2.97625432 15.71767795 -1.625 16.375 C-6.21891551 15.86456494 -9.41761656 13.86429306 -13 11 C-15.15502531 7.76746204 -15.46856135 6.74849077 -15 3 C-11.50755314 -1.88708168 -5.35953632 -0.63610658 0 0 Z " fill="#F9FAFB" transform="translate(214,174)"/>
<path d="M0 0 C1.04285156 -0.01417969 2.08570313 -0.02835938 3.16015625 -0.04296875 C5.9375 0.1875 5.9375 0.1875 8.9375 2.1875 C8.78567368 4.84446068 8.46425976 6.62984524 6.60546875 8.59765625 C1.80930665 12.60029275 -0.79216045 13.7100283 -7.0625 13.1875 C-10.25733741 11.53091764 -12.40690518 10.35300191 -14.1875 7.1875 C-14.0625 5.1875 -14.0625 5.1875 -12.375 3 C-8.48775444 -0.04676004 -4.84792975 0.03003674 0 0 Z " fill="#F9FAFB" transform="translate(362.0625,170.8125)"/>
</svg>
