<?xml version="1.0" encoding="UTF-8"?>
<svg version="1.1" xmlns="http://www.w3.org/2000/svg" width="500" height="500">
<path d="M0 0 C14.52 0 29.04 0 44 0 C44 44.22 44 88.44 44 134 C146.63 134 249.26 134 355 134 C355 89.78 355 45.56 355 0 C370.18 0 385.36 0 401 0 C401 59.07 401 118.14 401 179 C268.67 179 136.34 179 0 179 C0 119.93 0 60.86 0 0 Z " fill="#BBBABA" transform="translate(39,321)"/>
<path d="M0 0 C3.37779045 1.12593015 3.85269787 1.79015388 5.86328125 4.5859375 C6.41290527 5.34181152 6.9625293 6.09768555 7.52880859 6.87646484 C8.11742676 7.70098145 8.70604492 8.52549805 9.3125 9.375 C10.5819033 11.12509282 11.85143809 12.87509026 13.12109375 14.625 C14.09151611 15.97078125 14.09151611 15.97078125 15.08154297 17.34375 C17.99008239 21.37084454 20.92957809 25.37483573 23.875 29.375 C24.44645752 30.15214355 25.01791504 30.92928711 25.60668945 31.72998047 C30.00988125 37.70063771 34.49262447 43.60773712 39 49.5 C47.04102314 60.01162075 54.89059941 70.65630433 62.70898438 81.33398438 C69.39063523 90.45363782 76.13091852 99.52039901 83 108.5 C91.04102314 119.01162075 98.89059941 129.65630433 106.70898438 140.33398438 C108.42940687 142.68215511 110.15196301 145.02874723 111.875 147.375 C112.43662842 148.14215332 112.99825684 148.90930664 113.5769043 149.69970703 C116.8141941 154.10220209 120.11141824 158.44904875 123.47265625 162.7578125 C124.21596191 163.71510254 124.95926758 164.67239258 125.72509766 165.65869141 C127.17809247 167.52472028 128.63976835 169.38402821 130.11083984 171.23583984 C130.76391113 172.0758252 131.41698242 172.91581055 132.08984375 173.78125 C132.67628662 174.52439453 133.26272949 175.26753906 133.86694336 176.03320312 C134.24085205 176.68224609 134.61476074 177.33128906 135 178 C133.86035557 181.41893329 133.11412296 181.92266647 130.2734375 183.96875 C129.49524658 184.53513184 128.71705566 185.10151367 127.9152832 185.68505859 C126.65784302 186.58345459 126.65784302 186.58345459 125.375 187.5 C124.10112427 188.42353271 124.10112427 188.42353271 122.80151367 189.36572266 C121.05604389 190.63102906 119.30854993 191.89354766 117.55908203 193.15332031 C113.79323226 195.87082534 110.05338563 198.62329527 106.3125 201.375 C105.07964781 202.27894694 103.84659808 203.18262459 102.61328125 204.0859375 C101.75089844 204.71757812 100.88851562 205.34921875 100 206 C96.53910328 204.56260763 94.83464538 202.86180917 92.6015625 199.87890625 C91.96460449 199.03569824 91.32764648 198.19249023 90.67138672 197.32373047 C89.9960791 196.41252441 89.32077148 195.50131836 88.625 194.5625 C87.56369873 193.14928467 87.56369873 193.14928467 86.48095703 191.70751953 C84.31111444 188.81197059 82.15364047 185.90761424 80 183 C79.06510742 181.74050537 79.06510742 181.74050537 78.11132812 180.45556641 C73.48023242 174.21018132 68.88434717 167.93919414 64.29101562 161.66601562 C57.59187919 152.52249645 50.83065685 143.43593978 43.9375 134.4375 C38.47823315 127.3108837 33.15286148 120.10809419 27.93115234 112.80615234 C23.74578604 106.97694778 19.42628789 101.25906013 15.0625 95.5625 C8.171787 86.56725046 1.41386184 77.48352617 -5.28222656 68.34277344 C-7.59908712 65.18293917 -9.92366402 62.02882704 -12.24902344 58.87524414 C-13.40676559 57.30473754 -14.563681 55.73362111 -15.71972656 54.16186523 C-18.79577404 49.9808256 -21.88512078 45.81039648 -24.9921875 41.65234375 C-25.641875 40.77964844 -26.2915625 39.90695313 -26.9609375 39.0078125 C-28.21488611 37.32393865 -29.47256703 35.64283628 -30.734375 33.96484375 C-31.29382813 33.21203125 -31.85328125 32.45921875 -32.4296875 31.68359375 C-32.92710449 31.01900146 -33.42452148 30.35440918 -33.93701172 29.66967773 C-35 28 -35 28 -35 26 C-33.13641992 24.54045661 -31.26837188 23.2023237 -29.3125 21.875 C-24.60646656 18.62140737 -20.01217859 15.26518739 -15.5 11.74609375 C-14.55987061 11.01471191 -13.61974121 10.28333008 -12.65112305 9.52978516 C-10.7687996 8.05947798 -8.89256017 6.58134629 -7.02270508 5.09521484 C-5.72175903 4.08322021 -5.72175903 4.08322021 -4.39453125 3.05078125 C-3.23207886 2.13292847 -3.23207886 2.13292847 -2.04614258 1.1965332 C-1.37091553 0.80167725 -0.69568848 0.40682129 0 0 Z " fill="#F48023" transform="translate(326,0)"/>
<path d="M0 0 C73.59 0 147.18 0 223 0 C223 15.18 223 30.36 223 46 C149.41 46 75.82 46 0 46 C0 30.82 0 15.64 0 0 Z " fill="#F37F23" transform="translate(127,365)"/>
<path d="M0 0 C3.85516155 0.48914134 6.94226312 1.77560179 10.41015625 3.484375 C11.46726807 4.00040283 12.52437988 4.51643066 13.61352539 5.0480957 C14.75168701 5.60972412 15.88984863 6.17135254 17.0625 6.75 C19.51914358 7.95009578 21.97819964 9.1452035 24.4375 10.33984375 C25.06717178 10.64621262 25.69684357 10.95258148 26.34559631 11.26823425 C32.71515594 14.36100756 39.13380514 17.34480434 45.5625 20.3125 C55.93499459 25.10749065 66.28753605 29.94246599 76.625 34.8125 C77.33425629 35.14654846 78.04351257 35.48059692 78.77426147 35.82476807 C84.57920142 38.55893068 90.38325422 41.29497424 96.18725586 44.03112793 C101.24942301 46.41746507 106.31194939 48.80303783 111.375 51.1875 C112.08603882 51.52239441 112.79707764 51.85728882 113.52966309 52.20233154 C124.07116422 57.16594909 134.63216579 62.08546643 145.20629883 66.97924805 C156.71952615 72.31633637 168.19024315 77.7429246 179.65771484 83.17749023 C187.41019445 86.84915871 195.17330018 90.48816813 203 94 C201.49143554 98.85003949 199.56695093 103.38578052 197.4453125 107.98828125 C197.10249237 108.73208542 196.75967224 109.47588959 196.40646362 110.24223328 C195.68397281 111.80378572 194.95941929 113.36438529 194.23291016 114.92407227 C193.49151438 116.52236994 192.75652466 118.1236541 192.02783203 119.7277832 C190.97258862 122.05050437 189.89880076 124.36377855 188.8203125 126.67578125 C188.49725128 127.39550613 188.17419006 128.11523102 187.84133911 128.85676575 C185.50124614 133.79153835 185.50124614 133.79153835 183.11190796 134.78523254 C179.34477211 135.16832603 176.14085666 133.03315184 172.84375 131.3984375 C172.03767303 131.010616 171.23159607 130.62279449 170.40109253 130.22322083 C167.76216357 128.95099785 165.1313199 127.66287623 162.5 126.375 C160.67204538 125.49123075 158.84342686 124.60883342 157.01416016 123.7277832 C154.25964448 122.40086541 151.50556157 121.07312915 148.75357056 119.74098206 C141.32822397 116.14673802 133.86629411 112.64210572 126.375 109.1875 C124.15097818 108.15899144 121.9270196 107.13034612 119.703125 106.1015625 C118.61064453 105.59657227 117.51816406 105.09158203 116.39257812 104.57128906 C110.29724258 101.74820476 104.21133742 98.90491466 98.125 96.0625 C96.86637834 95.47484356 95.60775204 94.88719707 94.34912109 94.29956055 C91.82677076 93.12185644 89.30448203 91.94402052 86.78222656 90.76611328 C81.14634968 88.13425654 75.50963683 85.50419121 69.87298584 82.87399292 C66.74862288 81.41606887 63.62431419 79.95802854 60.5 78.5 C59.25000026 77.91666611 58.00000026 77.33333278 56.75 76.75 C49.25 73.25 49.25 73.25 47.37527466 72.37512207 C46.12436537 71.79136847 44.87344983 71.20762825 43.62252808 70.62390137 C40.51138908 69.17210732 37.40035639 67.72008639 34.28955078 66.26757812 C28.49974235 63.5644691 22.70895243 60.86353076 16.91448975 58.17041016 C14.2160277 56.91606737 11.51815028 55.66046995 8.8203125 54.40478516 C7.55009407 53.8139933 6.27959834 53.22379719 5.00878906 52.63427734 C-3.06383618 48.88922261 -11.06330869 45.02546372 -19 41 C-15.96101128 32.98942126 -12.40837925 25.23454388 -8.77172852 17.4831543 C-7.80041979 15.4117377 -6.83452762 13.33785392 -5.86914062 11.26367188 C-5.25291949 9.94516508 -4.63639457 8.62680022 -4.01953125 7.30859375 C-3.46370361 6.12064209 -2.90787598 4.93269043 -2.33520508 3.70874023 C-1 1 -1 1 0 0 Z " fill="#F48023" transform="translate(179,164)"/>
<path d="M0 0 C1.90626717 0.22303104 1.90626717 0.22303104 4.4692688 0.72486877 C5.44461012 0.9135575 6.41995144 1.10224623 7.42484856 1.29665279 C8.51328623 1.51401372 9.6017239 1.73137465 10.72314453 1.95532227 C12.4518085 2.2945627 12.4518085 2.2945627 14.21539497 2.64065647 C29.77483916 5.7143389 45.30227025 8.94824797 60.83052969 12.17496943 C65.26933631 13.0969595 69.70856619 14.01690763 74.1477356 14.93714905 C81.59598891 16.4814804 89.04394414 18.0272423 96.49169922 19.57397461 C105.01984885 21.34506998 113.54840071 23.11421721 122.07718837 24.88223737 C131.2742089 26.78880342 140.47093146 28.6968038 149.66757059 30.60520864 C152.2657155 31.14425804 154.86391312 31.68305266 157.46212387 32.22178459 C159.13815495 32.56937947 160.81418167 32.9169954 162.49020386 33.26463318 C163.30552908 33.43373111 164.12085431 33.60282904 164.96088636 33.77705115 C168.91093264 34.59681842 172.86047227 35.41890072 176.80895805 36.24615383 C177.93150334 36.48133269 177.93150334 36.48133269 179.07672632 36.72126263 C180.55664203 37.03134591 182.03653895 37.34151887 183.51641619 37.65178567 C187.82271153 38.55232884 192.13246414 39.43316027 196.4462322 40.29718226 C198.4713021 40.70404075 200.49515429 41.11643345 202.51864815 41.53105259 C204.96936459 42.0322095 207.42215022 42.52338984 209.87721062 43.00281429 C211.4737633 43.3332818 211.4737633 43.3332818 213.10256958 43.67042542 C214.03045855 43.85613381 214.95834751 44.04184221 215.91435432 44.23317814 C216.6026174 44.48622935 217.29088047 44.73928057 218 45 C219.05333738 48.16001215 218.97368806 49.06523118 218.28735352 52.19604492 C218.01696007 53.45701241 218.01696007 53.45701241 217.74110413 54.74345398 C217.43806618 56.09827629 217.43806618 56.09827629 217.12890625 57.48046875 C216.82713722 58.87245232 216.82713722 58.87245232 216.51927185 60.29255676 C215.87435977 63.25919602 215.21857011 66.22331048 214.5625 69.1875 C214.12363104 71.19710898 213.68547105 73.20687292 213.24804688 75.21679688 C212.17358631 80.14636787 211.08936349 85.07370184 210 90 C202.09053866 89.29726568 194.43020976 87.75370683 186.66674805 86.12353516 C185.23264318 85.82561296 183.79846227 85.52805659 182.36421204 85.23083496 C178.47628802 84.42403375 174.58945916 83.61206719 170.70281577 82.79912233 C166.57444302 81.93651134 162.44509861 81.07857566 158.31587219 80.22006226 C151.33720242 78.76844161 144.3591762 77.31376202 137.3815918 75.85693359 C127.73935353 73.84376691 118.0959674 71.83614554 108.45233321 69.82967806 C77.71639019 63.4340071 46.98485984 57.01747237 16.26953125 50.5234375 C15.17737494 50.29268147 14.08521862 50.06192543 12.95996666 49.82417679 C9.96114461 49.190219 6.96256809 48.55511657 3.96411133 47.91943359 C3.10062639 47.73682858 2.23714146 47.55422356 1.34749031 47.36608505 C0.56059759 47.19890095 -0.22629513 47.03171684 -1.03703308 46.85946655 C-1.71157123 46.71641775 -2.38610937 46.57336895 -3.08108807 46.42598534 C-5.0638233 45.98583166 -7.03190105 45.50123978 -9 45 C-8.53200738 36.17738401 -6.86011499 27.73303269 -4.98876953 19.12597656 C-4.49370822 16.84602387 -4.00987171 14.56388478 -3.52734375 12.28125 C-3.21679222 10.83059064 -2.90561802 9.38006441 -2.59375 7.9296875 C-2.44893188 7.24752167 -2.30411377 6.56535583 -2.15490723 5.86251831 C-1.11580034 1.11580034 -1.11580034 1.11580034 0 0 Z " fill="#F48023" transform="translate(141,265)"/>
<path d="M0 0 C3.42673696 1.52739084 6.05841282 3.54331171 8.9375 5.9375 C10.39542969 7.14599609 10.39542969 7.14599609 11.8828125 8.37890625 C13.96893074 10.1274287 16.04553419 11.88671543 18.1171875 13.65234375 C19.1822308 14.55996726 20.24733587 15.46751829 21.3125 16.375 C22.12569702 17.06831421 22.12569702 17.06831421 22.95532227 17.77563477 C26.85225119 21.07857189 30.83667048 24.24730755 34.875 27.375 C40.62320413 31.83279096 46.13543487 36.51739424 51.609375 41.30639648 C56.00391879 45.14876722 60.46577354 48.88909462 65 52.56640625 C74.57331735 60.33226134 84.077836 68.18144572 93.46826172 76.16748047 C97.66188996 79.72910195 101.91608422 83.21119517 106.18359375 86.68359375 C109.33785192 89.27787266 112.4520298 91.91606265 115.5625 94.5625 C119.33088939 97.76739191 123.12246028 100.92687694 127 104 C130.87754607 107.07312808 134.66899861 110.23273386 138.4375 113.4375 C143.20978124 117.49532232 148.02112565 121.49760677 152.87890625 125.453125 C156.99536846 128.80635257 161.08999189 132.18616348 165.1875 135.5625 C165.95545898 136.19518799 166.72341797 136.82787598 167.51464844 137.47973633 C169.34322284 138.98634066 171.17167689 140.49309074 173 142 C171.09685709 146.08005196 168.3917041 149.20613616 165.4375 152.5625 C164.35056797 153.81293829 163.26464079 155.0642507 162.1796875 156.31640625 C161.64182617 156.93660645 161.10396484 157.55680664 160.54980469 158.19580078 C157.60459976 161.62444987 154.76400826 165.13650711 151.9140625 168.64453125 C149.63380496 171.4506441 147.32208587 174.22847815 145 177 C140.96194134 175.63733356 138.45631882 173.8590849 135.375 170.9375 C131.02048583 166.90458953 126.53429269 163.11965002 121.921875 159.38671875 C118.72589208 156.77609633 115.57924943 154.11283497 112.4375 151.4375 C108.66926467 148.23243556 104.87753089 145.07311606 101 142 C97.12245393 138.92687192 93.33100139 135.76726614 89.5625 132.5625 C84.77332742 128.49031514 79.94383037 124.47518393 75.0703125 120.50390625 C65.48848079 112.68971525 55.94429692 104.83306826 46.52294922 96.82592773 C42.41143408 93.33583103 38.25098691 89.91060741 34.0703125 86.50390625 C24.48848079 78.68971525 14.94429692 70.83306826 5.52294922 62.82592773 C-0.2879614 57.89328385 -6.20122442 53.08705297 -12.11621094 48.28027344 C-14.45520866 46.37767799 -16.79026991 44.47032882 -19.125 42.5625 C-20.26437012 41.63860474 -20.26437012 41.63860474 -21.42675781 40.69604492 C-22.13413086 40.11701416 -22.84150391 39.5379834 -23.5703125 38.94140625 C-24.20727051 38.42263916 -24.84422852 37.90387207 -25.50048828 37.36938477 C-27 36 -27 36 -28 34 C-23.04993462 27.87491909 -18.02208626 21.83461372 -12.875 15.875 C-8.41479172 10.70713541 -4.10206017 5.45978432 0 0 Z " fill="#F48023" transform="translate(244,71)"/>
</svg>
