<?xml version="1.0" encoding="UTF-8"?>
<svg version="1.1" xmlns="http://www.w3.org/2000/svg" width="500" height="500">
<path d="M0 0 C165 0 330 0 500 0 C500 165 500 330 500 500 C335 500 170 500 0 500 C0 335 0 170 0 0 Z " fill="#007ACC" transform="translate(0,0)"/>
<path d="M0 0 C2.17024075 0.01603626 4.33860582 0.00010571 6.50878906 -0.01904297 C18.1798515 -0.03901399 28.6298646 1.69988708 39.05566406 7.14111328 C39.73749756 7.49036865 40.41933105 7.83962402 41.12182617 8.19946289 C46.35654978 10.96754312 50.66838771 14.13701971 54.80566406 18.39111328 C55.40507812 18.94412109 56.00449219 19.49712891 56.62207031 20.06689453 C67.6817791 30.45776564 67.6817791 30.45776564 67.86816406 36.37548828 C66.18286922 39.57259173 63.28935133 41.09035708 60.30566406 42.95361328 C58.94488081 43.82454117 57.58420818 44.69564191 56.22363281 45.56689453 C55.5061084 46.0214502 54.78858398 46.47600586 54.04931641 46.94433594 C51.72626143 48.44231459 49.4464285 49.99280451 47.16894531 51.55908203 C45.6520605 52.5864882 44.13513437 53.61383336 42.61816406 54.64111328 C41.54115234 55.3943689 41.54115234 55.3943689 40.44238281 56.1628418 C39.76433594 56.61457764 39.08628906 57.06631348 38.38769531 57.53173828 C37.79190674 57.9394043 37.19611816 58.34707031 36.58227539 58.76708984 C34.80566406 59.39111328 34.80566406 59.39111328 32.70239258 58.64746094 C30.17485619 56.97328122 28.72876714 54.94969053 26.93066406 52.51611328 C21.89289686 46.06554052 17.05909677 42.49157098 8.80566406 41.39111328 C1.08826026 40.75363061 -5.81764846 40.52593691 -12.19433594 45.39111328 C-17.5738734 51.05378429 -18.71359684 55.66606672 -18.57324219 63.34814453 C-17.73516818 70.07865639 -13.96241103 74.01146075 -8.83203125 78.1706543 C-0.83634079 84.12927931 8.91415409 87.9435898 18.05566406 91.76611328 C42.88471474 102.18999099 68.17854221 114.66934188 78.96191406 140.97705078 C85.18073777 158.76979638 84.67919025 178.44015086 76.74316406 195.64111328 C67.90801543 211.96773169 53.1826853 222.06069066 35.82788086 227.80957031 C26.66671126 230.44411166 17.56876343 230.70570618 8.10864258 230.65185547 C5.87521112 230.64114707 3.64258667 230.65180107 1.40917969 230.66455078 C-22.36565185 230.68990393 -44.35694624 223.39230109 -62.19433594 207.39111328 C-63.09152344 206.63314453 -63.09152344 206.63314453 -64.00683594 205.85986328 C-68.27708001 201.98501217 -71.4595675 197.37910426 -74.69433594 192.64111328 C-75.15259766 191.97845459 -75.61085938 191.3157959 -76.08300781 190.63305664 C-77.20502301 188.9390125 -78.209674 187.16851153 -79.19433594 185.39111328 C-77.89526893 181.49391225 -76.53804761 181.18364336 -72.97949219 179.24658203 C-71.36010742 178.35422852 -71.36010742 178.35422852 -69.70800781 177.44384766 C-68.56912109 176.82832031 -67.43023437 176.21279297 -66.25683594 175.57861328 C-64.0385817 174.36524246 -61.82112386 173.15041447 -59.60449219 171.93408203 C-57.98631592 171.05115479 -57.98631592 171.05115479 -56.33544922 170.15039062 C-52.55399559 168.03247093 -48.87479527 165.77267849 -45.21557617 163.45092773 C-43.19433594 162.39111328 -43.19433594 162.39111328 -40.19433594 162.39111328 C-38.61621094 164.33251953 -38.61621094 164.33251953 -36.94433594 166.95361328 C-29.16352263 178.47051649 -18.99048756 185.752054 -5.38183594 189.07861328 C6.20331314 190.21441221 15.35477604 189.01484227 25.64160156 183.51220703 C27.80566406 182.39111328 27.80566406 182.39111328 30.80566406 181.39111328 C31.96488534 179.65968475 31.96488534 179.65968475 32.80566406 177.39111328 C33.17691406 176.54548828 33.54816406 175.69986328 33.93066406 174.82861328 C35.34864735 169.25796465 36.05462604 163.49287423 33.86035156 158.04345703 C29.63671533 150.93765393 23.39597765 147.41736288 16.24316406 143.70361328 C15.41324951 143.26936035 14.58333496 142.83510742 13.72827148 142.38769531 C7.77667084 139.31334376 1.74057219 136.482042 -4.38183594 133.76611328 C-30.28121722 122.27702728 -30.28121722 122.27702728 -41.19433594 113.39111328 C-42.5053125 112.34310547 -42.5053125 112.34310547 -43.84277344 111.27392578 C-55.35690371 101.55779783 -62.88382081 87.83577377 -64.90917969 72.85205078 C-66.41040032 54.63175657 -64.6491503 38.80055714 -53.19433594 23.76611328 C-45.24091111 14.44924419 -35.69497425 7.63450395 -24.19433594 3.39111328 C-23.20916992 3.00052734 -23.20916992 3.00052734 -22.20410156 2.60205078 C-14.88073478 0.00720546 -7.66846971 -0.06726728 0 0 Z " fill="#FDFEFE" transform="translate(378.1943359375,228.60888671875)"/>
<path d="M0 0 C57.75 0 115.5 0 175 0 C175 13.53 175 27.06 175 41 C153.55 41 132.1 41 110 41 C110 102.05 110 163.1 110 226 C95.15 226 80.3 226 65 226 C65 164.95 65 103.9 65 41 C43.55 41 22.1 41 0 41 C0 27.47 0 13.94 0 0 Z " fill="#FEFEFE" transform="translate(111,231)"/>
</svg>
